<?xml version="1.0" encoding="utf-8"?>
<!-- Generator: Adobe Illustrator 15.0.0, SVG Export Plug-In . SVG Version: 6.00 Build 0)  -->
<!DOCTYPE svg PUBLIC "-//W3C//DTD SVG 1.1//EN" "http://www.w3.org/Graphics/SVG/1.1/DTD/svg11.dtd">
<svg version="1.1" id="Capa_1" xmlns="http://www.w3.org/2000/svg" xmlns:xlink="http://www.w3.org/1999/xlink" x="0px" y="0px"
	 width="586px" height="586px" viewBox="0 0 586 586" enable-background="new 0 0 586 586" xml:space="preserve">
<g opacity="0.3">
	<path fill="#54D9FB" d="M70.81,417.444c22.295,8.044,42.563,15.354,73.325,15.178c78.306-0.173,158.679-56.046,226.169-17.88
		c-85.04-13.354-143.348,42.008-227.035,32.889C116.347,444.591,92.172,434.637,70.81,417.444z"/>
	<path fill="#005B8D" d="M208.648,450.037c66.619,2.848,111.874-11.994,162.559-29.978c43.3-12.416,96.697-17.288,130.835,12.264
		c-35.705-13.419-74.742-8.632-107.451,0.634C364.757,442.355,285.057,479.107,208.648,450.037z"/>
	<path fill="#005B8D" d="M47.56,428.124c21.021,12.87,79.928,36.858,141.685,46.008c98.887,14.526,161.073-21.081,186.026-29.396
		c-31.293,22.114-59.377,44.475-121.736,50.553C166.205,503.091,82.025,464.645,47.56,428.124z"/>
	<path fill="#54D9FB" d="M183.182,417.444c78.172-51.433,137.21-59.425,198.282-51.679c33.334,5.147,124.838,33.9,165.965,26.213
		c-37.345,17.506-110.465,4.058-152.211-4.174C295.669,370.598,244.849,398.732,183.182,417.444z"/>
</g>
<g id="lineas">
</g>
<g display="none">
	<g display="inline">
		<g>
			<path id="SVGID_1_" fill="#B0B0BC" d="M336.607,344.641c2.143,1.635,5.219,3.183,7.315,1.494
				c0.484-0.393,0.839-0.921,1.185-1.435c6.563-9.734,13.125-19.468,19.683-29.203c-13.63,1.421-29.237,1.713-42.361,5.771
				c-7.187,2.224-3.768,5.873,0.032,10.181C326.731,336.293,331.476,340.718,336.607,344.641z"/>
		</g>
		<g>
			<defs>
				<path id="SVGID_2_" d="M336.607,344.641c2.143,1.635,5.219,3.183,7.315,1.494c0.484-0.393,0.839-0.921,1.185-1.435
					c6.563-9.734,13.125-19.468,19.683-29.203c-13.63,1.421-29.237,1.713-42.361,5.771c-7.187,2.224-3.768,5.873,0.032,10.181
					C326.731,336.293,331.476,340.718,336.607,344.641z"/>
			</defs>
			<clipPath id="SVGID_4_">
				<use xlink:href="#SVGID_2_"  overflow="visible"/>
			</clipPath>
			<g clip-path="url(#SVGID_4_)">
				<path fill="#CFCDDB" d="M337.022,320.387c-3.903,3.868-7.692,7.836-11.412,11.883c-2.926,3.176-7.207,6.354-8.796,10.407
					c-0.271,0.696,0.59,1.097,1.117,0.86c4.226-1.863,7.687-7.15,10.662-10.619c3.276-3.825,6.31-7.821,9.128-11.989
					C338.013,320.5,337.375,320.033,337.022,320.387L337.022,320.387z"/>
			</g>
		</g>
		<g>
			<defs>
				<path id="SVGID_6_" d="M336.607,344.641c2.143,1.635,5.219,3.183,7.315,1.494c0.484-0.393,0.839-0.921,1.185-1.435
					c6.563-9.734,13.125-19.468,19.683-29.203c-13.63,1.421-29.237,1.713-42.361,5.771c-7.187,2.224-3.768,5.873,0.032,10.181
					C326.731,336.293,331.476,340.718,336.607,344.641z"/>
			</defs>
			<clipPath id="SVGID_8_">
				<use xlink:href="#SVGID_6_"  overflow="visible"/>
			</clipPath>
			<g clip-path="url(#SVGID_8_)">
				<path fill="#CFCDDB" d="M342.731,320.879c-3.872,5.031-7.922,9.948-12.14,14.689c-3.497,3.937-7.519,7.516-10.598,11.787
					c-1.116,1.541,1.171,2.865,2.427,1.869c8.771-6.959,15.593-18.283,21.431-27.689C344.304,320.8,343.223,320.236,342.731,320.879
					L342.731,320.879z"/>
			</g>
		</g>
		<g>
			<defs>
				<path id="SVGID_10_" d="M336.607,344.641c2.143,1.635,5.219,3.183,7.315,1.494c0.484-0.393,0.839-0.921,1.185-1.435
					c6.563-9.734,13.125-19.468,19.683-29.203c-13.63,1.421-29.237,1.713-42.361,5.771c-7.187,2.224-3.768,5.873,0.032,10.181
					C326.731,336.293,331.476,340.718,336.607,344.641z"/>
			</defs>
			<clipPath id="SVGID_11_">
				<use xlink:href="#SVGID_10_"  overflow="visible"/>
			</clipPath>
			<g clip-path="url(#SVGID_11_)">
				<path fill="#CFCDDB" d="M351.294,318.345c-4.774,6.298-9.35,12.774-14.33,18.905c-4.025,4.949-9.549,9.463-12.5,15.094
					c-0.566,1.078,0.582,2.301,1.688,1.684c5.909-3.317,10.337-10.2,14.256-15.629c4.527-6.275,8.355-12.725,11.294-19.881
					C351.808,318.26,351.43,318.159,351.294,318.345L351.294,318.345z"/>
			</g>
		</g>
		<g>
			<defs>
				<path id="SVGID_12_" d="M336.607,344.641c2.143,1.635,5.219,3.183,7.315,1.494c0.484-0.393,0.839-0.921,1.185-1.435
					c6.563-9.734,13.125-19.468,19.683-29.203c-13.63,1.421-29.237,1.713-42.361,5.771c-7.187,2.224-3.768,5.873,0.032,10.181
					C326.731,336.293,331.476,340.718,336.607,344.641z"/>
			</defs>
			<clipPath id="SVGID_13_">
				<use xlink:href="#SVGID_12_"  overflow="visible"/>
			</clipPath>
			<g clip-path="url(#SVGID_13_)">
				<path fill="#CFCDDB" d="M356.012,318.23c-7.322,13.359-16.422,25.396-24.311,38.353c-0.667,1.091,0.772,1.978,1.65,1.272
					c12.075-9.602,19.719-24.523,23.851-39.125C357.4,318.031,356.371,317.582,356.012,318.23L356.012,318.23z"/>
			</g>
		</g>
	</g>
	<g display="inline">
		<g>
			<path id="SVGID_3_" fill="#B0B0BC" d="M189.249,373.061c6.646,10.648,15.512,19.739,24.792,28.193
				c8.563-6.37,16.947-12.971,25.146-19.801c-7.053-3.318-14.192-6.688-20.169-11.689c-9.365-7.836-15.353-19.574-16.196-31.75
				c-5.625-0.438-11.277-0.557-16.917-0.361c-6.743,0.236-7.718,0.326-6.941,7.299C180.079,354.962,183.942,364.555,189.249,373.061
				z"/>
		</g>
		<g>
			<defs>
				<path id="SVGID_14_" d="M189.249,373.061c6.646,10.648,15.512,19.739,24.792,28.193c8.563-6.37,16.947-12.971,25.146-19.801
					c-7.053-3.318-14.192-6.688-20.169-11.689c-9.365-7.836-15.353-19.574-16.196-31.75c-5.625-0.438-11.277-0.557-16.917-0.361
					c-6.743,0.236-7.718,0.326-6.941,7.299C180.079,354.962,183.942,364.555,189.249,373.061z"/>
			</defs>
			<clipPath id="SVGID_15_">
				<use xlink:href="#SVGID_14_"  overflow="visible"/>
			</clipPath>
			<g clip-path="url(#SVGID_15_)">
				<path fill="#CFCDDB" d="M183.292,346.092c-1.115,13.133,5.718,25.178,13.441,35.334c6.282,8.256,17.666,22.361,28.651,23.863
					c0.705,0.094,1.546-0.609,1.039-1.35c-2.818-4.116-7.28-6.276-11.128-9.42c-4.425-3.613-8.552-7.629-12.257-11.975
					c-9.137-10.727-15.533-22.865-18.867-36.572C184.047,345.457,183.333,345.613,183.292,346.092L183.292,346.092z"/>
			</g>
		</g>
		<g>
			<defs>
				<path id="SVGID_16_" d="M189.249,373.061c6.646,10.648,15.512,19.739,24.792,28.193c8.563-6.37,16.947-12.971,25.146-19.801
					c-7.053-3.318-14.192-6.688-20.169-11.689c-9.365-7.836-15.353-19.574-16.196-31.75c-5.625-0.438-11.277-0.557-16.917-0.361
					c-6.743,0.236-7.718,0.326-6.941,7.299C180.079,354.962,183.942,364.555,189.249,373.061z"/>
			</defs>
			<clipPath id="SVGID_17_">
				<use xlink:href="#SVGID_16_"  overflow="visible"/>
			</clipPath>
			<g clip-path="url(#SVGID_17_)">
				<path fill="#CFCDDB" d="M187.736,342.385c-0.49,14.145,8.26,27.907,16.831,38.459c7.511,9.244,19.856,24.004,33.14,23.621
					c0.889-0.023,1.31-1.074,0.712-1.72c-3.744-4.042-9.537-5.353-14.186-8.228c-6.033-3.733-10.505-8.758-14.996-14.179
					c-4.551-5.495-8.944-11.067-12.284-17.396c-3.521-6.67-5.227-13.813-8.116-20.707
					C188.603,341.682,187.759,341.71,187.736,342.385L187.736,342.385z"/>
			</g>
		</g>
		<g>
			<defs>
				<path id="SVGID_18_" d="M189.249,373.061c6.646,10.648,15.512,19.739,24.792,28.193c8.563-6.37,16.947-12.971,25.146-19.801
					c-7.053-3.318-14.192-6.688-20.169-11.689c-9.365-7.836-15.353-19.574-16.196-31.75c-5.625-0.438-11.277-0.557-16.917-0.361
					c-6.743,0.236-7.718,0.326-6.941,7.299C180.079,354.962,183.942,364.555,189.249,373.061z"/>
			</defs>
			<clipPath id="SVGID_19_">
				<use xlink:href="#SVGID_18_"  overflow="visible"/>
			</clipPath>
			<g clip-path="url(#SVGID_19_)">
				<path fill="#CFCDDB" d="M193.75,341.938c-1.93,11.537,7.152,23.537,13.759,32.265c7.931,10.483,19.863,22.095,33.392,24.157
					c1.428,0.214,2.511-1.682,1.053-2.502c-10.491-5.895-20.449-10.52-28.729-19.664c-4.236-4.676-7.75-9.805-10.78-15.326
					c-2.98-5.434-7.651-12.542-7.506-18.766C194.953,341.436,193.865,341.254,193.75,341.938L193.75,341.938z"/>
			</g>
		</g>
		<g>
			<defs>
				<path id="SVGID_20_" d="M189.249,373.061c6.646,10.648,15.512,19.739,24.792,28.193c8.563-6.37,16.947-12.971,25.146-19.801
					c-7.053-3.318-14.192-6.688-20.169-11.689c-9.365-7.836-15.353-19.574-16.196-31.75c-5.625-0.438-11.277-0.557-16.917-0.361
					c-6.743,0.236-7.718,0.326-6.941,7.299C180.079,354.962,183.942,364.555,189.249,373.061z"/>
			</defs>
			<clipPath id="SVGID_21_">
				<use xlink:href="#SVGID_20_"  overflow="visible"/>
			</clipPath>
			<g clip-path="url(#SVGID_21_)">
				<path fill="#CFCDDB" d="M199.196,343.102c-1.726,12.314,9.866,26.907,18.996,34.121c8.781,6.932,23.002,17.969,34.981,15.113
					c1.072-0.253,0.833-1.59,0-1.939c-5.666-2.385-11.563-3.782-17.006-6.787c-4.458-2.463-8.765-5.323-12.929-8.243
					c-5.838-4.089-10.318-8.584-14.303-14.501c-3.345-4.971-8.428-11.848-9.48-17.764
					C199.433,342.98,199.213,342.973,199.196,343.102L199.196,343.102z"/>
			</g>
		</g>
	</g>
	<g display="inline">
		<g>
			<path id="SVGID_5_" fill="#B0B0BC" d="M364.975,224.075c3.098-1.82,6.689-3.24,10.224-2.587c2.209,0.41,4.189,1.597,6.048,2.86
				c11.147,7.589,19.723,18.89,24.028,31.67c-3.497,1.306-7.313-0.439-10.676-2.061c-11.804-5.699-23.31-7.736-35.715-11.12
				c-3.687-1.002-9.281-3.723-7.157-8.269C353.577,230.604,361.327,226.22,364.975,224.075z"/>
		</g>
		<g>
			<defs>
				<path id="SVGID_22_" d="M364.975,224.075c3.098-1.82,6.689-3.24,10.224-2.587c2.209,0.41,4.189,1.597,6.048,2.86
					c11.147,7.589,19.723,18.89,24.028,31.67c-3.497,1.306-7.313-0.439-10.676-2.061c-11.804-5.699-23.31-7.736-35.715-11.12
					c-3.687-1.002-9.281-3.723-7.157-8.269C353.577,230.604,361.327,226.22,364.975,224.075z"/>
			</defs>
			<clipPath id="SVGID_23_">
				<use xlink:href="#SVGID_22_"  overflow="visible"/>
			</clipPath>
			<g clip-path="url(#SVGID_23_)">
				<path fill="#CFCDDB" d="M351.58,240.8c1.397,0.423,5.247-4.563,6.314-5.513c2.726-2.441,5.563-4.758,8.546-6.879
					c5.057-3.597,10.833-5.981,15.882-9.517c0.871-0.614,0.361-2.029-0.741-1.761c-11.847,2.862-24.832,13.703-32.058,23.271
					c-0.496,0.656,0.18,1.593,0.906,1.584c0.688-0.007,0.813-0.081,1.32-0.548C351.965,241.237,351.844,240.88,351.58,240.8
					L351.58,240.8z"/>
			</g>
		</g>
		<g>
			<defs>
				<path id="SVGID_24_" d="M364.975,224.075c3.098-1.82,6.689-3.24,10.224-2.587c2.209,0.41,4.189,1.597,6.048,2.86
					c11.147,7.589,19.723,18.89,24.028,31.67c-3.497,1.306-7.313-0.439-10.676-2.061c-11.804-5.699-23.31-7.736-35.715-11.12
					c-3.687-1.002-9.281-3.723-7.157-8.269C353.577,230.604,361.327,226.22,364.975,224.075z"/>
			</defs>
			<clipPath id="SVGID_25_">
				<use xlink:href="#SVGID_24_"  overflow="visible"/>
			</clipPath>
			<g clip-path="url(#SVGID_25_)">
				<path fill="#CFCDDB" d="M358.064,242.449c5.359-4.458,10.212-9.378,16.096-13.198c4.86-3.158,10.855-4.926,15.322-8.557
					c0.644-0.519,0.093-1.566-0.649-1.566c-6.4-0.005-13.057,4.545-18.075,8.125c-5.417,3.859-10.517,8.519-13.713,14.409
					C356.675,242.335,357.51,242.91,358.064,242.449L358.064,242.449z"/>
			</g>
		</g>
		<g>
			<defs>
				<path id="SVGID_26_" d="M364.975,224.075c3.098-1.82,6.689-3.24,10.224-2.587c2.209,0.41,4.189,1.597,6.048,2.86
					c11.147,7.589,19.723,18.89,24.028,31.67c-3.497,1.306-7.313-0.439-10.676-2.061c-11.804-5.699-23.31-7.736-35.715-11.12
					c-3.687-1.002-9.281-3.723-7.157-8.269C353.577,230.604,361.327,226.22,364.975,224.075z"/>
			</defs>
			<clipPath id="SVGID_27_">
				<use xlink:href="#SVGID_26_"  overflow="visible"/>
			</clipPath>
			<g clip-path="url(#SVGID_27_)">
				<path fill="#CFCDDB" d="M365.146,244.423c4.461-4.21,9.407-8.123,14.487-11.553c4.316-2.916,9.089-5.16,13.139-8.439
					c0.914-0.743-0.107-1.972-1.049-1.797c-11.313,2.105-21.11,12.086-27.809,20.838C363.355,244.2,364.526,245.01,365.146,244.423
					L365.146,244.423z"/>
			</g>
		</g>
		<g>
			<defs>
				<path id="SVGID_28_" d="M364.975,224.075c3.098-1.82,6.689-3.24,10.224-2.587c2.209,0.41,4.189,1.597,6.048,2.86
					c11.147,7.589,19.723,18.89,24.028,31.67c-3.497,1.306-7.313-0.439-10.676-2.061c-11.804-5.699-23.31-7.736-35.715-11.12
					c-3.687-1.002-9.281-3.723-7.157-8.269C353.577,230.604,361.327,226.22,364.975,224.075z"/>
			</defs>
			<clipPath id="SVGID_29_">
				<use xlink:href="#SVGID_28_"  overflow="visible"/>
			</clipPath>
			<g clip-path="url(#SVGID_29_)">
				<path fill="#CFCDDB" d="M373.154,245.263c4.442-4.021,9.307-7.626,14.416-10.753c4.217-2.578,9.191-4.446,12.87-7.771
					c0.454-0.409,0.079-1.127-0.475-1.147c-10.983-0.396-22.065,10.208-28.332,18.152
					C370.79,244.809,372.101,246.214,373.154,245.263L373.154,245.263z"/>
			</g>
		</g>
		<g>
			<defs>
				<path id="SVGID_30_" d="M364.975,224.075c3.098-1.82,6.689-3.24,10.224-2.587c2.209,0.41,4.189,1.597,6.048,2.86
					c11.147,7.589,19.723,18.89,24.028,31.67c-3.497,1.306-7.313-0.439-10.676-2.061c-11.804-5.699-23.31-7.736-35.715-11.12
					c-3.687-1.002-9.281-3.723-7.157-8.269C353.577,230.604,361.327,226.22,364.975,224.075z"/>
			</defs>
			<clipPath id="SVGID_31_">
				<use xlink:href="#SVGID_30_"  overflow="visible"/>
			</clipPath>
			<g clip-path="url(#SVGID_31_)">
				<path fill="#CFCDDB" d="M379.157,247.052c3.751-2.191,7.198-4.86,10.896-7.136c3.379-2.078,7.278-3.789,10.084-6.638
					c0.612-0.625,0.186-1.841-0.746-1.796c-8.054,0.38-17.031,8.162-21.027,14.774C378.057,246.757,378.658,247.342,379.157,247.052
					L379.157,247.052z"/>
			</g>
		</g>
		<g>
			<defs>
				<path id="SVGID_32_" d="M364.975,224.075c3.098-1.82,6.689-3.24,10.224-2.587c2.209,0.41,4.189,1.597,6.048,2.86
					c11.147,7.589,19.723,18.89,24.028,31.67c-3.497,1.306-7.313-0.439-10.676-2.061c-11.804-5.699-23.31-7.736-35.715-11.12
					c-3.687-1.002-9.281-3.723-7.157-8.269C353.577,230.604,361.327,226.22,364.975,224.075z"/>
			</defs>
			<clipPath id="SVGID_33_">
				<use xlink:href="#SVGID_32_"  overflow="visible"/>
			</clipPath>
			<g clip-path="url(#SVGID_33_)">
				<path fill="#CFCDDB" d="M387.169,248.111c2.779-2.405,5.987-4.439,9.096-6.394c2.658-1.671,5.635-3.013,7.86-5.267
					c0.594-0.602,0.179-1.755-0.714-1.722c-7.258,0.288-13.313,6.832-17.67,11.957C384.901,247.673,386.181,248.966,387.169,248.111
					L387.169,248.111z"/>
			</g>
		</g>
	</g>
	<g display="inline">
		<g>
			<path id="SVGID_7_" fill="#B0B0BC" d="M251.947,186.045c4.546-2.493,9.56-4.807,14.706-4.192c0.78,0.092,1.61,0.283,2.143,0.863
				c0.489,0.532,0.633,1.288,0.737,2.003c1.188,8.126,0.029,16.401,0.337,24.608c0.322,8.618,2.281,17.172,5.742,25.073
				c-0.385-0.879-28.583,3.646-31.417,3.927c-9.392,0.933-21.667,3.874-30.921,1.604c-22.669-5.561,5.443-29.396,13.088-36.04
				C234.225,197.06,242.812,191.056,251.947,186.045z"/>
		</g>
		<g>
			<defs>
				<path id="SVGID_34_" d="M251.947,186.045c4.546-2.493,9.56-4.807,14.706-4.192c0.78,0.092,1.61,0.283,2.143,0.863
					c0.489,0.532,0.633,1.288,0.737,2.003c1.188,8.126,0.029,16.401,0.337,24.608c0.322,8.618,2.281,17.172,5.742,25.073
					c-0.385-0.879-28.583,3.646-31.417,3.927c-9.392,0.933-21.667,3.874-30.921,1.604c-22.669-5.561,5.443-29.396,13.088-36.04
					C234.225,197.06,242.812,191.056,251.947,186.045z"/>
			</defs>
			<clipPath id="SVGID_35_">
				<use xlink:href="#SVGID_34_"  overflow="visible"/>
			</clipPath>
			<g clip-path="url(#SVGID_35_)">
				<path fill="#CFCDDB" d="M210.42,237.023c-0.187-13.586,13.62-25.758,22.99-33.931c10.393-9.063,21.438-15.042,33.616-21.209
					c0.532-0.27,0.155-1.081-0.397-0.942c-14.982,3.78-28.033,15.654-39.313,25.704c-6.153,5.482-22.873,20.762-17.271,30.48
					C210.143,237.295,210.424,237.222,210.42,237.023L210.42,237.023z"/>
			</g>
		</g>
		<g>
			<defs>
				<path id="SVGID_36_" d="M251.947,186.045c4.546-2.493,9.56-4.807,14.706-4.192c0.78,0.092,1.61,0.283,2.143,0.863
					c0.489,0.532,0.633,1.288,0.737,2.003c1.188,8.126,0.029,16.401,0.337,24.608c0.322,8.618,2.281,17.172,5.742,25.073
					c-0.385-0.879-28.583,3.646-31.417,3.927c-9.392,0.933-21.667,3.874-30.921,1.604c-22.669-5.561,5.443-29.396,13.088-36.04
					C234.225,197.06,242.812,191.056,251.947,186.045z"/>
			</defs>
			<clipPath id="SVGID_37_">
				<use xlink:href="#SVGID_36_"  overflow="visible"/>
			</clipPath>
			<g clip-path="url(#SVGID_37_)">
				<path fill="#CFCDDB" d="M214.3,237.465c6.06-12.096,14.571-22.744,24.866-31.564c11.354-9.729,24.002-14.946,37.612-20.684
					c1.396-0.588,0.902-2.549-0.632-2.291c-14.443,2.436-28.46,11.133-39.476,20.478c-8.305,7.046-24.43,21.78-22.832,33.936
					C213.868,237.557,214.177,237.71,214.3,237.465L214.3,237.465z"/>
			</g>
		</g>
		<g>
			<defs>
				<path id="SVGID_38_" d="M251.947,186.045c4.546-2.493,9.56-4.807,14.706-4.192c0.78,0.092,1.61,0.283,2.143,0.863
					c0.489,0.532,0.633,1.288,0.737,2.003c1.188,8.126,0.029,16.401,0.337,24.608c0.322,8.618,2.281,17.172,5.742,25.073
					c-0.385-0.879-28.583,3.646-31.417,3.927c-9.392,0.933-21.667,3.874-30.921,1.604c-22.669-5.561,5.443-29.396,13.088-36.04
					C234.225,197.06,242.812,191.056,251.947,186.045z"/>
			</defs>
			<clipPath id="SVGID_39_">
				<use xlink:href="#SVGID_38_"  overflow="visible"/>
			</clipPath>
			<g clip-path="url(#SVGID_39_)">
				<path fill="#CFCDDB" d="M221.97,237.743c3.452-11.529,15.296-20.981,24.223-28.555c9.297-7.886,19.333-12.992,29.717-19.089
					c0.84-0.494,0.279-1.786-0.655-1.555c-12.048,2.958-22.99,11.44-32.163,19.5c-9.003,7.912-19.767,17.143-22.59,29.293
					C220.279,238.293,221.688,238.685,221.97,237.743L221.97,237.743z"/>
			</g>
		</g>
		<g>
			<defs>
				<path id="SVGID_40_" d="M251.947,186.045c4.546-2.493,9.56-4.807,14.706-4.192c0.78,0.092,1.61,0.283,2.143,0.863
					c0.489,0.532,0.633,1.288,0.737,2.003c1.188,8.126,0.029,16.401,0.337,24.608c0.322,8.618,2.281,17.172,5.742,25.073
					c-0.385-0.879-28.583,3.646-31.417,3.927c-9.392,0.933-21.667,3.874-30.921,1.604c-22.669-5.561,5.443-29.396,13.088-36.04
					C234.225,197.06,242.812,191.056,251.947,186.045z"/>
			</defs>
			<clipPath id="SVGID_41_">
				<use xlink:href="#SVGID_40_"  overflow="visible"/>
			</clipPath>
			<g clip-path="url(#SVGID_41_)">
				<path fill="#CFCDDB" d="M230.054,237.026c2.399-10.237,15.954-19.892,23.905-25.759c7.508-5.539,16.218-9.65,23.23-15.792
					c0.515-0.45-0.038-1.226-0.632-1.086c-11.297,2.664-21.75,11.019-30.596,18.253c-7.106,5.81-17.102,14.225-16.525,24.302
					C229.458,237.282,229.97,237.387,230.054,237.026L230.054,237.026z"/>
			</g>
		</g>
		<g>
			<defs>
				<path id="SVGID_42_" d="M251.947,186.045c4.546-2.493,9.56-4.807,14.706-4.192c0.78,0.092,1.61,0.283,2.143,0.863
					c0.489,0.532,0.633,1.288,0.737,2.003c1.188,8.126,0.029,16.401,0.337,24.608c0.322,8.618,2.281,17.172,5.742,25.073
					c-0.385-0.879-28.583,3.646-31.417,3.927c-9.392,0.933-21.667,3.874-30.921,1.604c-22.669-5.561,5.443-29.396,13.088-36.04
					C234.225,197.06,242.812,191.056,251.947,186.045z"/>
			</defs>
			<clipPath id="SVGID_43_">
				<use xlink:href="#SVGID_42_"  overflow="visible"/>
			</clipPath>
			<g clip-path="url(#SVGID_43_)">
				<path fill="#CFCDDB" d="M237.39,236.375c3.203-8.143,13.028-13.957,19.879-18.726c6.047-4.208,12.606-7.686,18.534-12.043
					c0.867-0.637,0.403-2.291-0.793-1.884c-9.434,3.199-18.04,9.363-25.863,15.401c-5.472,4.223-13.534,9.324-12.724,17.121
					C236.48,236.805,237.182,236.903,237.39,236.375L237.39,236.375z"/>
			</g>
		</g>
		<g>
			<defs>
				<path id="SVGID_44_" d="M251.947,186.045c4.546-2.493,9.56-4.807,14.706-4.192c0.78,0.092,1.61,0.283,2.143,0.863
					c0.489,0.532,0.633,1.288,0.737,2.003c1.188,8.126,0.029,16.401,0.337,24.608c0.322,8.618,2.281,17.172,5.742,25.073
					c-0.385-0.879-28.583,3.646-31.417,3.927c-9.392,0.933-21.667,3.874-30.921,1.604c-22.669-5.561,5.443-29.396,13.088-36.04
					C234.225,197.06,242.812,191.056,251.947,186.045z"/>
			</defs>
			<clipPath id="SVGID_45_">
				<use xlink:href="#SVGID_44_"  overflow="visible"/>
			</clipPath>
			<g clip-path="url(#SVGID_45_)">
				<path fill="#CFCDDB" d="M242.029,237.885c4.903-6.14,11.098-11.437,17.543-15.874c6.365-4.382,13.738-7.125,19.999-11.54
					c0.515-0.363,0.417-1.422-0.359-1.336c-8.441,0.945-16.712,6.387-23.292,11.437c-5.735,4.4-12.664,9.595-14.712,16.833
					C241.079,237.849,241.711,238.282,242.029,237.885L242.029,237.885z"/>
			</g>
		</g>
		<g>
			<defs>
				<path id="SVGID_46_" d="M251.947,186.045c4.546-2.493,9.56-4.807,14.706-4.192c0.78,0.092,1.61,0.283,2.143,0.863
					c0.489,0.532,0.633,1.288,0.737,2.003c1.188,8.126,0.029,16.401,0.337,24.608c0.322,8.618,2.281,17.172,5.742,25.073
					c-0.385-0.879-28.583,3.646-31.417,3.927c-9.392,0.933-21.667,3.874-30.921,1.604c-22.669-5.561,5.443-29.396,13.088-36.04
					C234.225,197.06,242.812,191.056,251.947,186.045z"/>
			</defs>
			<clipPath id="SVGID_47_">
				<use xlink:href="#SVGID_46_"  overflow="visible"/>
			</clipPath>
			<g clip-path="url(#SVGID_47_)">
				<path fill="#CFCDDB" d="M251.221,236.698c3.392-5.04,8.947-8.733,14.096-11.772c4.471-2.638,9.675-4.307,13.634-7.694
					c0.738-0.631,0.113-1.818-0.761-1.836c-6.572-0.13-13.132,4.255-18.268,7.952c-4.809,3.461-8.323,7.066-10.421,12.626
					C249.107,237.021,250.658,237.535,251.221,236.698L251.221,236.698z"/>
			</g>
		</g>
		<g>
			<defs>
				<path id="SVGID_48_" d="M251.947,186.045c4.546-2.493,9.56-4.807,14.706-4.192c0.78,0.092,1.61,0.283,2.143,0.863
					c0.489,0.532,0.633,1.288,0.737,2.003c1.188,8.126,0.029,16.401,0.337,24.608c0.322,8.618,2.281,17.172,5.742,25.073
					c-0.385-0.879-28.583,3.646-31.417,3.927c-9.392,0.933-21.667,3.874-30.921,1.604c-22.669-5.561,5.443-29.396,13.088-36.04
					C234.225,197.06,242.812,191.056,251.947,186.045z"/>
			</defs>
			<clipPath id="SVGID_49_">
				<use xlink:href="#SVGID_48_"  overflow="visible"/>
			</clipPath>
			<g clip-path="url(#SVGID_49_)">
				<path fill="#CFCDDB" d="M258.532,236.88c5.891-5.851,14.292-7.944,20.587-13.144c1.076-0.893-0.109-2.417-1.265-2.173
					c-8.396,1.779-15.295,7.549-21.034,13.605C255.751,236.299,257.425,237.981,258.532,236.88L258.532,236.88z"/>
			</g>
		</g>
	</g>
	<g display="inline">
		<g>
			<path id="SVGID_9_" fill="#B0B0BC" d="M492.28,260.686c14.781-15.529,36.224-23.231,57.502-25.847
				c3.642-0.447,7.73-0.635,10.542,1.724c-12.297,10.116-23.794,21.197-34.354,33.107c-2.436,2.743-4.89,5.66-5.823,9.203
				c-1.613,6.091,1.406,17.682,5.33,22.607c8.778,11.02,23.794,38.295,21.449,38.502c-8.581,0.765-16.854-3.021-24.561-6.879
				c-12.239-6.123-24.729-13.067-32.515-24.321c-3.012-4.36-5.231-9.271-6.506-14.412
				C480.137,281.426,483.027,270.413,492.28,260.686z"/>
		</g>
		<g>
			<defs>
				<path id="SVGID_50_" d="M492.28,260.686c14.781-15.529,36.224-23.231,57.502-25.847c3.642-0.447,7.73-0.635,10.542,1.724
					c-12.297,10.116-23.794,21.197-34.354,33.107c-2.436,2.743-4.89,5.66-5.823,9.203c-1.613,6.091,1.406,17.682,5.33,22.607
					c8.778,11.02,23.794,38.295,21.449,38.502c-8.581,0.765-16.854-3.021-24.561-6.879c-12.239-6.123-24.729-13.067-32.515-24.321
					c-3.012-4.36-5.231-9.271-6.506-14.412C480.137,281.426,483.027,270.413,492.28,260.686z"/>
			</defs>
			<clipPath id="SVGID_51_">
				<use xlink:href="#SVGID_50_"  overflow="visible"/>
			</clipPath>
			<g clip-path="url(#SVGID_51_)">
				<path fill="#CFCDDB" d="M484.161,285.122c15.188-2.832,31.04,1.494,45.966-1.579c1.149-0.236,0.979-1.836,0-2.159
					c-8.12-2.689-17.677-1.872-26.135-1.607c-7.099,0.221-14.113,0.389-20.608,3.502
					C482.291,283.801,483.11,285.317,484.161,285.122L484.161,285.122z"/>
			</g>
		</g>
		<g>
			<defs>
				<path id="SVGID_52_" d="M492.28,260.686c14.781-15.529,36.224-23.231,57.502-25.847c3.642-0.447,7.73-0.635,10.542,1.724
					c-12.297,10.116-23.794,21.197-34.354,33.107c-2.436,2.743-4.89,5.66-5.823,9.203c-1.613,6.091,1.406,17.682,5.33,22.607
					c8.778,11.02,23.794,38.295,21.449,38.502c-8.581,0.765-16.854-3.021-24.561-6.879c-12.239-6.123-24.729-13.067-32.515-24.321
					c-3.012-4.36-5.231-9.271-6.506-14.412C480.137,281.426,483.027,270.413,492.28,260.686z"/>
			</defs>
			<clipPath id="SVGID_53_">
				<use xlink:href="#SVGID_52_"  overflow="visible"/>
			</clipPath>
			<g clip-path="url(#SVGID_53_)">
				<path fill="#CFCDDB" d="M482.412,282.185c10.521-11.283,18.556-22.438,32.564-30c6.944-3.748,14.336-6.296,22.088-7.759
					c8.128-1.533,17.171-1.162,24.928-3.841c0.862-0.3,1.206-1.611,0.271-2.09c-6.973-3.569-16.297-0.492-23.516,1.287
					c-8.442,2.08-16.671,4.726-24.396,8.772c-13.042,6.83-28.009,18.641-32.989,33.021
					C481.157,282.168,481.995,282.63,482.412,282.185L482.412,282.185z"/>
			</g>
		</g>
		<g>
			<defs>
				<path id="SVGID_54_" d="M492.28,260.686c14.781-15.529,36.224-23.231,57.502-25.847c3.642-0.447,7.73-0.635,10.542,1.724
					c-12.297,10.116-23.794,21.197-34.354,33.107c-2.436,2.743-4.89,5.66-5.823,9.203c-1.613,6.091,1.406,17.682,5.33,22.607
					c8.778,11.02,23.794,38.295,21.449,38.502c-8.581,0.765-16.854-3.021-24.561-6.879c-12.239-6.123-24.729-13.067-32.515-24.321
					c-3.012-4.36-5.231-9.271-6.506-14.412C480.137,281.426,483.027,270.413,492.28,260.686z"/>
			</defs>
			<clipPath id="SVGID_55_">
				<use xlink:href="#SVGID_54_"  overflow="visible"/>
			</clipPath>
			<g clip-path="url(#SVGID_55_)">
				<path fill="#CFCDDB" d="M484.075,287.539c0.999,12.309,11.455,24.133,20.781,31.463c10.272,8.064,28.589,18.221,42.073,16.578
					c1.584-0.193,2.259-2.092,0.824-3.048c-4.824-3.22-10.763-4.054-16.192-5.966c-6.747-2.366-13.373-5.338-19.401-9.207
					c-12.057-7.735-19.554-18.408-27.543-29.967C484.469,287.176,484.048,287.227,484.075,287.539L484.075,287.539z"/>
			</g>
		</g>
		<g>
			<defs>
				<path id="SVGID_56_" d="M492.28,260.686c14.781-15.529,36.224-23.231,57.502-25.847c3.642-0.447,7.73-0.635,10.542,1.724
					c-12.297,10.116-23.794,21.197-34.354,33.107c-2.436,2.743-4.89,5.66-5.823,9.203c-1.613,6.091,1.406,17.682,5.33,22.607
					c8.778,11.02,23.794,38.295,21.449,38.502c-8.581,0.765-16.854-3.021-24.561-6.879c-12.239-6.123-24.729-13.067-32.515-24.321
					c-3.012-4.36-5.231-9.271-6.506-14.412C480.137,281.426,483.027,270.413,492.28,260.686z"/>
			</defs>
			<clipPath id="SVGID_57_">
				<use xlink:href="#SVGID_56_"  overflow="visible"/>
			</clipPath>
			<g clip-path="url(#SVGID_57_)">
				<path fill="#CFCDDB" d="M486.168,281.149c10.465-8.217,20.95-18.979,33.391-24.082c11.162-4.576,23.469-4.55,35.012-7.32
					c1.61-0.385,1.613-2.44,0.429-3.275c-4.924-3.46-10.447-1.346-16-0.084c-6.814,1.55-13.771,3.354-20.038,6.53
					c-12.055,6.107-25.542,16.821-33.039,28.043C485.814,281.119,486.037,281.251,486.168,281.149L486.168,281.149z"/>
			</g>
		</g>
		<g>
			<defs>
				<path id="SVGID_58_" d="M492.28,260.686c14.781-15.529,36.224-23.231,57.502-25.847c3.642-0.447,7.73-0.635,10.542,1.724
					c-12.297,10.116-23.794,21.197-34.354,33.107c-2.436,2.743-4.89,5.66-5.823,9.203c-1.613,6.091,1.406,17.682,5.33,22.607
					c8.778,11.02,23.794,38.295,21.449,38.502c-8.581,0.765-16.854-3.021-24.561-6.879c-12.239-6.123-24.729-13.067-32.515-24.321
					c-3.012-4.36-5.231-9.271-6.506-14.412C480.137,281.426,483.027,270.413,492.28,260.686z"/>
			</defs>
			<clipPath id="SVGID_59_">
				<use xlink:href="#SVGID_58_"  overflow="visible"/>
			</clipPath>
			<g clip-path="url(#SVGID_59_)">
				<path fill="#CFCDDB" d="M542.86,259.294c-10.14-4.499-19.731-1.442-29.41,3.156c-9.142,4.343-21.466,9.606-26.868,18.631
					c-0.827,1.383,0.811,2.955,2.178,2.177c17.217-9.79,32.328-23.923,53.647-22.294C543.267,261.03,543.664,259.654,542.86,259.294
					L542.86,259.294z"/>
			</g>
		</g>
		<g>
			<defs>
				<path id="SVGID_60_" d="M492.28,260.686c14.781-15.529,36.224-23.231,57.502-25.847c3.642-0.447,7.73-0.635,10.542,1.724
					c-12.297,10.116-23.794,21.197-34.354,33.107c-2.436,2.743-4.89,5.66-5.823,9.203c-1.613,6.091,1.406,17.682,5.33,22.607
					c8.778,11.02,23.794,38.295,21.449,38.502c-8.581,0.765-16.854-3.021-24.561-6.879c-12.239-6.123-24.729-13.067-32.515-24.321
					c-3.012-4.36-5.231-9.271-6.506-14.412C480.137,281.426,483.027,270.413,492.28,260.686z"/>
			</defs>
			<clipPath id="SVGID_61_">
				<use xlink:href="#SVGID_60_"  overflow="visible"/>
			</clipPath>
			<g clip-path="url(#SVGID_61_)">
				<path fill="#CFCDDB" d="M534.988,271.197c-11.389-4.355-33.844-0.699-42.012,8.841c-1.114,1.298-0.036,3.06,1.612,2.771
					c6.848-1.198,12.913-5.317,19.79-6.925c6.822-1.591,13.805-1.281,20.608-2.699C536.075,272.957,535.852,271.528,534.988,271.197
					L534.988,271.197z"/>
			</g>
		</g>
		<g>
			<defs>
				<path id="SVGID_62_" d="M492.28,260.686c14.781-15.529,36.224-23.231,57.502-25.847c3.642-0.447,7.73-0.635,10.542,1.724
					c-12.297,10.116-23.794,21.197-34.354,33.107c-2.436,2.743-4.89,5.66-5.823,9.203c-1.613,6.091,1.406,17.682,5.33,22.607
					c8.778,11.02,23.794,38.295,21.449,38.502c-8.581,0.765-16.854-3.021-24.561-6.879c-12.239-6.123-24.729-13.067-32.515-24.321
					c-3.012-4.36-5.231-9.271-6.506-14.412C480.137,281.426,483.027,270.413,492.28,260.686z"/>
			</defs>
			<clipPath id="SVGID_63_">
				<use xlink:href="#SVGID_62_"  overflow="visible"/>
			</clipPath>
			<g clip-path="url(#SVGID_63_)">
				<path fill="#CFCDDB" d="M529.714,290.09c-6.727,0.367-13.701-0.987-20.25-2.496c-2.872-0.663-5.728-1.487-8.225-3.11
					c-2.491-1.621-3.583-3.747-6.202-4.962c-0.78-0.36-1.479,0.085-1.585,0.91c-1.723,13.462,28.863,13.494,36.489,11.329
					C530.839,291.506,530.698,290.037,529.714,290.09L529.714,290.09z"/>
			</g>
		</g>
		<g>
			<defs>
				<path id="SVGID_64_" d="M492.28,260.686c14.781-15.529,36.224-23.231,57.502-25.847c3.642-0.447,7.73-0.635,10.542,1.724
					c-12.297,10.116-23.794,21.197-34.354,33.107c-2.436,2.743-4.89,5.66-5.823,9.203c-1.613,6.091,1.406,17.682,5.33,22.607
					c8.778,11.02,23.794,38.295,21.449,38.502c-8.581,0.765-16.854-3.021-24.561-6.879c-12.239-6.123-24.729-13.067-32.515-24.321
					c-3.012-4.36-5.231-9.271-6.506-14.412C480.137,281.426,483.027,270.413,492.28,260.686z"/>
			</defs>
			<clipPath id="SVGID_65_">
				<use xlink:href="#SVGID_64_"  overflow="visible"/>
			</clipPath>
			<g clip-path="url(#SVGID_65_)">
				<path fill="#CFCDDB" d="M532.17,298.691c-9.656-0.107-19.534-2.703-27.842-7.583c-4.246-2.491-5.808-4.939-8.456-8.976
					c-1.44-2.2-1.638-2.796-4.317-3.164c-0.613-0.084-1.113,0.232-1.158,0.887c-1.39,18.81,29.447,22.428,41.99,20.461
					C533.332,300.172,533.074,298.702,532.17,298.691L532.17,298.691z"/>
			</g>
		</g>
		<g>
			<defs>
				<path id="SVGID_66_" d="M492.28,260.686c14.781-15.529,36.224-23.231,57.502-25.847c3.642-0.447,7.73-0.635,10.542,1.724
					c-12.297,10.116-23.794,21.197-34.354,33.107c-2.436,2.743-4.89,5.66-5.823,9.203c-1.613,6.091,1.406,17.682,5.33,22.607
					c8.778,11.02,23.794,38.295,21.449,38.502c-8.581,0.765-16.854-3.021-24.561-6.879c-12.239-6.123-24.729-13.067-32.515-24.321
					c-3.012-4.36-5.231-9.271-6.506-14.412C480.137,281.426,483.027,270.413,492.28,260.686z"/>
			</defs>
			<clipPath id="SVGID_67_">
				<use xlink:href="#SVGID_66_"  overflow="visible"/>
			</clipPath>
			<g clip-path="url(#SVGID_67_)">
				<path fill="#CFCDDB" d="M486.11,284.184c3.732,13.214,13.941,23.082,25.449,30.1c11.188,6.823,27.39,14.188,40.729,11.583
					c0.834-0.164,0.995-1.463,0.242-1.842c-11.871-5.951-25.313-6.852-37.053-13.787c-11.471-6.773-19.972-16.475-28.318-26.664
					C486.752,283.075,485.951,283.615,486.11,284.184L486.11,284.184z"/>
			</g>
		</g>
		<g>
			<defs>
				<path id="SVGID_68_" d="M492.28,260.686c14.781-15.529,36.224-23.231,57.502-25.847c3.642-0.447,7.73-0.635,10.542,1.724
					c-12.297,10.116-23.794,21.197-34.354,33.107c-2.436,2.743-4.89,5.66-5.823,9.203c-1.613,6.091,1.406,17.682,5.33,22.607
					c8.778,11.02,23.794,38.295,21.449,38.502c-8.581,0.765-16.854-3.021-24.561-6.879c-12.239-6.123-24.729-13.067-32.515-24.321
					c-3.012-4.36-5.231-9.271-6.506-14.412C480.137,281.426,483.027,270.413,492.28,260.686z"/>
			</defs>
			<clipPath id="SVGID_69_">
				<use xlink:href="#SVGID_68_"  overflow="visible"/>
			</clipPath>
			<g clip-path="url(#SVGID_69_)">
				<path fill="#CFCDDB" d="M491.99,282.365c0.171,8.545,10.438,17.889,17.146,22.125c9.545,6.029,23.704,7.693,34.756,7.74
					c0.846,0,1.366-1.125,0.713-1.725c-7.112-6.52-17.688-4.699-26.415-7.439c-6.287-1.977-11.314-6.194-15.808-10.873
					c-2.838-2.958-7.405-6.526-9.389-10.101C492.737,281.627,491.984,281.833,491.99,282.365L491.99,282.365z"/>
			</g>
		</g>
	</g>
	<path display="inline" fill="#CFCDDB" d="M466.54,294.679c5.71-1.618,27.869-5.169,28.774-11.035
		c1.75-11.301-46.037-23.756-70.797-31.604c-21.771-6.901-44.949-10.614-67.423-14.689c-43.782-7.94-87.399-8.099-131.732-4.314
		c-61.204,5.224-124.112,13.098-177.212,43.982c11.513,3.142,28.616,2.507,37.57,6.864c-6.44,5.991-10.611,8.193-13.773,10.424
		c-6.328,4.467-10.423,6.7-16.751,8.936c0.188-0.293,48.667,32.646,76.313,38.341c27.645,5.701,52.237,7.161,80.428,5.751
		c22.962-1.148,45.938-2.761,68.632-6.438c22.012-3.563,43.656-9.049,65.272-14.521C389.946,315.198,421.866,307.333,466.54,294.679
		z"/>
	<path display="inline" opacity="0.55" fill="#282F39" enable-background="new    " d="M110.069,290.436
		c1.298-0.303,2.487-0.959,3.583-1.716c1.362-0.938,2.626-2.063,3.479-3.48c4.73-7.859-5.556-16.098-12.766-11.729
		C96.738,278.137,100.442,292.682,110.069,290.436z"/>
	<path display="inline" fill="#282F39" d="M109.577,286.323c0.729-0.169,1.398-0.54,2.014-0.965
		c0.766-0.528,1.478-1.161,1.955-1.957c2.662-4.419-3.124-9.051-7.175-6.594C102.082,279.408,104.164,287.586,109.577,286.323z"/>
	<path display="inline" fill="#FFFFFF" d="M108.321,282.022c0.24-0.056,0.459-0.176,0.66-0.316c0.25-0.173,0.481-0.38,0.64-0.64
		c0.871-1.446-1.021-2.96-2.347-2.157C105.869,279.76,106.551,282.434,108.321,282.022z"/>
	<g display="inline">
		<g>
			<defs>
				<path id="SVGID_70_" d="M466.54,294.679c5.71-1.618,27.869-5.169,28.774-11.035c1.75-11.301-46.037-23.756-70.797-31.604
					c-21.771-6.901-44.949-10.614-67.423-14.689c-43.782-7.94-87.399-8.099-131.732-4.314
					c-61.204,5.224-124.112,13.098-177.212,43.982c11.513,3.142,28.616,2.507,37.57,6.864c-6.44,5.991-10.611,8.193-13.773,10.424
					c-6.328,4.467-10.423,6.7-16.751,8.936c0.188-0.293,48.667,32.646,76.313,38.341c27.645,5.701,52.237,7.161,80.428,5.751
					c22.962-1.148,45.938-2.761,68.632-6.438c22.012-3.563,43.656-9.049,65.272-14.521
					C389.946,315.198,421.866,307.333,466.54,294.679z"/>
			</defs>
			<clipPath id="SVGID_71_">
				<use xlink:href="#SVGID_70_"  overflow="visible"/>
			</clipPath>
			<g clip-path="url(#SVGID_71_)">
				<path opacity="0.52" fill="#FFFFFF" enable-background="new    " d="M33.197,308.953
					c48.053,46.072,115.947,55.33,179.817,52.076c67.677-3.448,136.774-11.115,202.487-27.977
					c17.999-4.621,35.512-10.727,52.66-17.854c9.523-3.957,18.961-8.274,28.042-13.188c9.192-4.967,15.233-10.313,22.179-17.91
					c6.472-7.083,1.775-17.805-7.611-18.371c-11.001-0.664-20.063,0.034-30.954,2.417c-10.32,2.258-20.593,4.728-30.866,7.183
					c-20.573,4.917-41.077,10.187-61.713,14.846c-39.91,9.013-80.453,14.226-121.104,18.529
					c-38.779,4.103-78.219,7.875-117.231,5.046c-19.058-1.378-37.937-5.066-56.36-10.085c-17.658-4.804-37.42-13.698-55.915-7.702
					C31.227,297.714,28.806,304.743,33.197,308.953L33.197,308.953z"/>
			</g>
		</g>
		<g>
			<defs>
				<path id="SVGID_72_" d="M466.54,294.679c5.71-1.618,27.869-5.169,28.774-11.035c1.75-11.301-46.037-23.756-70.797-31.604
					c-21.771-6.901-44.949-10.614-67.423-14.689c-43.782-7.94-87.399-8.099-131.732-4.314
					c-61.204,5.224-124.112,13.098-177.212,43.982c11.513,3.142,28.616,2.507,37.57,6.864c-6.44,5.991-10.611,8.193-13.773,10.424
					c-6.328,4.467-10.423,6.7-16.751,8.936c0.188-0.293,48.667,32.646,76.313,38.341c27.645,5.701,52.237,7.161,80.428,5.751
					c22.962-1.148,45.938-2.761,68.632-6.438c22.012-3.563,43.656-9.049,65.272-14.521
					C389.946,315.198,421.866,307.333,466.54,294.679z"/>
			</defs>
			<clipPath id="SVGID_73_">
				<use xlink:href="#SVGID_72_"  overflow="visible"/>
			</clipPath>
			<g clip-path="url(#SVGID_73_)">
				<path opacity="0.52" fill="#37475E" enable-background="new    " d="M156.951,291.978c6.529,4.901,15.859,5.293,23.724,6.304
					c9.247,1.188,18.526,2.036,27.841,2.423c17.826,0.74,35.675,0.35,53.482-0.675c18.28-1.054,36.507-2.873,54.684-5.062
					c17.756-2.137,36.468-3.765,53.074-10.732c2.498-1.047,1.556-4.686-0.906-4.978c-17.049-2.032-34.669,1.265-51.618,3.292
					c-17.72,2.119-35.487,3.904-53.306,4.99c-17.621,1.072-35.303,1.383-52.944,0.657c-8.84-0.366-17.688-0.864-26.501-1.659
					c-8.315-0.752-17.986-3.467-26.131-0.976C155.481,286.439,154.328,290.007,156.951,291.978L156.951,291.978z"/>
			</g>
		</g>
		<g>
			<defs>
				<path id="SVGID_74_" d="M466.54,294.679c5.71-1.618,27.869-5.169,28.774-11.035c1.75-11.301-46.037-23.756-70.797-31.604
					c-21.771-6.901-44.949-10.614-67.423-14.689c-43.782-7.94-87.399-8.099-131.732-4.314
					c-61.204,5.224-124.112,13.098-177.212,43.982c11.513,3.142,28.616,2.507,37.57,6.864c-6.44,5.991-10.611,8.193-13.773,10.424
					c-6.328,4.467-10.423,6.7-16.751,8.936c0.188-0.293,48.667,32.646,76.313,38.341c27.645,5.701,52.237,7.161,80.428,5.751
					c22.962-1.148,45.938-2.761,68.632-6.438c22.012-3.563,43.656-9.049,65.272-14.521
					C389.946,315.198,421.866,307.333,466.54,294.679z"/>
			</defs>
			<clipPath id="SVGID_75_">
				<use xlink:href="#SVGID_74_"  overflow="visible"/>
			</clipPath>
			<g clip-path="url(#SVGID_75_)">
				<path opacity="0.52" fill="#37475E" enable-background="new    " d="M34.065,275.246c12.116,13.197,38.206,2.804,52.935-0.136
					c21.303-4.252,42.52-9.112,63.904-12.934c42.801-7.646,84.772-3.752,127.755-0.028c43.312,3.75,87.657,5.038,130.526,12.38
					c42.74,7.322,86.138,23.134,129.222,10.287c10.654-3.178,14.871-20.368,3.354-25.68
					c-65.226-30.097-140.154-37.076-211.156-40.786c-36.604-1.913-73.332-4.919-109.988-5.394
					c-35.386-0.46-69.923,6.208-103.983,15.302c-19.96,5.331-39.16,12.566-57.994,21.062c-7.676,3.463-16.471,7.333-21.64,14.259
					C35.275,265.89,31.414,272.357,34.065,275.246L34.065,275.246z"/>
			</g>
		</g>
	</g>
	<path display="inline" fill="#506A89" d="M213.405,319.829c0.439,0.271,0.915,0.55,1.432,0.519
		c0.449-0.025,0.847-0.281,1.222-0.531c10.384-6.916,20.598-14.088,30.632-21.496c1.018-0.752,2.154-1.823,1.841-3.047
		c-0.263-1.039-1.434-1.526-2.465-1.821c-4.512-1.288-9.25-1.788-13.931-1.465c-6.311,0.435-12.369,2.327-18.498,3.747
		c-3.106,0.72-6.241,1.381-9.424,1.63c-2.992,0.235-6.956-0.839-9.719,0.296C181.62,302.951,209.854,317.66,213.405,319.829z"/>
	<path display="inline" fill="#B3B1BC" d="M157.36,260.304c2.039,4.148,2.688,8.845,2.869,13.464
		c0.842,21.712-8.682,43.599-25.144,57.787c15.738-4.219,28.798-17.242,33.063-32.964c2.876-10.605,1.678-22.165-2.908-32.111
		c-2.015-4.368-5.186-10.537-9.267-13.338c-1.884-1.293-3.793-2.362-3.441,0.75C152.692,255.312,156.551,258.661,157.36,260.304z"/>
	<g display="inline">
		<g>
			<defs>
				<path id="SVGID_76_" d="M466.54,294.679c5.71-1.618,27.869-5.169,28.774-11.035c1.75-11.301-46.037-23.756-70.797-31.604
					c-21.771-6.901-44.949-10.614-67.423-14.689c-43.782-7.94-87.399-8.099-131.732-4.314
					c-61.204,5.224-124.112,13.098-177.212,43.982c11.513,3.142,28.616,2.507,37.57,6.864c-6.44,5.991-10.611,8.193-13.773,10.424
					c-6.328,4.467-10.423,6.7-16.751,8.936c0.188-0.293,48.667,32.646,76.313,38.341c27.645,5.701,52.237,7.161,80.428,5.751
					c22.962-1.148,45.938-2.761,68.632-6.438c22.012-3.563,43.656-9.049,65.272-14.521
					C389.946,315.198,421.866,307.333,466.54,294.679z"/>
			</defs>
			<clipPath id="SVGID_77_">
				<use xlink:href="#SVGID_76_"  overflow="visible"/>
			</clipPath>
			<g clip-path="url(#SVGID_77_)">
				<path fill="#506A89" d="M26.46,289.35c13.441-3.949,25.433-12.703,38.43-18.02c13.513-5.527,27.604-9.425,41.907-12.257
					c29.853-5.907,59.988-9.144,90.266-11.908c67.887-6.195,135.605-2.701,202.067,13.024c17.938,4.247,35.64,9.453,53.148,15.21
					c9.021,2.965,17.98,6.104,26.865,9.449c9.513,3.583,18.462,9.183,28.825,5.784c6.692-2.196,10.537-9.956,6.658-16.369
					c-4.953-8.197-12.15-10.249-20.837-12.903c-9.053-2.768-18.102-5.545-27.203-8.148c-16.721-4.78-33.604-8.917-50.58-12.693
					c-34.326-7.636-69.096-13.349-104.172-16.085c-35.563-2.772-71.088-2.094-106.582,1.255
					c-31.712,2.99-64.439,5.441-95.409,13.231c-16.609,4.178-32.995,9.745-48.577,16.862c-13.905,6.352-30.793,14.721-38.824,28.343
					C20.886,286.766,23.468,290.228,26.46,289.35L26.46,289.35z"/>
			</g>
		</g>
	</g>
	<g display="inline">
		<g>
			<defs>
				<path id="SVGID_78_" d="M466.54,294.679c5.71-1.618,27.869-5.169,28.774-11.035c1.75-11.301-46.037-23.756-70.797-31.604
					c-21.771-6.901-44.949-10.614-67.423-14.689c-43.782-7.94-87.399-8.099-131.732-4.314
					c-61.204,5.224-124.112,13.098-177.212,43.982c11.513,3.142,28.616,2.507,37.57,6.864c-6.44,5.991-10.611,8.193-13.773,10.424
					c-6.328,4.467-10.423,6.7-16.751,8.936c0.188-0.293,48.667,32.646,76.313,38.341c27.645,5.701,52.237,7.161,80.428,5.751
					c22.962-1.148,45.938-2.761,68.632-6.438c22.012-3.563,43.656-9.049,65.272-14.521
					C389.946,315.198,421.866,307.333,466.54,294.679z"/>
			</defs>
			<clipPath id="SVGID_79_">
				<use xlink:href="#SVGID_78_"  overflow="visible"/>
			</clipPath>
			<g clip-path="url(#SVGID_79_)">
				<g>
					<path opacity="0.59" fill="#9696B2" enable-background="new    " d="M145.673,271.326c-5.529-6.356-5.131-14.266,0.309-20.465
						c2.765-3.153,5.686-5.679,7.389-9.594c2.155-4.947,2.811-10.717-0.83-14.949c-1.057-1.228-2.902-0.161-2.982,1.237
						c-0.421,7.4,0.711,12.075-4.69,18.346c-2.825,3.277-5.704,5.973-6.767,10.341c-1.577,6.489,1.365,12.559,6.758,16.139
						C145.527,272.825,146.152,271.874,145.673,271.326L145.673,271.326z"/>
				</g>
				<g>
					<path opacity="0.59" fill="#9696B2" enable-background="new    " d="M133.907,260.316c0.077-6.173,6.105-9.418,6.521-15.331
						c0.327-4.66-3.549-6.979-5.415-10.729c-1.896-3.812-7.344-0.472-5.646,3.303c0.721,1.608,1.757,2.623,2.823,3.961
						c2.511,3.154,2.069,4.518,0.345,7.927c-2.077,4.099-1.706,6.846-0.125,11.07C132.701,261.294,133.894,261.221,133.907,260.316
						L133.907,260.316z"/>
				</g>
				<g>
					<path opacity="0.59" fill="#9696B2" enable-background="new    " d="M118.353,243.984c2.678-0.414,4.861,2.821,5.182,5.083
						c0.229,1.609-0.541,2.92-1.265,4.255c-0.915,1.693-2.251,3.627-2.646,5.554c-0.914,4.444,2.594,7.477,6.085,9.368
						c3.193,1.73,6.04-3.121,2.849-4.875c-5.396-2.967-1.951-6.083-0.544-9.927c0.748-2.037,0.748-3.489-0.289-5.477
						c-1.995-3.829-5.312-6.693-9.716-5.235C117.198,243,117.539,244.111,118.353,243.984L118.353,243.984z"/>
				</g>
				<g>
					<path opacity="0.59" fill="#9696B2" enable-background="new    " d="M148.942,263.871c-0.016-0.027-0.03-0.054-0.047-0.081
						c-0.144,0.546-0.287,1.091-0.431,1.635c0.27-0.22,0.435-0.587,0.55-0.899c0.001-0.008,0.18-0.649,0.078-0.368
						c0.124-0.342,0.336-0.674,0.469-1.021c0.129-0.337,0.139-0.583-0.027-0.148c-0.19,0.503,0.445-0.598,0.562-0.832
						c0.358-0.731-0.417,0.342,0.13-0.195c0.874-0.858,1.407-1.869,1.411-3.113c0.005-1.616-1.074-2.681-2.467-3.241
						c-1.929-0.775-4.075,0.646-4.815,2.398c-0.304,0.721-0.469,1.37-0.529,2.158c-0.017,0.196-0.032,0.382-0.024,0.58
						c0.039,0.292,0.078,0.585,0.118,0.876c-0.027-0.411-0.014-0.367,0.042,0.135c0.168,1.076,0.346,1.954,1.004,2.866
						c0.719,0.995,1.957,1.737,3.162,1.066c-0.433,0.057-0.863,0.113-1.295,0.17c0.159,0.067,0.322,0.107,0.491,0.119
						C148.48,266.166,149.654,265.026,148.942,263.871L148.942,263.871z"/>
				</g>
				<g>
					<path opacity="0.59" fill="#9696B2" enable-background="new    " d="M159.388,251.74c1.13,3.909,4.723-0.729,5.606-2.188
						c1.354-2.238,2.74-4.813,3.148-7.426c0.491-3.125-0.793-6.137-1.906-8.991c-0.687-1.767-1.891-2.688-3.767-2.868
						c-1.184-0.114-1.963,0.317-2.761,1.144c-0.914,0.948-1.475,2.5-1.004,3.798c1.175,3.258,2.615,5.708,2.029,9.231
						c-0.204,1.233-0.46,2.462-0.675,3.693c-0.096,0.549-0.982,3.274-0.048,2.722c0.51,0.134,1.022,0.268,1.532,0.401
						c-0.076-0.108-0.155-0.217-0.232-0.328C160.656,250.004,159.036,250.523,159.388,251.74L159.388,251.74z"/>
				</g>
				<g>
					<path opacity="0.59" fill="#9696B2" enable-background="new    " d="M106.187,247.233c2.103-0.075,3.358,2.742,3.325,4.471
						c-0.025,1.213-0.823,2.161-1.378,3.164c-1.185,2.135-1.548,4.009-1.171,6.417c0.676,4.305,7.489,2.548,6.626-1.826
						c-0.335-1.697,1.212-3.75,1.351-5.474c0.16-2.003-0.555-3.714-1.682-5.333c-1.774-2.544-4.209-4.12-7.375-3.663
						C104.605,245.174,104.917,247.278,106.187,247.233L106.187,247.233z"/>
				</g>
				<g>
					<path opacity="0.59" fill="#9696B2" enable-background="new    " d="M89.782,253.498c1.936,0.125,4.085,1.363,4.389,3.429
						c0.146,0.991-0.251,2.001-0.424,2.968c-0.237,1.33-0.335,2.655-0.255,4.002c0.271,4.498,7.305,4.528,7.034,0
						c-0.222-3.69-0.382-8.093-3.394-10.669c-2.223-1.904-5.108-2.424-7.747-1.192C88.626,252.391,89.075,253.453,89.782,253.498
						L89.782,253.498z"/>
				</g>
				<g>
					<path opacity="0.59" fill="#9696B2" enable-background="new    " d="M87.177,268.359c1.35-2.193,2.131-5.964,1.394-8.458
						c-0.438-1.479-1.385-2.704-2.604-3.618c-0.591-0.441-1.25-0.707-1.851-1.112c-0.757-0.51-1.225-1.195-1.937-1.759
						c-1.256-0.996-3.436-1.185-4.276,0.552c-0.866,1.787-0.716,3.432,0.545,4.975c1.125,1.378,3.112,1.606,4.185,2.832
						c0.965,1.103,0.822,3.295,1.431,4.611c0.499,1.079,1.086,1.959,2.251,2.328C86.642,268.813,87.004,268.639,87.177,268.359
						L87.177,268.359z"/>
				</g>
				<g>
					<path opacity="0.59" fill="#9696B2" enable-background="new    " d="M76.162,270.104c0.407-0.918,0.447-1.794,0.563-2.781
						c0.103-0.877,0.444-1.687,0.641-2.538c0.687-3.006-3.331-4.787-4.997-2.107c-1.492,2.396-1.165,7.923,2.475,8.184
						C75.325,270.895,75.96,270.556,76.162,270.104L76.162,270.104z"/>
				</g>
				<g>
					<path opacity="0.59" fill="#9696B2" enable-background="new    " d="M67.766,272.634c-0.219-1.191-0.021-2.365-0.373-3.559
						c-0.311-1.053-0.868-1.979-1.629-2.771c-0.733-0.766-1.684-1.338-2.549-1.946c-1.312-0.923-2.165-1.488-3.866-1.232
						c-1.242,0.186-1.872,1.516-1.981,2.603c-0.261,2.558,2.72,3.886,4.646,4.791c0.835,0.391,1.62,0.666,2.282,1.329
						c0.664,0.666,1.367,1.308,2.188,1.774C67.186,274.018,67.899,273.363,67.766,272.634L67.766,272.634z"/>
				</g>
				<g>
					<path opacity="0.59" fill="#9696B2" enable-background="new    " d="M169.03,259.08c5.962-0.51,9.302-10.779,9.546-15.811
						c0.188-3.84-1.326-15.681-7.353-12.807c-1.503,0.717-1.863,2.518-1.619,3.977c0.683,4.089,2.657,7.416,1.947,11.72
						c-0.546,3.304-2.023,7.832-3.798,10.696C167.196,257.754,167.906,259.176,169.03,259.08L169.03,259.08z"/>
				</g>
				<g>
					<path opacity="0.59" fill="#9696B2" enable-background="new    " d="M180.118,268.084
						c-1.281-10.562,10.091-14.53,13.733-23.001c2.211-5.14,2.33-14.078-0.933-18.617c-0.96-1.336-3.324-1.79-4.18,0
						c-2.087,4.369-0.415,7.076-0.281,11.861c0.218,7.78-4.129,10.469-8.369,15.927c-3.455,4.446-4.782,9.706-0.66,14.116
						C179.651,268.605,180.16,268.439,180.118,268.084L180.118,268.084z"/>
				</g>
				<g>
					<path opacity="0.59" fill="#9696B2" enable-background="new    " d="M184.51,241.838c0.081-0.25,0.153-0.501,0.221-0.755
						c-0.238,0.313-0.479,0.625-0.719,0.937c1.188-0.747,1.203-2.325,1.34-3.58c0.176-1.611,0.713-3.144-0.304-4.605
						c-0.583-0.835-1.53-1.316-2.556-1.04c-2.547,0.687-3.121,3.5-2.629,5.791c0.368,1.721,1.712,4.015,3.773,3.592
						c-0.403-0.052-0.804-0.104-1.207-0.157c0.433,0.188,0.835,0.296,1.286,0.423C184.15,242.564,184.459,242.23,184.51,241.838
						L184.51,241.838z"/>
				</g>
				<g>
					<path opacity="0.59" fill="#9696B2" enable-background="new    " d="M192.467,260.47c-0.248-3.445,6.625-6.089,8.747-7.863
						c2.301-1.923,4.237-4.202,5.514-6.922c2.593-5.523,2.333-13.431,1.094-19.24c-0.504-2.372-3.695-2.439-4.871-0.637
						c-2.088,3.201-1.492,5.906-1.117,9.607c0.547,5.429-0.288,9.502-4.603,13.209c-4.241,3.645-9.906,5.574-7.185,12.172
						C190.527,261.959,192.576,261.99,192.467,260.47L192.467,260.47z"/>
				</g>
				<g>
					<path opacity="0.59" fill="#9696B2" enable-background="new    " d="M203.336,253.733c-3.009,3.402-6.549,11.948-0.091,13.893
						c4.03,1.212,6.841-5.023,2.919-6.924c0.811,0.395,0.521,0.873,0.346-0.155c-0.085-0.504-0.314-1.008-0.386-1.51
						c-0.164-1.133-0.01-2.419,0.281-3.516C206.855,253.824,204.593,252.314,203.336,253.733L203.336,253.733z"/>
				</g>
				<g>
					<path opacity="0.59" fill="#9696B2" enable-background="new    " d="M209.267,256.655c6.717,2.296,10.742-7.001,10.938-12.25
						c0.099-2.705-0.45-5.319,0.169-8.003c0.518-2.236,2.104-3.99,2.654-6.153c0.56-2.193-0.03-4.129-2.298-4.785
						c-1.218-0.354-2.554,0.032-3.449,0.912c-3.202,3.146-4.714,7.755-4.754,12.205c-0.059,6.391,1.777,10.906-3.951,15.454
						C207.579,254.823,208.27,256.314,209.267,256.655L209.267,256.655z"/>
				</g>
				<g>
					<path opacity="0.59" fill="#9696B2" enable-background="new    " d="M226.793,244.934c0.605-3.334,2.108-6.853,4.833-8.975
						c2.407-1.872,5.832-2.57,6.739-5.771c0.445-1.575-0.545-3.283-2.112-3.72c-3.872-1.079-8.283,3.226-10.333,6.157
						c-2.951,4.22-1.994,7.724-0.77,12.309C225.357,245.705,226.637,245.786,226.793,244.934L226.793,244.934z"/>
				</g>
				<g>
					<path opacity="0.59" fill="#9696B2" enable-background="new    " d="M233.385,240.052c0.038,4.553-6.449,5.93-8.481,9.404
						c-2.081,3.55-2.127,8.27,0.39,11.613c3.187,4.235,10.422,0.059,7.187-4.2c-3.103-4.08,2.397-6.043,3.98-9.356
						c1.54-3.225,0.498-5.62-1.736-8.016C234.256,238.998,233.378,239.387,233.385,240.052L233.385,240.052z"/>
				</g>
				<g>
					<path opacity="0.59" fill="#9696B2" enable-background="new    " d="M239.189,255.253c7.564,0.044,13.5-7.15,13.938-14.444
						c0.14-2.326-0.496-4.319-0.86-6.567c-0.922-5.713,1.672-4.351,4.4-8.234c1.262-1.792,1.829-3.904,0-5.436
						c-0.979-0.821-2.431-1.521-3.741-0.989c-5.191,2.098-9.497,6.227-9.201,12.25c0.185,3.743,2.357,6.928,2.098,10.766
						c-0.327,4.885-3.979,7.77-7.504,10.551C237.441,253.842,238.207,255.248,239.189,255.253L239.189,255.253z"/>
				</g>
				<g>
					<path opacity="0.59" fill="#9696B2" enable-background="new    " d="M261.902,226.643c-4.657,0.484-6.489,7.738-5.479,11.625
						c1.189,4.583,5.882,6.757,4.544,12.052c-1.086,4.301-5.534,5.968-6.798,10.162c-0.401,1.333,0.682,2.46,1.944,2.554
						c8.087,0.587,13.792-10.503,11.912-17.574c-0.515-1.927-1.554-3.264-2.651-4.867c-1.96-1.854-3.019-4.225-3.178-7.115
						c0.457-1.233,0.858-2.482,1.204-3.749C263.364,228.943,263.244,226.503,261.902,226.643L261.902,226.643z"/>
				</g>
				<g>
					<path opacity="0.59" fill="#9696B2" enable-background="new    " d="M275.496,248.568c1.3-3.697-0.638-7.149-1.093-10.833
						c-0.523-4.244,2.182-6.754,4.353-10.212c1.862-2.963-1.991-7.21-5.012-5.012c-3.659,2.661-7.134,8.016-6.949,12.707
						c0.175,4.455,3.504,11.561,7.287,13.927C274.641,249.494,275.297,249.134,275.496,248.568L275.496,248.568z"/>
				</g>
				<g>
					<path opacity="0.59" fill="#9696B2" enable-background="new    " d="M283.868,234.773c-3.141,0.307-4.228,2.673-3.519,5.663
						c0.576,2.433,1.937,4.547,2.249,7.066c0.172,1.367,0.224,7.599-1.923,7.984c-3.183,0.575-3.409,5.18-0.869,6.662
						c0.269,0.157,0.537,0.314,0.806,0.471c1.235,0.723,2.792,0.719,4.027,0c3.984-2.314,5.55-7.697,5.579-12.073
						c0.014-2.3-0.479-4.532-1.397-6.635c-0.831-1.909-4.417-5.434-3.787-7.607C285.237,235.606,284.659,234.696,283.868,234.773
						L283.868,234.773z"/>
				</g>
				<g>
					<path opacity="0.59" fill="#9696B2" enable-background="new    " d="M294.746,254.732c3.431-4.942,7.228-11.584,5.136-17.714
						c-0.285-0.827-1.031-1.554-1.238-2.366c-0.724-2.849-0.614-5.798,1.311-8.498c1.934-2.721,3.219-2.645,3.354-6.112
						c0.036-0.914-0.691-1.859-1.577-2.073c-6.208-1.498-11.546,5.903-12.184,11.514c-0.414,3.647,1.095,5.838,2.71,8.903
						c2.569,4.879,0.551,10.399,0.61,15.837C292.88,255.274,294.193,255.529,294.746,254.732L294.746,254.732z"/>
				</g>
				<g>
					<path opacity="0.59" fill="#9696B2" enable-background="new    " d="M301.21,259.453c4.553-4.29,9.377-9.008,8.589-15.749
						c-0.604-5.162-2.123-8.747,1.616-13.318c2.124-2.592,4.725-3.945,5.28-7.426c0.157-0.99-0.245-2.317-1.428-2.506
						c-6.087-0.974-10.938,5.195-12.852,10.441c-1.171,3.217-1.32,6.41-0.45,9.718c0.821,3.119,1.499,4.218,1.024,7.513
						c-0.481,3.338-2.349,6.818-3.649,9.887C298.841,259.196,300.154,260.443,301.21,259.453L301.21,259.453z"/>
				</g>
				<g>
					<path opacity="0.59" fill="#9696B2" enable-background="new    " d="M316.526,242.011c0.144-0.271,1.806-0.521,2.178-0.659
						c0.783-0.289,1.572-0.56,2.354-0.863c2.041-0.794,4.157-1.728,5.824-3.154c2.907-2.489-0.188-7.57-3.729-6.405
						c-2.419,0.795-5.182,2.603-6.922,4.463c-0.825,0.88-1.574,2.032-1.681,3.258c-0.043,0.53-0.004,1.057,0.156,1.566
						c0.192,0.626,0.85,1.094,0.999,1.686C315.797,242.27,316.347,242.354,316.526,242.011L316.526,242.011z"/>
				</g>
				<g>
					<path opacity="0.59" fill="#9696B2" enable-background="new    " d="M316.625,246.925c-1.56,1.242-2.783,1.845-3.251,4.065
						c-0.495,2.362,0.475,4.714,2.232,6.271c1.442,1.278,4.15,1.816,5.085,3.406c0.942,1.587,0.936,3.438,3.373,3.359
						c1.587-0.049,2.575-1.006,3.145-2.39c1.322-3.248-0.891-6.302-3.647-7.877c-1.221-0.697-3.197-0.995-4.16-2.051
						c-0.621-0.68-1.034-3.067-1.021-4.054C318.396,246.68,317.281,246.402,316.625,246.925L316.625,246.925z"/>
				</g>
				<g>
					<path opacity="0.59" fill="#9696B2" enable-background="new    " d="M327.244,251.599c2.512-6.182,9.252-7.134,13.795-11.297
						c3.189-2.92,6.516-8.555,3.824-12.668c-0.936-1.434-3.387-2.174-4.646-0.599c-1.898,2.375-1.678,5.385-3.733,7.697
						c-2.133,2.399-5.419,3.53-7.886,5.532c-3.351,2.716-6.33,7.47-3.688,11.64C325.546,252.903,326.841,252.596,327.244,251.599
						L327.244,251.599z"/>
				</g>
				<g>
					<path opacity="0.59" fill="#9696B2" enable-background="new    " d="M350.688,230.229c-1.1,3.818,1.149,7.702-1.563,11.392
						c-2.212,3.006-6.372,4.376-9.186,6.767c-3.896,3.316-6.422,8.649-4.596,13.763c0.828,2.309,3.993,3.677,5.867,1.548
						c1.477-1.675,0.727-3.377,0.855-5.418c0.359-5.766,5.166-7.313,8.948-10.735c6.145-5.556,4.718-11.063,0.864-17.472
						C351.587,229.594,350.845,229.69,350.688,230.229L350.688,230.229z"/>
				</g>
				<g>
					<path opacity="0.59" fill="#9696B2" enable-background="new    " d="M351.765,256.68c4.682-0.141,9.3-3.409,11.989-7.103
						c3.571-4.896,2.927-10.007,2.306-15.682c-0.192-1.801-1.074-3.126-2.825-3.716c-1.148-0.385-1.96-0.216-2.97,0.389
						c-1.07,0.64-2.055,2.011-1.909,3.328c0.453,4.153,1.438,8.283-0.582,12.185c-1.783,3.444-5.19,5.801-6.722,9.353
						C350.816,255.974,351.073,256.7,351.765,256.68L351.765,256.68z"/>
				</g>
				<g>
					<path opacity="0.59" fill="#9696B2" enable-background="new    " d="M371.621,262.411c0.896-3.39,0.354-7.492,1.909-10.632
						c1.748-3.516,5.824-5.158,8.321-8.062c3.13-3.642,5.646-10.357,1.524-14.043c-1.426-1.272-3.373-0.984-4.438,0.571
						c-2.058,3.022-1.104,6.439-3.832,9.286c-2.319,2.419-5.241,4.111-6.937,7.119c-2.818,4.999-1.799,11.599,1.565,16.007
						C370.244,263.319,371.377,263.345,371.621,262.411L371.621,262.411z"/>
				</g>
				<g>
					<path opacity="0.59" fill="#9696B2" enable-background="new    " d="M380.16,254.023c2.092-0.908,4.368-1.406,6.487-2.337
						c2.248-0.991,4.531-2.07,6.651-3.315c3.707-2.181,7.984-6.383,5.158-10.94c-1.256-2.025-4.303-2.641-6.029-0.778
						c-1.205,1.305-1.541,2.951-2.689,4.25c-1.406,1.595-3.376,2.879-4.976,4.268c-2.033,1.765-6.415,4.878-6.083,8.001
						C378.763,253.963,379.441,254.335,380.16,254.023L380.16,254.023z"/>
				</g>
				<g>
					<path opacity="0.59" fill="#9696B2" enable-background="new    " d="M398.662,248.737c-9.031,0.846-16.203,12.65-14.982,21.106
						c0.603,4.183,7.344,3.904,8.179,0c0.771-3.624,0.688-7.08,2.49-10.453c1.546-2.893,4.7-4.837,5.955-7.793
						C400.804,250.425,400.269,248.585,398.662,248.737L398.662,248.737z"/>
				</g>
				<g>
					<path opacity="0.59" fill="#9696B2" enable-background="new    " d="M401.401,261.81c9.405,0.07,18.84-9.761,18.59-19.057
						c-0.148-5.384-8.628-5.376-8.371,0c0.222,4.585-3.104,7.788-6.298,10.648c-1.752,1.568-6.056,3.711-5.842,6.491
						C399.563,260.932,400.293,261.801,401.401,261.81L401.401,261.81z"/>
				</g>
				<g opacity="0.59">
					<path fill="#9696B2" d="M425.581,250.377c-0.269,2.107-3.637,3.725-5.198,4.951c-2.354,1.843-4.789,3.636-6.74,5.917
						c-3.09,3.607-4.721,7.958-3.512,12.649c0.442,1.72,2.337,3.345,4.192,3.192c1.974-0.163,3.601-1.197,4.188-3.192
						c0.438-1.478-0.101-3.069,0.164-4.585c0.386-2.204,1.694-3.995,3.055-5.71c3.145-3.955,8.393-8.328,5.77-13.743
						C427.002,248.827,425.697,249.483,425.581,250.377L425.581,250.377z"/>
				</g>
				<g>
					<path opacity="0.59" fill="#9696B2" enable-background="new    " d="M428.699,267.207c4.188,1.575,8.325-1.891,11.243-4.492
						c3.533-3.153,6.475-7.834,3.943-12.523c-2.813-5.213-10.88-0.534-7.961,4.653c-0.37-0.657-0.664,0.771-1.057,1.409
						c-0.643,1.046-1.349,2.065-2.092,3.042c-1.455,1.925-3.161,3.536-4.76,5.327C427.198,265.538,427.591,266.789,428.699,267.207
						L428.699,267.207z"/>
				</g>
				<g>
					<path opacity="0.59" fill="#9696B2" enable-background="new    " d="M438.573,278.461c4.631-4.907,12.89-6.081,18.266-10.325
						c4.921-3.886,9.51-10.751,7.201-17.211c-1.339-3.747-7.891-4.785-8.686,0c-0.589,3.552-0.938,6.362-3.559,9.075
						c-2.275,2.361-5.296,3.945-7.981,5.789c-4.168,2.854-8.157,5.982-8.379,11.374C435.372,278.743,437.5,279.601,438.573,278.461
						L438.573,278.461z"/>
				</g>
				<g>
					<path opacity="0.59" fill="#9696B2" enable-background="new    " d="M454.866,278.7c5.974,1.447,12.466-1.719,16.932-5.677
						c3.687-3.265-1.14-9.579-5.289-6.853c-4.444,2.922-9.416,6.45-12.298,10.918C453.835,277.674,454.199,278.54,454.866,278.7
						L454.866,278.7z"/>
				</g>
				<g>
					<path opacity="0.59" fill="#9696B2" enable-background="new    " d="M464.758,285.012c3.774,4.708,12.104-1.056,15.515-3.775
						c5.402-4.305,9.303-10.056,9.862-17.062c0.422-5.263-8.032-6.363-9.195-1.245c-2.062,9.075-7.461,16.362-15.976,20.462
						C464.311,283.708,464.38,284.539,464.758,285.012L464.758,285.012z"/>
				</g>
				<g>
					<path opacity="0.59" fill="#9696B2" enable-background="new    " d="M484.324,289.03c3.79-1.013,9.363-0.217,11.013-4.614
						c0.339-0.908-0.024-2.287-0.771-2.908c-3.946-3.292-8.681,0.885-12.156,2.978C480.009,285.933,481.572,289.767,484.324,289.03
						L484.324,289.03z"/>
				</g>
			</g>
		</g>
	</g>
	<g display="inline" opacity="0.32">
		<path fill="#FFFFFF" d="M363.905,258.835c-8.371-12.034-22.871-15.878-36.694-18.13c-15.501-2.529-31.023-4.134-46.733-4.55
			c-31.827-0.846-63.752,2.25-94.989,8.313c-23.267,4.516-13.526,42.041,9.893,35.881c27.922-7.346,56.229-11.49,85.097-12.236
			c14.286-0.371,28.669-0.166,42.939,0.618c13.396,0.735,27.571,1.859,39.354-5.572
			C364.125,262.304,364.906,260.279,363.905,258.835L363.905,258.835z"/>
	</g>
	<g display="inline">
		<path fill="#FFFFFF" d="M266.859,254.805c-14.797-0.658-29.331-0.428-44.111,0.639c-7.046,0.511-14.109,1.063-21.126,1.878
			c-4.792,0.557-9.427,0.712-12.582,4.733c-3.231,4.118,0.654,9.415,5.555,7.201c10.401-4.701,24.424-5.213,35.667-6.899
			c12.287-1.841,24.594-3.636,36.894-5.379C268.436,256.796,268.043,254.857,266.859,254.805L266.859,254.805z"/>
	</g>
	<g display="inline">
		<path fill="#FFFFFF" d="M303.462,255.808c13.641,3.165,27.879,2.826,41.677,5.431c12.678,2.395,25.788,8.319,38.626,8.735
			c1.475,0.048,1.849-1.918,0.718-2.652c-10.973-7.115-27.438-8.371-40.118-10.104c-13.318-1.822-27.59-4.3-40.902-1.574
			C303.38,255.661,303.38,255.788,303.462,255.808L303.462,255.808z"/>
	</g>
	<g display="inline">
		<g>
			<defs>
				<path id="SVGID_80_" d="M213.405,319.829c0.439,0.271,0.915,0.55,1.432,0.519c0.449-0.025,0.847-0.281,1.222-0.531
					c10.384-6.916,20.598-14.088,30.632-21.496c1.018-0.752,2.154-1.823,1.841-3.047c-0.263-1.039-1.434-1.526-2.465-1.821
					c-4.512-1.288-9.25-1.788-13.931-1.465c-6.311,0.435-12.369,2.327-18.498,3.747c-3.106,0.72-6.241,1.381-9.424,1.63
					c-2.992,0.235-6.956-0.839-9.719,0.296C181.62,302.951,209.854,317.66,213.405,319.829z"/>
			</defs>
			<clipPath id="SVGID_81_">
				<use xlink:href="#SVGID_80_"  overflow="visible"/>
			</clipPath>
			<g clip-path="url(#SVGID_81_)">
				<path opacity="0.59" fill="#9696B2" enable-background="new    " d="M189.04,295.479c8.438,10.627,22.885,23.584,36.421,26.771
					c0.594,0.136,0.937-0.656,0.414-0.983c-12.457-7.865-26.235-15.276-36.328-26.293C189.23,294.625,188.76,295.128,189.04,295.479
					L189.04,295.479z"/>
			</g>
		</g>
		<g>
			<defs>
				<path id="SVGID_82_" d="M213.405,319.829c0.439,0.271,0.915,0.55,1.432,0.519c0.449-0.025,0.847-0.281,1.222-0.531
					c10.384-6.916,20.598-14.088,30.632-21.496c1.018-0.752,2.154-1.823,1.841-3.047c-0.263-1.039-1.434-1.526-2.465-1.821
					c-4.512-1.288-9.25-1.788-13.931-1.465c-6.311,0.435-12.369,2.327-18.498,3.747c-3.106,0.72-6.241,1.381-9.424,1.63
					c-2.992,0.235-6.956-0.839-9.719,0.296C181.62,302.951,209.854,317.66,213.405,319.829z"/>
			</defs>
			<clipPath id="SVGID_83_">
				<use xlink:href="#SVGID_82_"  overflow="visible"/>
			</clipPath>
			<g clip-path="url(#SVGID_83_)">
				<path opacity="0.59" fill="#9696B2" enable-background="new    " d="M194.257,294.277c8.667,10.395,18.937,17.838,31.684,22.619
					c0.429,0.164,0.712-0.528,0.312-0.735c-11.367-5.959-22.194-13.517-31.55-22.326
					C194.404,293.553,194.002,293.973,194.257,294.277L194.257,294.277z"/>
			</g>
		</g>
		<g>
			<defs>
				<path id="SVGID_84_" d="M213.405,319.829c0.439,0.271,0.915,0.55,1.432,0.519c0.449-0.025,0.847-0.281,1.222-0.531
					c10.384-6.916,20.598-14.088,30.632-21.496c1.018-0.752,2.154-1.823,1.841-3.047c-0.263-1.039-1.434-1.526-2.465-1.821
					c-4.512-1.288-9.25-1.788-13.931-1.465c-6.311,0.435-12.369,2.327-18.498,3.747c-3.106,0.72-6.241,1.381-9.424,1.63
					c-2.992,0.235-6.956-0.839-9.719,0.296C181.62,302.951,209.854,317.66,213.405,319.829z"/>
			</defs>
			<clipPath id="SVGID_85_">
				<use xlink:href="#SVGID_84_"  overflow="visible"/>
			</clipPath>
			<g clip-path="url(#SVGID_85_)">
				<path opacity="0.59" fill="#9696B2" enable-background="new    " d="M199.859,293.631c7.24,10.635,21.693,18.62,33.807,22.205
					c0.382,0.111,0.56-0.402,0.259-0.613c-5.229-3.621-11.227-6.212-16.698-9.474c-6.091-3.633-11.452-8.011-16.979-12.416
					C200.047,293.172,199.688,293.379,199.859,293.631L199.859,293.631z"/>
			</g>
		</g>
		<g>
			<defs>
				<path id="SVGID_86_" d="M213.405,319.829c0.439,0.271,0.915,0.55,1.432,0.519c0.449-0.025,0.847-0.281,1.222-0.531
					c10.384-6.916,20.598-14.088,30.632-21.496c1.018-0.752,2.154-1.823,1.841-3.047c-0.263-1.039-1.434-1.526-2.465-1.821
					c-4.512-1.288-9.25-1.788-13.931-1.465c-6.311,0.435-12.369,2.327-18.498,3.747c-3.106,0.72-6.241,1.381-9.424,1.63
					c-2.992,0.235-6.956-0.839-9.719,0.296C181.62,302.951,209.854,317.66,213.405,319.829z"/>
			</defs>
			<clipPath id="SVGID_87_">
				<use xlink:href="#SVGID_86_"  overflow="visible"/>
			</clipPath>
			<g opacity="0.59" clip-path="url(#SVGID_87_)">
				<path fill="#9696B2" d="M207.845,293.574c8.501,8.121,18.611,15.734,30.742,16.967c0.555,0.054,0.763-0.803,0.283-1.046
					c-10.373-5.233-21.229-9.127-30.424-16.524C208.031,292.636,207.44,293.187,207.845,293.574L207.845,293.574z"/>
			</g>
		</g>
		<g>
			<defs>
				<path id="SVGID_88_" d="M213.405,319.829c0.439,0.271,0.915,0.55,1.432,0.519c0.449-0.025,0.847-0.281,1.222-0.531
					c10.384-6.916,20.598-14.088,30.632-21.496c1.018-0.752,2.154-1.823,1.841-3.047c-0.263-1.039-1.434-1.526-2.465-1.821
					c-4.512-1.288-9.25-1.788-13.931-1.465c-6.311,0.435-12.369,2.327-18.498,3.747c-3.106,0.72-6.241,1.381-9.424,1.63
					c-2.992,0.235-6.956-0.839-9.719,0.296C181.62,302.951,209.854,317.66,213.405,319.829z"/>
			</defs>
			<clipPath id="SVGID_89_">
				<use xlink:href="#SVGID_88_"  overflow="visible"/>
			</clipPath>
			<g clip-path="url(#SVGID_89_)">
				<path opacity="0.59" fill="#9696B2" enable-background="new    " d="M214.425,292.002c6.649,7.688,16.724,11.706,26.593,13.354
					c0.528,0.086,0.968-0.67,0.397-0.94c-8.987-4.272-18.462-6.959-26.638-12.87C214.494,291.341,214.221,291.769,214.425,292.002
					L214.425,292.002z"/>
			</g>
		</g>
		<g>
			<defs>
				<path id="SVGID_90_" d="M213.405,319.829c0.439,0.271,0.915,0.55,1.432,0.519c0.449-0.025,0.847-0.281,1.222-0.531
					c10.384-6.916,20.598-14.088,30.632-21.496c1.018-0.752,2.154-1.823,1.841-3.047c-0.263-1.039-1.434-1.526-2.465-1.821
					c-4.512-1.288-9.25-1.788-13.931-1.465c-6.311,0.435-12.369,2.327-18.498,3.747c-3.106,0.72-6.241,1.381-9.424,1.63
					c-2.992,0.235-6.956-0.839-9.719,0.296C181.62,302.951,209.854,317.66,213.405,319.829z"/>
			</defs>
			<clipPath id="SVGID_91_">
				<use xlink:href="#SVGID_90_"  overflow="visible"/>
			</clipPath>
			<g clip-path="url(#SVGID_91_)">
				<path opacity="0.59" fill="#9696B2" enable-background="new    " d="M219.945,290.365c6.397,6.621,17.982,13.172,27.464,12.65
					c0.468-0.024,0.695-0.666,0.247-0.916c-4.318-2.408-9.282-3.512-13.79-5.541c-4.58-2.058-8.86-4.68-13.322-6.969
					C220.052,289.339,219.545,289.951,219.945,290.365L219.945,290.365z"/>
			</g>
		</g>
		<g>
			<defs>
				<path id="SVGID_92_" d="M213.405,319.829c0.439,0.271,0.915,0.55,1.432,0.519c0.449-0.025,0.847-0.281,1.222-0.531
					c10.384-6.916,20.598-14.088,30.632-21.496c1.018-0.752,2.154-1.823,1.841-3.047c-0.263-1.039-1.434-1.526-2.465-1.821
					c-4.512-1.288-9.25-1.788-13.931-1.465c-6.311,0.435-12.369,2.327-18.498,3.747c-3.106,0.72-6.241,1.381-9.424,1.63
					c-2.992,0.235-6.956-0.839-9.719,0.296C181.62,302.951,209.854,317.66,213.405,319.829z"/>
			</defs>
			<clipPath id="SVGID_93_">
				<use xlink:href="#SVGID_92_"  overflow="visible"/>
			</clipPath>
			<g clip-path="url(#SVGID_93_)">
				<path opacity="0.59" fill="#9696B2" enable-background="new    " d="M228.523,289.326c5.814,4.639,13.193,8.145,20.612,9.072
					c0.576,0.07,0.791-0.842,0.295-1.086c-6.673-3.324-13.947-4.564-20.093-9.043C228.727,287.826,227.926,288.85,228.523,289.326
					L228.523,289.326z"/>
			</g>
		</g>
	</g>
</g>
<g>
	<g>
		<defs>
			<path id="SVGID_94_" d="M422.168,281.627c-6.095,16.734-16.113,31.705-26.037,46.497c-3.425,5.098-5.582,9.563-10.346,13.443
				c4.324-12.746,5.192-26.641,2.487-39.82c-0.169-0.833,0.618-1.988,0.256-1.228c-2.794,5.892-6.814,11.094-10.641,16.368
				c-8.362,11.536-16,23.753-20.89,37.134c-4.889,13.382-6.929,28.066-3.984,42.002c8.848-0.049,16.685-3.139,24.037-8.05
				c7.351-4.911,13.667-11.196,19.926-17.432c7.244-7.218,14.607-14.589,19.291-23.683c2.905-5.638,4.691-11.778,6.218-17.93
				C426.268,313.677,427.955,296.231,422.168,281.627z"/>
		</defs>
		<use xlink:href="#SVGID_94_"  overflow="visible" fill="#F37C51"/>
		<clipPath id="SVGID_95_">
			<use xlink:href="#SVGID_94_"  overflow="visible"/>
		</clipPath>
		<g opacity="0.37" clip-path="url(#SVGID_95_)">
			<path fill="#F46C42" d="M421.54,273.157c-7.569,10.906-2.149,28.142-4.499,40.542c-2.418,12.742-8.269,24.451-15.999,34.797
				c-8.471,11.351-19.24,20.93-29.857,30.221c-4.279,3.737-10.569,8.2-10.806,14.509c-0.165,4.486,2.69,7.53,7.072,8.012
				c6.608,0.727,12.541-5.183,17.231-9.023c5.516-4.503,10.871-9.142,15.892-14.191c9.34-9.384,17.94-19.847,24.257-31.535
				c5.979-11.062,10.109-23.132,11.048-35.716c0.888-11.782,0.055-30.066-10.018-38.169
				C424.41,271.438,422.628,271.591,421.54,273.157L421.54,273.157z"/>
		</g>
		<g opacity="0.37" clip-path="url(#SVGID_95_)">
			<path fill="#F46C42" d="M361.506,376.375c15.146-6.741,21.521-24.035,25.972-39.227c2.533-8.641,4.091-17.584,4.799-26.556
				c0.447-5.748,2.06-16.287-4.531-19.362c-4.592-2.145-7.897,2.108-8.917,6.344c-2.016,8.372-0.798,17.746-2.561,26.347
				c-1.854,9.047-4.801,17.66-8.551,26.085c-3.798,8.552-7.361,15.234-8.632,24.508C358.879,375.99,360.114,376.993,361.506,376.375
				L361.506,376.375z"/>
		</g>
	</g>
	<path fill="#FC8D6B" d="M325.536,443.393c4.557-0.502,8.255-3.787,11.559-6.97c9.474-9.148,18.588-19.051,24.085-31.02
		c2.238-4.871,3.648-11.14,0.12-15.177c-2.77-3.179-7.533-3.618-11.727-3.219c-11.218,1.068-21.926,6.72-29.141,15.369
		C312.419,411.977,300.646,446.129,325.536,443.393z"/>
	<g>
		<defs>
			<path id="SVGID_96_" d="M324.904,443.182c4.563-0.503,8.26-3.783,11.565-6.97c9.472-9.141,18.586-19.048,24.084-31.016
				c2.233-4.871,3.646-11.147,0.117-15.181c-2.771-3.173-7.53-3.622-11.729-3.219c-11.21,1.069-21.924,6.715-29.139,15.369
				C311.79,411.76,300.018,445.917,324.904,443.182z"/>
		</defs>
		<clipPath id="SVGID_97_">
			<use xlink:href="#SVGID_96_"  overflow="visible"/>
		</clipPath>
		<g opacity="0.25" clip-path="url(#SVGID_97_)">
			<path fill="#FFFFFF" d="M357.6,395.168c-3.938,5.98-6.758,12.49-11.802,17.742c-5.158,5.367-12.033,7.964-18.659,11.07
				c-10.05,4.728-5.74,18.365,2.82,21.547c25.101,9.331,55.969-26.793,44.849-50.359C371.413,387.97,361.366,389.443,357.6,395.168
				L357.6,395.168z"/>
		</g>
		<g opacity="0.39" clip-path="url(#SVGID_97_)">
			<path fill="#FC8D6B" d="M355.486,378.748c-14.962-7.683-35.707,4.889-43.336,17.853c-5.479,9.302,7.71,20.094,15.239,11.757
				c3.622-4.012,7.154-8.752,12.177-10.959c5.185-2.284,11.335-3.806,15.92-7.141C359.238,387.531,360.329,381.236,355.486,378.748
				L355.486,378.748z"/>
		</g>
		<g opacity="0.47" clip-path="url(#SVGID_97_)">
			<path fill="#F46C42" d="M349.773,477.784c3.466-7.012,2.92-15.074,2.329-22.689c-0.69-8.998-2.28-17.979-4.772-26.646
				c-4.5-15.665-13.663-36.352-28.217-45.005c-9.299-5.529-18.324,4.401-16.364,13.489c1.647,7.637,7.092,13.819,10.996,20.422
				c4.006,6.784,7.552,13.961,10.346,21.319c2.682,7.078,4.857,14.334,7.427,21.443c2.453,6.778,4.352,13.892,9.643,19.063
				C343.631,481.597,348.214,480.944,349.773,477.784L349.773,477.784z"/>
		</g>
	</g>
	<g>
		<defs>
			<path id="SVGID_98_" d="M278.844,457.764c2.514,3.792,5.777,7.473,10.18,8.621c4.019,1.047,8.259-0.205,12.151-1.674
				c5.076-1.917,10.009-4.218,14.737-6.885c2.426-1.368,4.862-2.888,6.541-5.112c2.537-3.358,2.993-7.817,3.102-12.026
				c0.181-6.951-0.337-13.923-1.541-20.771c-1.092-6.25-3.196-13.01-8.604-16.322c-3.232-1.979-7.145-2.396-10.91-2.758
				c-8.071-0.778-17.218-1.19-23.167,4.32c-5.009,4.638-6.114,12.079-6.269,18.904c-0.138,6.206-1.131,11.929-1.783,17.98
				C272.656,447.852,275.541,452.786,278.844,457.764z"/>
		</defs>
		<use xlink:href="#SVGID_98_"  overflow="visible" fill="#F37C51"/>
		<clipPath id="SVGID_99_">
			<use xlink:href="#SVGID_98_"  overflow="visible"/>
		</clipPath>
		<g opacity="0.22" clip-path="url(#SVGID_99_)">
			<path fill="#FFFFFF" d="M330.04,421.753c-3.878,3.325-6.375,6.123-9.267,10.52c-2.938,4.474-5.287,6.895-10.621,8.358
				c-4.508,1.233-9.598,1.364-14.239,1.396c-5.122,0.041-10.096-1.688-15.087,0.041c-6.392,2.211-9.829,8.068-8.384,14.765
				c4.198,19.473,36.701,15.141,49.793,9.188c16.292-7.416,25.22-27.616,15.583-43.265
				C336.052,419.88,332.484,419.665,330.04,421.753L330.04,421.753z"/>
		</g>
		<g opacity="0.26" clip-path="url(#SVGID_99_)">
			<path fill="#F46C42" d="M331.768,410.076c-3.125-12.588-14.81-21.201-27.747-21.225c-11.479-0.022-27.423,7.634-32.25,18.625
				c-5.312,12.09,5.99,26.64,19.104,19.102c4.939-2.837,8.82-7.754,14.452-9.315c5.47-1.518,9.92,2.896,15.337,3.915
				C327.393,422.45,333.518,417.133,331.768,410.076L331.768,410.076z"/>
		</g>
		<g opacity="0.3" clip-path="url(#SVGID_99_)">
			<path fill="#F46C42" d="M265.939,501.188c17.719-8.703,23.272-36.208,27.936-53.489c2.966-10.986,5.312-22.12,6.466-33.45
				c0.877-8.622,1.522-24.3-7.954-28.805c-8.062-3.831-11.579,6.036-12.605,12.182c-1.961,11.721-1.994,23.504-4.533,35.192
				c-2.369,10.899-5.349,21.712-8.1,32.52c-2.573,10.105-6.661,19.813-8.834,29.994
				C257.339,499.903,261.815,503.215,265.939,501.188L265.939,501.188z"/>
		</g>
	</g>
	<g>
		<defs>
			<path id="SVGID_100_" d="M217.439,458.408c8.667,8.904,29.637,12.575,42.061,12.229c2.601-0.072,5.238-0.152,7.727-0.916
				c5.384-1.661,9.294-6.3,12.335-11.045c8.514-13.297,12.648-29.35,11.618-45.103c-0.556-8.476-2.951-17.479-9.552-22.82
				c-4.794-3.881-11.133-5.265-17.278-5.829c-4.318-0.393-8.918-0.384-12.674,1.783c-2.673,1.548-4.647,4.033-6.526,6.481
				c-9.049,11.784-17.105,24.272-25.74,36.326C212.792,438.744,209.787,450.538,217.439,458.408z"/>
		</defs>
		<use xlink:href="#SVGID_100_"  overflow="visible" fill="#FC8D6B"/>
		<clipPath id="SVGID_101_">
			<use xlink:href="#SVGID_100_"  overflow="visible"/>
		</clipPath>
		<g opacity="0.25" clip-path="url(#SVGID_101_)">
			<path fill="#FFFFFF" d="M290.945,447.689c-9.882-2.855-19.916,3.318-30.028,1.408c-5.942-1.129-11.074-4.139-16.755-5.968
				c-2.438-1.52-2.856-1.582-1.259-0.185c-0.352-0.717-0.7-1.43-1.049-2.145c-1.049-3.067-2.946-5.457-4.885-8.004
				c-5.401-7.096-18.23-10.051-22.972,0c-5.565,11.8-4.289,24.805,5.759,34c9.297,8.511,24.696,12.558,36.899,13.803
				c12.081,1.231,24.286-2.785,33.283-11.014C295.344,464.64,302.162,450.936,290.945,447.689L290.945,447.689z"/>
		</g>
		<g opacity="0.39" clip-path="url(#SVGID_101_)">
			<path fill="#FC8D6B" d="M304.463,412.242c2.108-34.873-58.648-51.379-69.445-15.852c-4.016,13.211,10.795,22.313,21.887,16.827
				c6.102-3.017,8.874-7.739,16.265-5.335c7.153,2.332,13.16,7.753,20.031,10.824C298.473,421.063,304.101,418.285,304.463,412.242
				L304.463,412.242z"/>
		</g>
		<g opacity="0.27" clip-path="url(#SVGID_101_)">
			<path fill="#FC8D6B" d="M165.351,495.843c4.125-0.937,8.046,0.82,12.166,0.564c3.625-0.225,7.206-1.451,10.563-2.748
				c6.755-2.607,12.556-5.883,18.335-10.244c12.916-9.755,23.296-21.954,32.85-34.941c9.833-13.363,17.933-28.047,26.38-42.302
				c8.009-13.515,19.199-30.821,16.959-47.221c-0.264-1.935-2.982-3.358-4.738-2.687c-14.327,5.461-24.009,22.265-31.414,34.836
				c-7.747,13.155-15.373,26.397-23.722,39.185c-7.868,12.05-16.227,23.279-26.383,33.499c-5.021,5.053-10.437,9.736-15.739,14.488
				c-2.547,2.281-5.421,4.312-7.796,6.781c-2.795,2.896-4.16,6.698-8.13,8.362C163.227,494.021,163.724,496.211,165.351,495.843
				L165.351,495.843z"/>
		</g>
	</g>
	<g>
		<defs>
			<path id="SVGID_102_" d="M162.285,441.844c11.425,6.617,25.09,7.925,38.284,8.443c3.738,0.148,7.541,0.233,11.155-0.734
				c6.087-1.635,10.977-6.069,15.428-10.53c13.808-13.859,26.316-30.467,28.904-49.862c0.826-6.183,0.364-13.116-3.912-17.656
				c-4.91-5.211-13.307-5.463-20.045-3.057c-6.741,2.403-12.47,6.943-18.729,10.417c-8.064,4.469-16.972,7.154-25.802,9.805
				c-9.529,2.855-19.061,5.712-28.587,8.576c-6.035,1.817-13.878,3.542-16.739,9.938c-2.718,6.07,0.703,13.369,3.812,18.593
				C148.488,429.859,156.747,441.844,162.285,441.844z"/>
		</defs>
		<use xlink:href="#SVGID_102_"  overflow="visible" fill="#FF9E88"/>
		<clipPath id="SVGID_103_">
			<use xlink:href="#SVGID_102_"  overflow="visible"/>
		</clipPath>
		<g opacity="0.22" clip-path="url(#SVGID_103_)">
			<path fill="#FFFFFF" d="M237.516,439.265c2.438,1.49-2.913-2.855-3.568-3.326c-2.425-1.732-5.211-2.538-8.043-3.259
				c-5.725-1.455-11.711-1.697-17.495-2.889c-8.909-1.834-18.467-4.318-25.585-10.265c-7.725-6.45-8.746-16.375-13.942-24.402
				c-7.356-11.362-20.527-10.995-27.392,0.988c-13.49,23.553,10.063,51.407,30.389,60.96c11.436,5.373,23.834,7.81,36.455,6.805
				c6.731-0.534,13.073-1.619,19.28-4.315c2.951-1.277,5.466-2.551,7.779-4.879c0.969-0.977,4.288-6.32,3.423-5.291
				C241.497,446.196,241.292,441.575,237.516,439.265L237.516,439.265z"/>
		</g>
		<g opacity="0.26" clip-path="url(#SVGID_103_)">
			<path fill="#F46C42" d="M268.335,406.665c4.124-11.559,2.47-23.373-6.105-32.511c-8.175-8.702-24.201-19.12-36.317-14.54
				c-12.083,4.565-14.158,19.218-3.486,26.685c3.461,2.423,7.61,3.184,11.337,5.083c3.586,1.827,7.138,3.885,10.612,5.908
				c5.955,3.474,9.829,9.164,15.876,12.661C263.512,411.838,267.154,409.982,268.335,406.665L268.335,406.665z"/>
		</g>
		<g opacity="0.47" clip-path="url(#SVGID_103_)">
			<path fill="#F46C42" d="M95.831,424.89c7.116,2.995,15.391,1.187,22.782,0.049c7.21-1.104,14.377-2.398,21.507-3.938
				c15.197-3.287,29.996-7.826,44.591-13.171c13.961-5.104,27.573-10.925,40.468-18.355c12.058-6.939,23.709-15.247,28.854-28.589
				c1.824-4.727-3.375-7.968-7.349-7.351c-13.271,2.078-24.677,10.136-36.473,16.161c-12.216,6.241-24.864,11.783-37.688,16.641
				c-13.58,5.145-27.452,9.724-41.35,13.923c-11.993,3.626-28.718,5.136-38.21,13.775C88.953,417.688,91.671,423.14,95.831,424.89
				L95.831,424.89z"/>
		</g>
	</g>
	<g>
		<path fill="#DD7C5E" d="M297.395,86.287c17.79-20.886,44.607-29.959,71.247-32.501c27.86-2.657,57.524,1.346,74.638,25.977
			c7.545,10.854,11.976,23.871,13.4,36.974c0.787,7.256,0.942,14.885-1.276,21.916c-2.173,6.874-6.647,12.775-10.885,18.494
			c-16.034,21.679-36.208,41.473-62.933,48.599c-2.133,0.567-1.229,3.871,0.908,3.302c22.19-5.918,40.255-20.365,54.993-37.572
			c7.372-8.612,15.775-18.241,20.087-28.809c3.863-9.452,3.492-20.134,1.984-30.048c-3.111-20.439-13.383-40.686-31.165-52.047
			c-19.429-12.417-44.533-12.412-66.613-9.408c-25.187,3.425-49.983,12.952-66.803,32.702
			C293.555,85.534,295.966,87.965,297.395,86.287L297.395,86.287z"/>
	</g>
	<g>
		<path fill="#DD7C5E" d="M293.951,73.415c6.801-12.074,19.086-18.462,31.332-23.867c14.287-6.303,29.074-11.668,44.348-15.001
			c27.896-6.089,57.854-4.889,83.267,9.174c12.006,6.647,22.943,16.184,29.828,28.18c7.233,12.602,7.753,28.36,6.804,42.536
			c-1.83,27.389-13.045,54.288-32.96,73.435c-22.372,21.507-52.757,31.869-82.729,37.239c-2.168,0.389-1.244,3.688,0.909,3.302
			c28.905-5.18,57.87-15,80.344-34.557c21.583-18.782,34.274-45.871,37.392-74.104c1.59-14.398,1.61-31.042-4.272-44.557
			c-4.942-11.336-13.984-20.981-23.86-28.219c-23.969-17.561-54.801-22.078-83.681-17.903c-18.292,2.644-35.967,8.461-52.916,15.694
			c-14.218,6.066-28.875,12.924-36.761,26.921C289.912,73.607,292.869,75.335,293.951,73.415L293.951,73.415z"/>
	</g>
	<g>
		<path fill="#F37C51" d="M268.83,291.047c16.019,12.356,34.048,10.177,51.289,1.684c10.934-5.39,21.627-10.941,33.19-14.934
			c9.983-3.444,35.072-13.485,40.05,1.314c0.694,2.083,4.001,1.191,3.295-0.902c-6.68-19.898-38.724-6.041-51.247-1.121
			c-24.518,9.639-49.445,30.595-74.849,11.005C268.815,286.75,267.109,289.722,268.83,291.047L268.83,291.047z"/>
	</g>
	<g>
		<path fill="#F37C51" d="M262.083,288.289c1.662,27.81,28.796,32.501,51.668,31.128c13.772-0.824,27.404-3.76,40.167-9.026
			c15.078-6.218,29.759-19.504,47.071-14.907c2.128,0.569,3.037-2.735,0.906-3.299c-9.734-2.588-18.913-0.144-27.806,4.203
			c-12.266,5.995-23.6,12.557-36.995,15.978c-23.592,6.03-69.524,10.459-71.591-24.076
			C265.371,286.105,261.949,286.086,262.083,288.289L262.083,288.289z"/>
	</g>
	<g>
		<path fill="#F37C51" d="M246.882,294.642c2.838,18.189,16.198,33.473,34.296,37.717c11.26,2.647,22.905,1.282,34.24-0.08
			c12.919-1.55,29.793-6.474,41.929-0.071c1.952,1.025,3.681-1.926,1.729-2.955c-7.9-4.167-16.018-3.697-24.685-2.713
			c-11.717,1.334-23.449,3.375-35.241,3.833c-23.918,0.914-45.088-11.774-48.965-36.639
			C249.844,291.562,246.548,292.484,246.882,294.642L246.882,294.642z"/>
	</g>
	<g>
		<path fill="#F37C51" d="M240.398,308.699c3.652,17.492,17.775,29.794,33.731,36.467c9.26,3.874,19.247,6.031,29.283,6.39
			c11.048,0.394,25.527-4.379,34.748,3.582c1.657,1.436,4.091-0.979,2.418-2.418c-5.407-4.674-11.619-5.668-18.625-5.454
			c-11.138,0.333-21.479,1.462-32.572-0.885c-20.227-4.285-41.19-17.075-45.684-38.591
			C243.248,305.633,239.948,306.546,240.398,308.699L240.398,308.699z"/>
	</g>
	<g>
		<path fill="#F37C51" d="M232.588,324.928c6.363,6.554,9.243,15.606,15.397,22.428c5.284,5.855,11.933,10.473,19.096,13.726
			c6.658,3.026,13.792,4.917,21.075,5.583c11.648,1.065,23.161-2.779,34.721-0.505c2.153,0.426,3.07-2.875,0.914-3.301
			c-9.555-1.879-18.661,0.385-28.233,0.632c-8.85,0.233-17.688-1.495-25.812-4.986c-8.045-3.456-15.371-8.604-20.936-15.416
			c-5.294-6.467-7.941-14.549-13.799-20.586C233.472,320.92,231.052,323.342,232.588,324.928L232.588,324.928z"/>
	</g>
	<path fill="#FC8D6B" d="M237.517,328.733c-17.226,0.993-33.234-9.228-45.347-21.517c-9.641-9.785-17.822-21.381-21.612-34.587
		c-3.791-13.2-2.776-28.157,4.696-39.685c2.523-3.893,5.703-7.315,9.036-10.541c18.803-18.193,43.098-30.635,68.852-35.256
		c3.725-0.667,7.624-1.167,11.241-0.056c3.618,1.113,6.87,4.26,6.932,8.042c-9.685,13.529-13.458,30.167-12.638,46.785
		c0.824,16.615,7.416,32.896,18.392,45.398c-0.523,0.068-1.412,1.953-1.344,1.433c-0.728,5.189-2.83,7.793-7.224,10.65
		c-4.39,2.861-9.268,7.128-12.889,10.914C242.329,324.207,247.77,329.431,237.517,328.733z"/>
	<path fill="#FC8D6B" d="M139.207,402.877c9.569,4.62,20.764,4.979,31.186,2.915c10.419-2.065,20.238-6.401,29.862-10.901
		c17.001-7.947,35.045-17.87,42.138-35.242c1.325-3.249,0.67-5.434-0.373-8.782c-0.724-2.338-2.349-4.271-3.959-6.116
		c-2.756-3.151-6.205-6.494-10.384-6.208c-17.983-0.704-35.187-6.03-52.713-10.113c-17.863-4.165-36.286-5.927-54.613-5.23
		c-4.293,0.167-7.311,5.435-8.145,9.648c-0.981,4.956-1.648,9.97-1.997,15.012c-0.181,2.641-0.671,12.946,5.212,24.711
		C125.713,393.159,129.64,398.262,139.207,402.877z"/>
	<g>
		<defs>
			<path id="SVGID_104_" d="M237.517,328.733c-17.226,0.993-33.234-9.228-45.347-21.517c-9.641-9.785-17.822-21.381-21.612-34.587
				c-3.791-13.2-2.776-28.157,4.696-39.685c2.523-3.893,5.703-7.315,9.036-10.541c18.803-18.193,43.098-30.635,68.852-35.256
				c3.725-0.667,7.624-1.167,11.241-0.056c3.618,1.113,6.87,4.26,6.932,8.042c-9.685,13.529-13.458,30.167-12.638,46.785
				c0.824,16.615,7.416,32.896,18.392,45.398c-0.523,0.068-1.412,1.953-1.344,1.433c-0.728,5.189-2.83,7.793-7.224,10.65
				c-4.39,2.861-9.268,7.128-12.889,10.914C242.329,324.207,247.77,329.431,237.517,328.733z"/>
		</defs>
		<clipPath id="SVGID_105_">
			<use xlink:href="#SVGID_104_"  overflow="visible"/>
		</clipPath>
		<g opacity="0.25" clip-path="url(#SVGID_105_)">
			<path fill="#FFFFFF" d="M176.888,259.57c-1.183,2.888,1.536-1.763,1.786-2.165c0.95-1.503,1.633-3.182,2.615-4.693
				c2.633-4.045,5.461-8.041,8.421-11.851c5.645-7.263,12.322-13.571,19.896-18.798c7.954-5.491,16.446-10.314,25.778-12.984
				c10.575-3.027,20.225-0.938,30.825-1.978c14.526-1.421,21.113-19.773,7.638-28.199c-14.217-8.889-34.75-5.566-49.54,0.335
				c-13.61,5.433-25.667,13.395-36.701,23.021c-10.231,8.926-19.983,19.988-24.68,32.913c-3.375,9.293-5.618,28.035,8.958,28.208
				C174.388,263.409,176.014,261.704,176.888,259.57L176.888,259.57z"/>
		</g>
		<g opacity="0.39" clip-path="url(#SVGID_105_)">
			<path fill="#FC8D6B" d="M267.433,261.163c-1.515,3.919-4.653,7.688-6.694,11.422c-2.185,3.993-4.554,8.014-7.506,11.488
				c-5.659,6.662-13.456,10.27-21.665,12.75c-18.908,5.708-11.063,34.615,8.175,29.654c14.635-3.77,26.727-13.247,34.785-25.97
				c3.737-5.896,6.032-12.262,6.988-19.161c1.098-7.883-0.887-13.086-3.773-20.183C275.722,256.188,269.414,256.036,267.433,261.163
				L267.433,261.163z"/>
		</g>
		<g opacity="0.27" clip-path="url(#SVGID_105_)">
			<path fill="#FC8D6B" d="M286.145,299.625c4.313-10.826-4.551-24.354-8.167-34.243c-4.786-13.095-7.375-26.234-6.59-40.222
				c0.77-13.715,5.111-27.277,10.241-39.942c4.7-11.6,13.531-24.709,9.667-37.616c-1.079-3.613-4.819-5.798-8.509-4.833
				c-14.986,3.922-21.944,22.283-27.329,35.235c-6.401,15.397-10.287,31.924-10.54,48.654c-0.243,16.361,4.278,31.655,11.286,46.308
				c4.786,10.006,12.679,29.713,26.225,29.489C284.287,302.418,285.497,301.245,286.145,299.625L286.145,299.625z"/>
		</g>
	</g>
	<g>
		<defs>
			<path id="SVGID_106_" d="M139.207,402.877c9.569,4.62,20.764,4.979,31.186,2.915c10.419-2.065,20.238-6.401,29.862-10.901
				c17.001-7.947,35.045-17.87,42.138-35.242c1.325-3.249,0.67-5.434-0.373-8.782c-0.724-2.338-2.349-4.271-3.959-6.116
				c-2.756-3.151-6.205-6.494-10.384-6.208c-17.983-0.704-35.187-6.03-52.713-10.113c-17.863-4.165-36.286-5.927-54.613-5.23
				c-4.293,0.167-7.311,5.435-8.145,9.648c-0.981,4.956-1.648,9.97-1.997,15.012c-0.181,2.641-0.671,12.946,5.212,24.711
				C125.713,393.159,129.64,398.262,139.207,402.877z"/>
		</defs>
		<clipPath id="SVGID_107_">
			<use xlink:href="#SVGID_106_"  overflow="visible"/>
		</clipPath>
		<g opacity="0.25" clip-path="url(#SVGID_107_)">
			<path fill="#FFFFFF" d="M161.003,400.246c-0.366-0.233-0.733-0.466-1.097-0.7c1.47,2.566,2.941,5.132,4.41,7.692
				c-0.595-7.978-7.418-13.914-12.098-19.787c-4.867-6.103-8.282-13.342-10.273-20.872c-1.851-7.011-2.67-15.749-1.426-21.277
				c1.821-8.106,7.406-14.42,8.65-22.442c1.147-7.387-1.784-16.672-10.372-18.266c-18.555-3.447-31.667,12.615-35.887,29.098
				c-4.325,16.89-2.333,34.83,4.517,50.701c6.03,13.98,17.979,29.775,33.504,33.832c6.393,1.67,15.457,1.137,20.332-3.855
				C164.89,410.647,165.922,403.36,161.003,400.246L161.003,400.246z"/>
		</g>
		<g opacity="0.39" clip-path="url(#SVGID_107_)">
			<path fill="#FC8D6B" d="M205.371,329.225c3.06,6.609,8.775,11.015,9.893,18.664c1.272,8.709-2.371,16.498-2.152,24.99
				c0.313,12.101,12.656,18.458,23.066,13.237c15.432-7.735,12.824-33.526,7.045-46.559c-5.108-11.514-19.328-26.279-33.351-21.395
				C204.971,319.869,203.243,324.624,205.371,329.225L205.371,329.225z"/>
		</g>
		<g opacity="0.27" clip-path="url(#SVGID_107_)">
			<path fill="#FC8D6B" d="M82.823,306.331c5.015,11.792,15.237,18.553,26.376,24.155c13.806,6.941,28.625,12.017,43.628,15.652
				c14.659,3.545,30.243,5.38,45.317,5.73c12.086,0.276,34.108,0.139,39.841-12.975c0.848-1.938,1.412-4.449,0-6.347
				c-7.804-10.495-23.456-9.197-35.344-9.491c-12.792-0.318-25.399-0.838-38.089-2.593c-12.911-1.781-25.697-4.231-38.299-7.57
				c-6.727-1.777-13.421-3.662-20.163-5.381c-5.556-1.419-12.215-2.524-16.721-6.231C85.591,298.175,80.967,301.962,82.823,306.331
				L82.823,306.331z"/>
		</g>
	</g>
	<g>
		<defs>
			<path id="SVGID_108_" d="M422.507,134.8c-4.973,2.569-9.57,5.871-13.595,9.77c-0.716,0.696-1.47,1.993-1.522,2.993
				c0.039-4.124,0.081-8.247,0.125-12.369c0.026-2.91,0.005-6.011-1.595-8.44c-1.597-2.429-5.398-3.61-7.453-1.554
				c-0.103,0.408-0.604,0.385-0.559,0.801c1.335,13.202-8.265,24.812-17.828,34.011c-4.915,4.728-10.036,9.327-15.949,12.723
				c-6.439,3.701-13.641,5.874-20.885,7.501c-8.811,1.979-17.791,3.194-26.808,3.628c-12.372,0.597-24.806-0.273-37.129,0.922
				c-12.328,1.198-24.887,4.699-34.229,12.829c-11.27,9.811-16.445,25.589-15.002,40.461c1.441,14.869,8.975,28.744,19.336,39.514
				c4.549,4.728,19.424,13.557,41.246,10.073c7.638-1.218,15.417-1.719,22.842-3.877c23.494-6.832,41.669-25.437,56.229-45.099
				c4.198-5.673,8.2-11.497,11.989-17.453C398.624,194.648,411.042,164.146,422.507,134.8z"/>
		</defs>
		<use xlink:href="#SVGID_108_"  overflow="visible" fill="#F37C51"/>
		<clipPath id="SVGID_109_">
			<use xlink:href="#SVGID_108_"  overflow="visible"/>
		</clipPath>
		<g clip-path="url(#SVGID_109_)">
			<path fill="#FF7D55" d="M394.339,117.396c-4.709,2.039-5.09,7.391-6.415,11.8c-1.687,5.599-4.293,10.782-7.347,15.752
				c-3.209,5.222-6.969,10.063-11.219,14.479c-3.935,4.091-8.506,5.517-13.734,7.449c-12.489,4.616-24.979,7.505-38.357,7.169
				c-13.811-0.345-27.267-4.771-41-4.911c-15.874-0.165-41.352,24.923-27.799,30.003c8.284,3.107,42.27-0.139,51.048,0.66
				c9.133,0.833,18.313,1.069,27.434,0.012c16.51-1.919,35.635-6.41,49.231-16.431c11.475-8.461,19.2-24.694,23.177-38.05
				C400.531,141.367,406.485,112.145,394.339,117.396L394.339,117.396z"/>
		</g>
		<g clip-path="url(#SVGID_109_)">
			<path fill="#F46C42" d="M422.225,123.782c-7.081,3.085-9.568,11.19-13.067,17.507c-4.122,7.452-9.352,14.189-13.385,21.696
				c-8.985,16.722-15.834,33.216-28.183,47.965c-11.339,13.544-23.704,28.146-37.873,38.813c-7.489,5.64-15.848,9.803-25.043,11.726
				c-9.584,2-23.818-3.101-33.286-1.972c-23.48,2.794-37.963,35.371-24.037,41.37c20.853,8.979,69.581-9.679,88.185-21.606
				c18.193-11.658,33.156-28.745,46.962-45.154c14.344-17.055,24.399-34.711,32.519-55.374
				c6.716-17.066,20.783-35.161,10.971-53.984C425.243,123.342,423.532,123.212,422.225,123.782L422.225,123.782z"/>
		</g>
	</g>
	<path fill="#382A3B" d="M303.645,210.69c15.113-1.685,10.404-22.625-3.537-21.495C285.009,190.418,289.462,212.27,303.645,210.69z"
		/>
	<path fill="#FFFFFF" d="M300.461,201.374c3.971-0.443,2.736-5.943-0.927-5.645C295.569,196.05,296.737,201.789,300.461,201.374z"/>
	<g>
		<defs>
			<path id="SVGID_110_" d="M233.999,317.738c7.554,5.55,10.15,16.179,8.011,25.302c-0.465,1.976-1.135,3.932-2.291,5.604
				c-1.646,2.374-2.358,4.759-5.184,5.374c-17.779,3.84-36.453,1.53-53.851-3.774c-17.402-5.311-33.754-13.517-50.009-21.692
				c-3.165-1.588-6.393-3.222-8.866-5.764c-5.231-5.364-5.085-16.883-4.309-23.826c1.415-12.634,8.058-24.032,15.192-34.554
				c2.69-3.967,5.502-7.906,9.041-11.14c8.28-7.568,20.446-10.63,31.319-7.886c14.427,3.645,19.809,21.057,29.722,32.146
				c6.068,6.791,13.315,12.473,19.125,19.483C226.65,302.745,231.519,310.718,233.999,317.738z"/>
		</defs>
		<use xlink:href="#SVGID_110_"  overflow="visible" fill="#FF9E88"/>
		<clipPath id="SVGID_111_">
			<use xlink:href="#SVGID_110_"  overflow="visible"/>
		</clipPath>
		<g opacity="0.22" clip-path="url(#SVGID_111_)">
			<path fill="#FFFFFF" d="M130.6,331.114c3.488-7.695,3.437-16.277,4.92-24.497c1.592-8.819,3.994-17.334,8.696-25.026
				c3.653-5.98,8.809-10.972,14.722-14.692c7.653-4.819,17.551-7.215,23.575-14.238c5.14-5.995,5.522-16.791-2.681-20.815
				c-23.728-11.643-51.864,12.918-63.45,32.049c-6.669,11.013-10.727,24.493-10.109,37.435c0.555,11.586,4.211,26.328,15.397,32.126
				C124.552,334.946,129.085,334.455,130.6,331.114L130.6,331.114z"/>
		</g>
		<g opacity="0.26" clip-path="url(#SVGID_111_)">
			<path fill="#F46C42" d="M225.474,289.426c-2.22,7.969,0.174,16.375-1.807,24.475c-1.987,8.116-6.906,13.444-13.172,18.498
				c-12.234,9.881,0.95,32.129,15.52,26.659c15.668-5.892,24.538-22.71,26.248-38.68c1.394-13.036-3.542-32.027-17.814-36.047
				C230.645,283.267,226.53,285.643,225.474,289.426L225.474,289.426z"/>
		</g>
		<g opacity="0.47" clip-path="url(#SVGID_111_)">
			<path fill="#F46C42" d="M136.363,208.38c2.334,6.857,3.26,13.939,6.334,20.681c3.144,6.899,7.299,13.481,11.445,19.81
				c7.828,11.951,16.297,23.695,25.999,34.208c9.914,10.735,21.167,19.582,33.149,27.908c7.737,5.367,26.763,20.897,36.216,11.451
				c9.136-9.137-6.017-23.95-12.739-28.884c-11.429-8.398-23.316-15.641-33.885-25.195c-10.526-9.524-20.13-20.056-29.033-31.098
				c-4.748-5.89-9.236-11.999-14.194-17.714c-5.016-5.784-11.196-9.845-16.591-15.068
				C140.324,201.825,135.026,204.45,136.363,208.38L136.363,208.38z"/>
		</g>
	</g>
	<g>
		<path fill="#FFFFFF" d="M184.368,272.647c-29.17,14.137-41.875,53.92-39.545,84.458c1.435,18.795,7.478,36.801,21.34,50.109
			c6.334,6.084,13.515,11.162,21.438,14.932c6.979,3.319,18.452,8.317,26.091,5.515c4.25-1.56,7.31-5.739,5.928-10.439
			c-1.85-6.308-8.125-10.584-13.133-14.471c-5.466-4.233-11.29-8.159-16.604-12.614c-11.103-9.312-16.812-21.345-18.268-35.716
			c-1.307-12.894-0.782-25.634,2.561-38.192c3.468-13.022,10.27-25.218,16.927-36.843
			C193.677,274.89,188.657,270.571,184.368,272.647L184.368,272.647z"/>
	</g>
	<g>
		<path fill="#FFFFFF" d="M261.047,442.001c2.136,0,4.38-0.932,5.893-2.441c1.444-1.444,2.534-3.818,2.442-5.891
			c-0.097-2.158-0.807-4.396-2.442-5.896c-1.63-1.501-3.636-2.441-5.893-2.441c-2.138,0-4.382,0.932-5.893,2.441
			c-1.444,1.444-2.533,3.818-2.44,5.896c0.097,2.153,0.804,4.386,2.44,5.891C256.786,441.056,258.79,442.001,261.047,442.001
			L261.047,442.001z"/>
	</g>
	<g opacity="0.4">
		<path fill="#FFFFFF" d="M272.645,188.23c-14.405,2.214-25.807,18.519-28.666,31.835c-3.288,15.327,2.107,39.604,22.14,38.543
			c8.354-0.443,13.418-6.238,14.29-14.292c0.843-7.782-3.479-14.678-3.089-22.295c0.193-3.798,0.964-7.733,1.967-11.427
			c1.055-3.883,3.225-7.44,4.285-11.435C285.462,192.045,279.152,187.232,272.645,188.23L272.645,188.23z"/>
	</g>
	<g>
		<path fill="#FFFFFF" d="M208.635,261.644c2.901-1.018,5.434-2.371,8.097-3.907c2.429-1.399,4.96-3.038,5.312-5.985
			c0.103-0.851-0.706-1.782-1.5-1.969c-2.751-0.657-5.125,1.233-7.141,2.911c-2.325,1.937-4.461,3.841-6.373,6.189
			C206.095,260.031,206.922,262.243,208.635,261.644L208.635,261.644z"/>
	</g>
	<g>
		<path fill="#FFFFFF" d="M177.242,303.059c-9.754,8.317-10.971,23.633-11.167,35.765c-0.223,14.088,3.33,26.888,11.674,38.098
			c1.352,1.817,4.247,0.806,3.737-1.57c-2.55-11.882-4.728-24.35-4.849-36.527c-0.118-11.728,4.583-22.863,3.825-34.427
			C180.352,302.704,178.508,301.979,177.242,303.059L177.242,303.059z"/>
	</g>
</g>
</svg>
