<?xml version="1.0" encoding="utf-8"?>
<!-- Generator: Adobe Illustrator 15.0.0, SVG Export Plug-In . SVG Version: 6.00 Build 0)  -->
<!DOCTYPE svg PUBLIC "-//W3C//DTD SVG 1.1//EN" "http://www.w3.org/Graphics/SVG/1.1/DTD/svg11.dtd">
<svg version="1.1" id="Capa_1" xmlns="http://www.w3.org/2000/svg" xmlns:xlink="http://www.w3.org/1999/xlink" x="0px" y="0px"
	 width="586px" height="586px" viewBox="0 0 586 586" enable-background="new 0 0 586 586" xml:space="preserve">
<g opacity="0.3">
	<path fill="#54D9FB" d="M70.81,417.444c22.295,8.044,42.563,15.354,73.325,15.178c78.306-0.173,158.679-56.046,226.169-17.88
		c-85.04-13.354-143.348,42.008-227.035,32.889C116.347,444.591,92.172,434.637,70.81,417.444z"/>
	<path fill="#005B8D" d="M208.648,450.037c66.619,2.848,111.874-11.994,162.559-29.979c43.308-12.416,96.697-17.286,130.835,12.271
		c-35.697-13.419-74.734-8.632-107.443,0.634C364.757,442.355,285.057,479.107,208.648,450.037z"/>
	<path fill="#005B8D" d="M47.56,428.124c21.021,12.87,79.928,36.858,141.688,46.008c98.887,14.526,161.065-21.081,186.021-29.396
		c-31.293,22.106-59.377,44.475-121.729,50.553C166.205,503.091,82.025,464.645,47.56,428.124z"/>
	<path fill="#54D9FB" d="M183.182,417.444c78.172-51.438,137.21-59.425,198.282-51.679c33.334,5.146,124.838,33.896,165.965,26.213
		c-37.353,17.506-110.465,4.058-152.211-4.174C295.669,370.598,244.849,398.732,183.182,417.444z"/>
</g>
<path stroke="#000000" stroke-miterlimit="10" d="M19.722,360.181"/>
<line fill="#524C4A" x1="72.077" y1="479.373" x2="67.72" y2="480.681"/>
<path opacity="0.53" fill="#919AB8" enable-background="new    " d="M370.99,241.938c-33.385,15.203-62.389,23.955-62.389,23.955
	s-25.505,8.638-28.467,10.055c-14.083,6.732-79.189,32.358-128.757,52.329c-19.001,7.655-35.36,15.196-46.215,19.466
	c-8.056,3.17-13.29,5.861-13.29,5.861s47.894-34.711,79.276-54.316c31.38-19.605,89.125-28.511,115.22-71.136
	c26.098-42.624,126.88-89.423,126.88-89.423c7.191,5.615-9.781,16.57-3.792,25.659c5.99,9.088,49.062,26.14,49.062,26.14
	C438.845,206.751,402.928,227.395,370.99,241.938z"/>
<path opacity="0.53" fill="#CED7F2" enable-background="new    " d="M529.896,114.405c-2.237-1.968-6.732-0.139-6.732-0.139
	l-7.468,3.927c0,0,4.631-9.538,0.89-13.621c-6.292-6.865-57.351,19.335-90.784,23.683c-20.994,2.729-69.399,28.399-131.501,61.055
	c-62.102,32.656-162.58,124.514-162.58,124.514s-52.167,50.484-35.388,41.662c16.781-8.824,127.599-56.217,127.599-56.217
	l61.701-25.571c91.794-27.532,164.996-77.42,164.996-77.42c64.423-44.297,79.964-76.504,79.964-76.504
	S532.133,116.374,529.896,114.405z"/>
<path fill="#312F2D" d="M519.532,116.173c2.437-1.281,5.305-2.176,5.305-2.176s-0.694,0.99-3.866,7.361
	c-3.174,6.373-21.158,24.644-21.158,24.644c2.33-9.973,15.16-26.817,15.16-26.817S517.096,117.454,519.532,116.173z"/>
<g>
	<path opacity="0.53" fill="#919AB8" enable-background="new    " d="M433.706,189.171c3.406,2.565,6.511,5.434,9.162,8.541
		c0.841-3.567,1.27-7.413,1.191-11.254c-3.253-2.622-6.853-4.921-10.661-6.789C433.779,182.819,433.848,186.02,433.706,189.171z"/>
	<path opacity="0.53" fill="#919AB8" enable-background="new    " d="M432.352,200.1c1.789,1.809,3.488,3.713,5.061,5.751
		c0.133-0.094,0.268-0.179,0.4-0.272c1.319-0.93,2.621-1.884,3.906-2.846c-0.16-0.11-0.263-0.3-0.175-0.538
		c0.382-1.058,0.721-2.157,1.022-3.283c-2.567-3.103-5.591-5.974-8.929-8.542c-0.013,0.287-0.028,0.574-0.051,0.862
		C433.37,194.167,432.972,197.145,432.352,200.1z"/>
	<path opacity="0.53" fill="#919AB8" enable-background="new    " d="M428.386,211.894c2.76-1.774,5.5-3.597,8.206-5.481
		c-1.405-1.819-2.91-3.528-4.494-5.165C431.253,204.912,430.044,208.507,428.386,211.894z"/>
	<path opacity="0.53" fill="#919AB8" enable-background="new    " d="M420.471,201.221c2.854,2.997,5.331,6.285,7.267,9.806
		c1.608-3.373,2.754-6.954,3.549-10.59c-2.923-2.9-6.12-5.481-9.537-7.757c-0.221,2.634-0.606,5.245-1.113,7.78
		C420.587,200.713,420.528,200.972,420.471,201.221z"/>
	<path opacity="0.53" fill="#919AB8" enable-background="new    " d="M431.521,199.265c0.538-2.702,0.886-5.435,1.08-8.122
		c0.04-0.494,0.069-0.985,0.097-1.485c-3.382-2.501-7.068-4.671-10.936-6.428c0.249,2.749,0.263,5.542,0.081,8.323
		C425.303,193.816,428.552,196.387,431.521,199.265z"/>
	<path opacity="0.53" fill="#919AB8" enable-background="new    " d="M421.641,182.097c3.921,1.732,7.663,3.888,11.104,6.37
		c0.11-3.099-0.001-6.232-0.419-9.315c-3.865-1.791-7.934-3.112-12.073-3.868C420.915,177.49,421.369,179.775,421.641,182.097z"/>
	<path opacity="0.53" fill="#919AB8" enable-background="new    " d="M418.815,212.204c1.078,1.221,1.881,2.598,2.558,4.048
		c1.813-1.09,3.615-2.212,5.407-3.344c0.198-0.365,0.392-0.731,0.576-1.096c-0.177,0.005-0.354-0.067-0.454-0.257
		c-1.793-3.288-4.06-6.362-6.681-9.191c-0.633,2.746-1.458,5.534-2.526,8.24C418.071,211.127,418.453,211.657,418.815,212.204z"/>
	<path opacity="0.53" fill="#919AB8" enable-background="new    " d="M413.587,218.43c0.288,0.625,0.561,1.26,0.798,1.916
		c2.056-1.167,4.104-2.355,6.14-3.58c-0.425-0.931-0.899-1.828-1.476-2.665c-0.109-0.013-0.22-0.068-0.299-0.197
		c-0.241-0.384-0.506-0.756-0.756-1.135c-0.186-0.208-0.369-0.413-0.578-0.603c-0.145-0.134-0.169-0.31-0.134-0.473
		c-0.01-0.015-0.018-0.023-0.026-0.036C416.247,214.028,415.038,216.309,413.587,218.43z"/>
	<path opacity="0.53" fill="#919AB8" enable-background="new    " d="M419.649,200.373c0.044-0.231,0.096-0.458,0.136-0.686
		c0.479-2.49,0.825-5.057,1.021-7.633c-3.339-2.158-6.891-4.004-10.594-5.575c0.202,2.092,0.235,4.21,0.153,6.333
		C413.723,195.034,416.859,197.564,419.649,200.373z"/>
	<path opacity="0.53" fill="#919AB8" enable-background="new    " d="M410.079,185.371c3.772,1.567,7.396,3.411,10.805,5.558
		c0.154-2.719,0.12-5.461-0.16-8.157c-3.864-1.669-7.903-2.901-11.987-3.637C409.385,181.148,409.817,183.247,410.079,185.371z"/>
	<path opacity="0.53" fill="#919AB8" enable-background="new    " d="M409.426,201.468c2.798,2.485,5.36,5.222,7.599,8.202
		c1.02-2.677,1.794-5.437,2.384-8.144c-2.723-2.802-5.796-5.335-9.098-7.56C410.163,196.488,409.843,199.011,409.426,201.468z"/>
	<path opacity="0.53" fill="#919AB8" enable-background="new    " d="M407.58,209.813c2.165,2.323,4.099,4.87,5.527,7.629
		c1.382-2.095,2.531-4.354,3.483-6.685c-2.167-2.956-4.649-5.673-7.371-8.137c-0.112,0.605-0.23,1.212-0.354,1.812
		C408.497,206.22,408.069,208.02,407.58,209.813z"/>
	<path opacity="0.53" fill="#919AB8" enable-background="new    " d="M394.378,205.972c0.401-1.697,0.738-3.396,1.038-5.102
		c-2.666-1.829-5.489-3.514-8.429-4.951c-0.184,0.968-0.403,1.928-0.646,2.89c-0.1,0.395-0.206,0.788-0.31,1.188
		C388.996,201.72,391.803,203.727,394.378,205.972z"/>
	<path opacity="0.53" fill="#919AB8" enable-background="new    " d="M384.812,208.083c2.429,2.182,4.75,4.591,6.866,7.176
		c0.938-2.707,1.745-5.452,2.432-8.223c-2.559-2.279-5.364-4.317-8.333-6.069c-0.566,2.127-1.175,4.256-1.823,6.363
		C384.241,207.585,384.529,207.837,384.812,208.083z"/>
	<path opacity="0.53" fill="#919AB8" enable-background="new    " d="M387.16,194.914c2.942,1.417,5.77,3.071,8.439,4.877
		c0.324-2.013,0.572-4.026,0.748-6.048c-2.824-1.451-5.769-2.683-8.796-3.7C387.58,191.671,387.429,193.3,387.16,194.914z"/>
	<path opacity="0.53" fill="#919AB8" enable-background="new    " d="M369.904,216.05c2.411,2.354,4.729,4.966,6.789,7.756
		c1.203-2.628,2.317-5.301,3.343-8.003c-2.713-2.949-5.832-5.584-9.217-7.804c-0.989,2.032-1.991,4.05-3.027,6.063
		C368.515,214.716,369.222,215.38,369.904,216.05z"/>
	<path opacity="0.53" fill="#919AB8" enable-background="new    " d="M363.541,221.834c3.296,3.407,6.164,7.171,8.428,11.246
		c1.517-2.697,2.925-5.448,4.237-8.241c-2.007-2.781-4.274-5.371-6.623-7.72c-0.728-0.723-1.479-1.449-2.256-2.16
		c-0.923,1.765-1.855,3.524-2.845,5.264C364.177,220.768,363.857,221.303,363.541,221.834z"/>
	<path opacity="0.53" fill="#919AB8" enable-background="new    " d="M380.418,214.754c0.233-0.625,0.473-1.249,0.692-1.88
		c0.607-1.725,1.17-3.469,1.709-5.215c-2.681-2.292-5.705-4.48-8.976-6.126c-0.562,1.329-1.172,2.643-1.791,3.928
		c-0.267,0.551-0.537,1.094-0.806,1.65C374.602,209.288,377.702,211.87,380.418,214.754z"/>
	<path opacity="0.53" fill="#919AB8" enable-background="new    " d="M383.138,206.641c0.623-2.047,1.201-4.1,1.753-6.16
		c-2.977-1.67-6.103-3.057-9.31-4.097c-0.341,1.438-0.803,2.855-1.359,4.242C377.464,202.249,380.469,204.386,383.138,206.641z"/>
	<path opacity="0.53" fill="#919AB8" enable-background="new    " d="M353.196,247.182c3.262-1.107,6.515-2.247,9.746-3.433
		c-1.525-3.991-3.386-8.053-5.619-11.907c-1.792,2.675-3.664,5.314-5.599,7.895C352.493,242.106,353.005,244.591,353.196,247.182z"
		/>
	<path opacity="0.53" fill="#919AB8" enable-background="new    " d="M357.926,230.915c2.376,4.024,4.346,8.288,5.949,12.479
		c3.359-1.23,6.7-2.506,10.021-3.835c-0.575-1.52-1.254-2.995-1.991-4.443c-1.095,1.873-2.223,3.729-3.414,5.551
		c-0.348,0.532-1.131-0.032-0.784-0.567c1.293-1.968,2.518-3.976,3.686-6.006c-2.221-4.131-5.069-7.938-8.366-11.365
		C361.398,225.496,359.698,228.224,357.926,230.915z"/>
	<path opacity="0.53" fill="#919AB8" enable-background="new    " d="M349.133,219.471c3.157,3.102,5.893,6.69,8.243,10.526
		c1.722-2.617,3.374-5.287,4.953-7.986c-3.006-3.025-6.376-5.717-9.971-8.046C351.33,215.824,350.242,217.652,349.133,219.471z"/>
	<path opacity="0.53" fill="#919AB8" enable-background="new    " d="M367.044,213.401c1.004-1.969,1.983-3.949,2.952-5.929
		c-3.705-2.329-7.706-4.137-11.839-5.286c-0.592,1.363-1.21,2.715-1.847,4.059C360.24,208.027,363.84,210.593,367.044,213.401z"/>
	<path opacity="0.53" fill="#919AB8" enable-background="new    " d="M344.259,226.909c3.041,3.518,5.509,7.439,7.085,11.736
		c1.881-2.531,3.69-5.106,5.432-7.722c-2.317-3.861-5.027-7.488-8.168-10.605C347.219,222.549,345.772,224.745,344.259,226.909z"/>
	<path opacity="0.53" fill="#919AB8" enable-background="new    " d="M362.849,221.127c0.235-0.412,0.483-0.82,0.72-1.238
		c1.051-1.844,2.04-3.716,3.011-5.602c-3.18-2.816-6.769-5.4-10.693-7.177c-0.975,2.019-1.993,4.016-3.065,5.977
		C356.434,215.419,359.815,218.108,362.849,221.127z"/>
	<path opacity="0.53" fill="#919AB8" enable-background="new    " d="M343.426,250.648c-0.552-4.626-2.655-10.987-5.45-14.58
		c-2.507,3.667-6.141,8.907-8.961,12.373c0.878,2.909,1.606,5.862,2.201,8.819c4.122-1.556,8.227-3.139,12.304-4.799
		c0.004-0.109-0.007-0.221-0.004-0.339L343.426,250.648z"/>
	<path opacity="0.53" fill="#919AB8" enable-background="new    " d="M330.567,223.871c2.813,3.058,5.351,6.364,7.564,9.672
		c1.693-2.138,3.323-4.321,4.893-6.541c-2.704-3.042-5.847-5.756-9.197-8.153C332.804,220.551,331.709,222.228,330.567,223.871z"/>
	<path opacity="0.53" fill="#919AB8" enable-background="new    " d="M310.983,251.665c0.013,0.066,0.021,0.138,0.036,0.204
		c1.153-1.545,2.285-3.11,3.4-4.682c0.773-1.095,1.533-2.197,2.287-3.301c-1.304-3.191-3.012-6.187-5.085-8.793
		c-1.209,2.233-2.507,4.413-3.885,6.559C309.206,244.847,310.239,248.277,310.983,251.665z"/>
	<path opacity="0.53" fill="#919AB8" enable-background="new    " d="M316.882,226.37c1.913,2.849,5.254,4.697,6.313,7.96
		c1.944-2.421,4.244-6.72,6.119-9.196c-1.575-3.213-4.004-4.446-6.702-6.738C321.43,220.665,318.254,224.205,316.882,226.37z"/>
	<path opacity="0.53" fill="#919AB8" enable-background="new    " d="M301.881,256.194c-0.085,2.705-0.376,5.459-0.848,8.194
		c3.181-3.729,6.245-7.557,9.193-11.474c-0.072-0.34-0.139-0.679-0.209-1.017c-0.686-3.124-1.62-6.276-2.926-9.252
		c-1.688,2.571-3.5,5.08-5.395,7.531C301.911,252.196,301.942,254.236,301.881,256.194z"/>
	<path opacity="0.53" fill="#919AB8" enable-background="new    " d="M316.119,262.354c0.924-0.208,1.844-0.433,2.77-0.648
		c0.402-0.724,0.775-1.471,1.129-2.224C318.729,260.455,317.427,261.414,316.119,262.354z"/>
	<path opacity="0.53" fill="#919AB8" enable-background="new    " d="M282.317,270.766c-0.362,1.104-0.768,2.193-1.228,3.264
		c1.975-0.613,3.947-1.226,5.928-1.836c1.25-0.377,2.495-0.782,3.739-1.168c0.907-3.046,1.475-6.181,1.803-9.239
		c0.039-0.367,0.08-0.739,0.113-1.12C289.366,264.167,285.896,267.536,282.317,270.766z"/>
	<path opacity="0.53" fill="#919AB8" enable-background="new    " d="M293.547,261.796c-0.321,2.944-0.856,5.953-1.685,8.883
		c1.689-0.532,3.385-1.061,5.07-1.588c0.949-1.061,1.888-2.141,2.826-3.219c0.567-2.786,0.923-5.609,1.08-8.407
		c0.109-1.988,0.139-4.089-0.02-6.173c-2.239,2.822-4.605,5.565-7.068,8.224C293.698,260.288,293.628,261.048,293.547,261.796z"/>
	<path opacity="0.53" fill="#919AB8" enable-background="new    " d="M320.615,256.636c2.537-2.709,4.972-5.506,7.31-8.363
		c-1.063-3.412-2.348-6.742-3.937-9.932c-0.339-0.672-0.698-1.355-1.078-2.036c-1.712,2.652-3.456,5.291-5.245,7.89
		c0.115,0.299,0.227,0.588,0.333,0.886C319.335,248.755,320.268,252.668,320.615,256.636z"/>
	<path opacity="0.53" fill="#919AB8" enable-background="new    " d="M343.597,226.179c1.496-2.148,2.93-4.337,4.305-6.559
		c-3.147-2.994-6.731-5.448-10.772-7.152c-0.819,1.895-1.758,3.741-2.797,5.541C337.703,220.417,340.869,223.14,343.597,226.179z"/>
	<path opacity="0.53" fill="#919AB8" enable-background="new    " d="M319.759,257.512c-0.217-4.22-1.113-8.525-2.625-12.553
		c-0.625,0.905-1.251,1.82-1.889,2.723c-1.299,1.833-2.631,3.645-3.98,5.447c0.693,3.559,1.103,7.247,0.996,10.925
		c0.794-0.269,1.592-0.554,2.388-0.832L319.759,257.512z"/>
	<path opacity="0.53" fill="#919AB8" enable-background="new    " d="M300.663,266.292c-0.118,0.576-0.229,1.152-0.37,1.726
		c3.666-1.181,7.325-2.385,10.972-3.621c0.131-3.434-0.198-6.883-0.797-10.22C307.324,258.318,304.068,262.358,300.663,266.292z"/>
	<path opacity="0.53" fill="#919AB8" enable-background="new    " d="M320.694,257.927c0.058,1.045,0.086,2.107,0.053,3.167
		c3.185-1.137,6.361-2.282,9.526-3.469c-0.549-2.771-1.221-5.527-2.021-8.248C325.836,252.305,323.323,255.15,320.694,257.927z"/>
	<path opacity="0.53" fill="#919AB8" enable-background="new    " d="M338.687,234.38c2.348,3.601,5.067,8.414,5.604,13.156
		c2.19-2.601,4.307-5.254,6.348-7.957c-1.496-4.343-3.928-8.302-6.957-11.849C342.078,229.991,340.412,232.211,338.687,234.38z"/>
	<path opacity="0.53" fill="#919AB8" enable-background="new    " d="M344.386,248.903c0.006,0.387-0.002,0.776-0.029,1.167
		c2.633-0.841,5.259-1.693,7.881-2.574c-0.146-2.368-0.578-4.631-1.237-6.808C348.88,243.481,346.671,246.229,344.386,248.903z"/>
	<path opacity="0.53" fill="#919AB8" enable-background="new    " d="M372.512,234.078c0.872,1.662,1.652,3.366,2.311,5.107
		c2.411-0.963,4.817-1.956,7.205-2.968c-1.092-3.721-2.934-7.233-5.174-10.486C375.512,228.561,374.069,231.35,372.512,234.078z"/>
	<path opacity="0.53" fill="#919AB8" enable-background="new    " d="M381.163,215.571c2.604,2.892,4.835,6.058,6.55,9.409
		c1.325-2.815,2.515-5.698,3.571-8.638c-2.166-2.697-4.562-5.205-7.079-7.473c-0.185-0.168-0.382-0.337-0.574-0.51
		c-0.418,1.339-0.851,2.668-1.305,3.991C381.952,213.427,381.56,214.5,381.163,215.571z"/>
	<path opacity="0.53" fill="#919AB8" enable-background="new    " d="M377.335,224.697c2.425,3.441,4.42,7.164,5.611,11.126
		c2.346-1.004,4.681-2.038,7.007-3.096c-0.6-1.808-1.446-3.509-2.449-5.143c-1.232,2.458-2.543,4.878-3.954,7.212
		c-0.324,0.541-1.106-0.025-0.784-0.556c1.58-2.622,3.042-5.338,4.395-8.127c-1.648-3.371-3.828-6.566-6.397-9.494
		C379.717,219.352,378.573,222.042,377.335,224.697z"/>
	<path opacity="0.53" fill="#919AB8" enable-background="new    " d="M397.616,186.375c4.087,1.504,8.07,3.462,11.789,5.821
		c0.056-2.07-0.016-4.127-0.242-6.152c-3.752-1.531-7.667-2.779-11.688-3.737C397.562,183.662,397.604,185.017,397.616,186.375z"/>
	<path opacity="0.53" fill="#919AB8" enable-background="new    " d="M400.646,203.507c2.08,1.652,4.186,3.488,6.14,5.49
		c0.411-1.558,0.778-3.11,1.099-4.647c0.17-0.83,0.327-1.664,0.479-2.507c-3.371-2.931-7.099-5.477-11.077-7.609
		c-0.189,2.062-0.462,4.112-0.806,6.165C397.918,201.401,399.306,202.44,400.646,203.507z"/>
	<path opacity="0.53" fill="#919AB8" enable-background="new    " d="M408.561,200.701c0.394-2.421,0.679-4.897,0.799-7.365
		c-3.698-2.394-7.665-4.388-11.738-5.921c-0.012,1.915-0.091,3.826-0.243,5.745C401.387,195.27,405.15,197.79,408.561,200.701z"/>
	<path opacity="0.53" fill="#919AB8" enable-background="new    " d="M395.193,206.696c3.472,3.166,6.5,6.749,8.885,10.648
		c0.929-2.38,1.729-4.81,2.412-7.256c-2.188-2.287-4.597-4.361-6.947-6.194c-1.052-0.821-2.139-1.623-3.247-2.403
		C395.981,203.232,395.615,204.971,395.193,206.696z"/>
	<path opacity="0.53" fill="#919AB8" enable-background="new    " d="M389.175,228.498c0.666,1.228,1.238,2.491,1.685,3.814
		c2.431-1.108,4.844-2.248,7.244-3.424c0.113-0.165,0.222-0.323,0.33-0.489c-1.545-3.984-3.796-7.729-6.452-11.172
		c-1.108,3.005-2.349,5.958-3.73,8.837c0.326,0.696,0.646,1.388,0.929,2.095C389.233,228.282,389.22,228.394,389.175,228.498z"/>
	<path opacity="0.53" fill="#919AB8" enable-background="new    " d="M392.383,216.138c2.729,3.456,5.066,7.222,6.708,11.249
		c1.761-2.818,3.259-5.809,4.526-8.884c-2.301-3.923-5.271-7.538-8.695-10.724C394.203,210.592,393.362,213.392,392.383,216.138z"/>
	<path opacity="0.53" fill="#919AB8" enable-background="new    " d="M399.816,228.035c2.514-1.247,5.009-2.529,7.49-3.844
		c-0.019-0.149,0.024-0.307,0.178-0.435c1.917-1.569,3.56-3.399,4.982-5.396c-1.313-2.681-3.143-5.16-5.203-7.428
		c-0.722,2.514-1.565,5.01-2.552,7.461c0.971,1.69,1.828,3.444,2.545,5.243c0.226,0.564-0.691,0.966-0.919,0.395
		c-0.604-1.518-1.329-3.004-2.125-4.45C402.969,222.506,401.512,225.348,399.816,228.035z"/>
	<path opacity="0.53" fill="#919AB8" enable-background="new    " d="M410.046,222.707c1.154-0.625,2.317-1.231,3.46-1.877
		c-0.173-0.492-0.372-0.978-0.58-1.46C412.053,220.543,411.089,221.662,410.046,222.707z"/>
	<path opacity="0.53" fill="#919AB8" enable-background="new    " d="M442.634,202.033c3.237-2.47,6.387-5.031,9.453-7.674
		c-2.055-2.504-4.431-4.884-7.025-7.065c0,3.889-0.503,7.757-1.419,11.349c0.166,0.208,0.35,0.409,0.51,0.608
		c0.382,0.482-0.409,1.091-0.791,0.609c-0.013-0.017-0.022-0.029-0.032-0.046C443.112,200.573,442.882,201.318,442.634,202.033z"/>
	<path opacity="0.45" fill="#919AB8" enable-background="new    " d="M438.887,182.985c-1.785-1.137-3.64-2.18-5.55-3.115
		c0.274,2.266,0.384,4.558,0.372,6.839c0.053-0.04,0.108-0.071,0.162-0.109C435.556,185.415,437.219,184.192,438.887,182.985z"/>
	<path opacity="0.45" fill="#919AB8" enable-background="new    " d="M430.898,188.64c-2.894-1.982-5.976-3.751-9.195-5.215
		c0.25,2.756,0.26,5.55,0.08,8.323c0.761,0.499,1.505,1.022,2.245,1.543C426.33,191.769,428.619,190.213,430.898,188.64z"/>
	<path opacity="0.45" fill="#919AB8" enable-background="new    " d="M432.711,187.399c0.04-2.688-0.081-5.383-0.44-8.047
		c-3.866-1.792-7.938-3.12-12.071-3.875c0.66,2.213,1.112,4.5,1.381,6.821c3.582,1.583,7.002,3.525,10.193,5.745
		C432.084,187.825,432.401,187.615,432.711,187.399z"/>
	<path opacity="0.45" fill="#919AB8" enable-background="new    " d="M420.39,195.681c0.143-1.138,0.272-2.279,0.36-3.434
		c-3.34-2.148-6.896-3.996-10.598-5.574c0.202,2.099,0.239,4.218,0.155,6.339c2.285,1.509,4.458,3.181,6.498,4.967
		C418.002,197.213,419.198,196.45,420.39,195.681z"/>
	<path opacity="0.45" fill="#919AB8" enable-background="new    " d="M410.025,185.571c3.771,1.567,7.391,3.413,10.801,5.556
		c0.154-2.725,0.121-5.46-0.162-8.158c-3.861-1.667-7.896-2.912-11.985-3.635C409.327,181.349,409.759,183.438,410.025,185.571z"/>
	<path opacity="0.45" fill="#919AB8" enable-background="new    " d="M415.933,198.524c-1.796-1.553-3.69-3.024-5.677-4.359
		c-0.15,2.523-0.47,5.037-0.889,7.503c0.207,0.184,0.406,0.381,0.617,0.57C411.98,201.021,413.962,199.781,415.933,198.524z"/>
	<path opacity="0.45" fill="#919AB8" enable-background="new    " d="M394.323,206.171c0.399-1.694,0.742-3.393,1.035-5.101
		c-2.661-1.828-5.482-3.513-8.423-4.959c-0.188,0.968-0.409,1.938-0.649,2.902c-0.098,0.39-0.21,0.784-0.313,1.179
		C388.94,201.92,391.745,203.928,394.323,206.171z"/>
	<path opacity="0.45" fill="#919AB8" enable-background="new    " d="M394.056,207.238c-2.565-2.282-5.366-4.326-8.337-6.069
		c-0.566,2.126-1.176,4.246-1.824,6.362c0.287,0.252,0.579,0.5,0.856,0.752c1.902,1.71,3.732,3.559,5.449,5.512
		c0.796-0.439,1.587-0.889,2.379-1.337C393.115,210.727,393.617,208.993,394.056,207.238z"/>
	<path opacity="0.45" fill="#919AB8" enable-background="new    " d="M387.103,195.116c2.939,1.416,5.769,3.07,8.442,4.877
		c0.323-2.017,0.57-4.034,0.744-6.051c-2.819-1.451-5.769-2.681-8.796-3.698C387.524,191.872,387.371,193.499,387.103,195.116z"/>
	<path opacity="0.45" fill="#919AB8" enable-background="new    " d="M379.977,216.005c-2.711-2.949-5.831-5.584-9.214-7.805
		c-0.988,2.031-1.994,4.048-3.027,6.062c0.727,0.655,1.432,1.316,2.115,1.98c1.765,1.731,3.477,3.596,5.078,5.569
		c0.519-0.189,1.04-0.378,1.562-0.566c0.586-0.315,1.174-0.622,1.759-0.931C378.85,218.885,379.426,217.447,379.977,216.005z"/>
	<path opacity="0.45" fill="#919AB8" enable-background="new    " d="M369.528,217.321c-0.723-0.733-1.479-1.453-2.259-2.163
		c-0.917,1.767-1.855,3.525-2.843,5.263c-0.306,0.539-0.628,1.082-0.938,1.613c0.924,0.957,1.803,1.952,2.659,2.968
		c2.591-0.941,5.181-1.883,7.771-2.821C372.519,220.471,371.046,218.84,369.528,217.321z"/>
	<path opacity="0.45" fill="#919AB8" enable-background="new    " d="M380.359,214.956c0.234-0.625,0.473-1.25,0.696-1.883
		c0.608-1.724,1.169-3.469,1.709-5.213c-2.682-2.291-5.705-4.482-8.974-6.126c-0.566,1.327-1.177,2.63-1.798,3.923
		c-0.264,0.545-0.531,1.098-0.8,1.652C374.542,209.488,377.647,212.071,380.359,214.956z"/>
	<path opacity="0.45" fill="#919AB8" enable-background="new    " d="M383.084,206.833c0.617-2.041,1.197-4.094,1.751-6.153
		c-2.978-1.671-6.101-3.06-9.31-4.097c-0.34,1.438-0.805,2.855-1.358,4.241C377.406,202.44,380.409,204.586,383.084,206.833z"/>
	<path opacity="0.45" fill="#919AB8" enable-background="new    " d="M365.156,225.362c-0.705-0.833-1.429-1.647-2.188-2.442
		c-0.82,1.403-1.668,2.776-2.528,4.151C362.019,226.505,363.585,225.936,365.156,225.362z"/>
	<path opacity="0.45" fill="#919AB8" enable-background="new    " d="M362.277,222.213c-3.009-3.028-6.377-5.728-9.976-8.049
		c-1.032,1.858-2.117,3.688-3.227,5.507c2.712,2.654,5.109,5.684,7.219,8.914c0.896-0.329,1.789-0.654,2.679-0.975
		C360.1,225.824,361.21,224.026,362.277,222.213z"/>
	<path opacity="0.45" fill="#919AB8" enable-background="new    " d="M366.989,213.6c1.004-1.969,1.979-3.947,2.948-5.934
		c-3.705-2.321-7.706-4.13-11.835-5.281c-0.593,1.365-1.208,2.717-1.845,4.061C360.185,208.228,363.784,210.792,366.989,213.6z"/>
	<path opacity="0.45" fill="#919AB8" enable-background="new    " d="M355.336,228.927c-1.992-3.034-4.246-5.891-6.781-8.418
		c-1.391,2.24-2.839,4.435-4.349,6.597c1.261,1.458,2.404,3,3.449,4.589C350.212,230.779,352.775,229.854,355.336,228.927z"/>
	<path opacity="0.45" fill="#919AB8" enable-background="new    " d="M362.786,221.328c0.237-0.414,0.485-0.818,0.724-1.237
		c1.045-1.845,2.041-3.715,3.01-5.602c-3.179-2.814-6.769-5.407-10.693-7.175c-0.976,2.018-1.991,4.013-3.063,5.976
		C356.373,215.619,359.759,218.31,362.786,221.328z"/>
	<path opacity="0.45" fill="#919AB8" enable-background="new    " d="M330.51,224.071c2.809,3.057,5.345,6.358,7.563,9.673
		c1.691-2.142,3.324-4.329,4.891-6.551c-2.704-3.034-5.847-5.746-9.192-8.152C332.746,220.751,331.656,222.428,330.51,224.071z"/>
	<path opacity="0.45" fill="#919AB8" enable-background="new    " d="M401.185,182.497c2.655,0.751,5.259,1.631,7.793,2.644
		c-0.291-2.044-0.757-4.051-1.418-5.986c-1.648,0.87-3.294,1.737-4.933,2.597C402.149,182.009,401.662,182.247,401.185,182.497z"/>
	<path opacity="0.45" fill="#919AB8" enable-background="new    " d="M408.967,178.413c3.936,0.711,7.828,1.865,11.563,3.425
		c-0.292-2.232-0.761-4.43-1.435-6.553c-1.162-0.177-2.33-0.308-3.503-0.398C413.385,176.069,411.174,177.246,408.967,178.413z"/>
	<path opacity="0.45" fill="#919AB8" enable-background="new    " d="M387.802,189.315c2.945,0.981,5.817,2.173,8.577,3.566
		c0.141-1.875,0.2-3.746,0.198-5.619c-0.946-0.337-1.899-0.645-2.851-0.934C391.754,187.334,389.779,188.333,387.802,189.315z"/>
	<path opacity="0.45" fill="#919AB8" enable-background="new    " d="M345.299,209.176c2.278,1.059,4.506,2.25,6.648,3.588
		c1.04-1.92,2.033-3.864,2.984-5.828c-0.833-0.352-1.681-0.644-2.547-0.912C350.03,207.088,347.667,208.133,345.299,209.176z"/>
	<path opacity="0.45" fill="#919AB8" enable-background="new    " d="M381.04,192.65c1.74,0.581,3.459,1.258,5.137,2.024
		c0.24-1.564,0.361-3.14,0.311-4.714C384.673,190.863,382.856,191.76,381.04,192.65z"/>
	<path opacity="0.45" fill="#919AB8" enable-background="new    " d="M330.422,215.654c1.031,0.636,2.048,1.295,3.05,1.992
		c0.802-1.391,1.521-2.814,2.19-4.259C333.917,214.142,332.171,214.904,330.422,215.654z"/>
	<path opacity="0.45" fill="#919AB8" enable-background="new    " d="M324.34,218.236c1.916,1.571,3.756,3.284,5.491,5.12
		c1.103-1.598,2.167-3.214,3.153-4.865c-1.192-0.835-2.415-1.618-3.646-2.373C327.675,216.832,326.004,217.527,324.34,218.236z"/>
	<path opacity="0.45" fill="#919AB8" enable-background="new    " d="M375.797,195.18c-0.021,0.146-0.037,0.302-0.065,0.458
		c3.226,1.038,6.367,2.417,9.36,4.08c0.356-1.343,0.671-2.697,0.92-4.048c-2.022-0.944-4.107-1.752-6.225-2.408
		C378.461,193.905,377.131,194.542,375.797,195.18z"/>
	<path opacity="0.45" fill="#919AB8" enable-background="new    " d="M368.435,198.669c1.659,0.42,3.281,1.007,4.848,1.733
		c0.53-1.347,0.983-2.714,1.305-4.106c-0.242-0.074-0.48-0.136-0.722-0.201C372.058,196.955,370.248,197.822,368.435,198.669z"/>
	<path opacity="0.45" fill="#919AB8" enable-background="new    " d="M348.365,218.987c1.072-1.765,2.123-3.542,3.122-5.356
		c-2.373-1.481-4.851-2.781-7.385-3.92c-1.903,0.834-3.81,1.668-5.714,2.496C342.092,213.902,345.417,216.212,348.365,218.987z"/>
	<path opacity="0.45" fill="#919AB8" enable-background="new    " d="M360.748,202.22c3.342,1.146,6.583,2.674,9.618,4.562
		c0.133-0.262,0.26-0.531,0.394-0.799c0.74-1.531,1.49-3.085,2.157-4.671c-1.902-0.884-3.882-1.556-5.923-1.958
		C364.92,200.325,362.831,201.27,360.748,202.22z"/>
	<path opacity="0.45" fill="#919AB8" enable-background="new    " d="M312.053,234.417c2.131,2.688,3.82,5.745,5.14,8.913
		c1.746-2.565,3.451-5.162,5.125-7.773c-1.821-3.082-4.092-6.002-6.967-8.063C314.351,229.844,313.245,232.154,312.053,234.417z"/>
	<path opacity="0.45" fill="#919AB8" enable-background="new    " d="M343.547,226.377c1.494-2.145,2.926-4.331,4.297-6.558
		c-3.145-2.993-6.729-5.453-10.769-7.152c-0.826,1.894-1.76,3.741-2.804,5.542C337.65,220.62,340.811,223.338,343.547,226.377z"/>
	<path opacity="0.45" fill="#919AB8" enable-background="new    " d="M323.476,235.563c0.252,0.435,0.501,0.871,0.73,1.308
		c0.945,1.773,3.768,8.603,4.524,10.468l8.658-12.38c-0.354-0.447-0.324-0.862-0.658-1.253c-2.201-2.646-3.891-5.664-6.494-8.109
		L323.476,235.563z"/>
	<path opacity="0.45" fill="#919AB8" enable-background="new    " d="M346.706,232.039c-0.937-1.423-1.963-2.801-3.083-4.111
		c-1.603,2.262-3.27,4.481-4.996,6.653c0.061,0.093,0.125,0.201,0.188,0.301C341.446,233.939,344.075,232.987,346.706,232.039z"/>
	<path opacity="0.45" fill="#919AB8" enable-background="new    " d="M384.149,209.065c-0.188-0.171-0.386-0.337-0.573-0.508
		c-0.422,1.339-0.854,2.667-1.308,3.99c-0.371,1.08-0.762,2.153-1.163,3.215c0.604,0.675,1.185,1.372,1.751,2.069
		c2.157-1.165,4.316-2.346,6.465-3.542C387.681,212.442,385.948,210.689,384.149,209.065z"/>
	<path opacity="0.45" fill="#919AB8" enable-background="new    " d="M397.562,186.573c4.086,1.505,8.063,3.462,11.785,5.824
		c0.059-2.072-0.018-4.13-0.24-6.153c-3.756-1.541-7.663-2.779-11.689-3.738C397.508,183.862,397.548,185.215,397.562,186.573z"/>
	<path opacity="0.45" fill="#919AB8" enable-background="new    " d="M408.306,202.045c-3.367-2.94-7.099-5.477-11.076-7.61
		c-0.19,2.054-0.46,4.11-0.806,6.162c1.437,1.005,2.83,2.045,4.165,3.102c0.977,0.779,1.955,1.6,2.926,2.451
		c1.515-0.9,3.017-1.823,4.527-2.735C408.13,202.962,408.223,202.505,408.306,202.045z"/>
	<path opacity="0.45" fill="#919AB8" enable-background="new    " d="M408.499,200.901c0.396-2.422,0.678-4.896,0.805-7.368
		c-3.698-2.392-7.668-4.385-11.743-5.919c-0.007,1.907-0.089,3.825-0.238,5.746C401.327,195.469,405.092,197.993,408.499,200.901z"
		/>
	<path opacity="0.45" fill="#919AB8" enable-background="new    " d="M399.488,204.093c-1.05-0.82-2.136-1.623-3.246-2.411
		c-0.314,1.751-0.685,3.487-1.103,5.213c0.914,0.84,1.801,1.701,2.65,2.595c1.61-0.934,3.223-1.866,4.828-2.815
		C401.578,205.768,400.525,204.904,399.488,204.093z"/>
	<path opacity="0.45" fill="#919AB8" enable-background="new    " d="M396.913,210c-0.666-0.687-1.345-1.364-2.051-2.023
		c-0.323,1.27-0.678,2.529-1.054,3.789C394.842,211.175,395.88,210.595,396.913,210z"/>
</g>
<g>
	<path opacity="0.53" fill="#919AB8" enable-background="new    " d="M174.131,308.33c3.292,2.957,4.771,3.509,7.29,7.236
		c3.902-1.835,4.547-2.518,6.007-5.285c-3.139-2.889-6.625-5.428-10.318-7.596C176.165,304.589,175.158,306.465,174.131,308.33z"/>
	<path opacity="0.53" fill="#919AB8" enable-background="new    " d="M187.908,309.378c0.217-0.422,0.446-0.841,0.663-1.269
		c0.969-1.889,1.873-3.803,2.761-5.729c-3.304-2.673-7.002-5.096-11.002-6.697c-0.885,2.061-1.812,4.1-2.797,6.107
		C181.244,303.959,184.742,306.496,187.908,309.378z"/>
	<path opacity="0.53" fill="#919AB8" enable-background="new    " d="M155.781,313.549c2.944,2.932,5.625,6.122,7.984,9.328
		c1.597-2.211,3.128-4.464,4.597-6.752c-2.835-2.919-6.098-5.49-9.551-7.736C157.866,310.135,156.846,311.858,155.781,313.549z"/>
	<path opacity="0.53" fill="#919AB8" enable-background="new    " d="M136.748,336.117c0.01,0.066,1.157-2.613,1.235-0.721
		c1.802-1.139,1.693-0.682,2.861-2.214c0.812-1.067,1.609-2.142,2.4-3.22c-1.191-3.233-2.172-5.141-4.153-7.818
		c-1.882,1.785-3.888,2.232-5.341,4.33C135.109,329.72,136.121,332.707,136.748,336.117z"/>
	<path opacity="0.53" fill="#919AB8" enable-background="new    " d="M168.9,315.279c1.399-2.213,2.733-4.464,4.01-6.745
		c-3.278-2.853-6.968-5.145-11.08-6.667c-0.732,1.928-1.592,3.814-2.549,5.66C162.755,309.783,166.039,312.364,168.9,315.279z"/>
	<path opacity="0.45" fill="#919AB8" enable-background="new    " d="M194.41,305.278c-0.755-0.7-1.543-1.385-2.352-2.06
		c-0.839,1.805-1.697,3.602-2.608,5.384c-0.282,0.552-0.578,1.106-0.866,1.651c0.967,0.914,1.889,1.87,2.791,2.846
		c2.546-1.054,5.092-2.107,7.639-3.162C197.539,308.293,195.996,306.729,194.41,305.278z"/>
	<path opacity="0.45" fill="#919AB8" enable-background="new    " d="M190.4,313.506c-0.742-0.801-1.499-1.584-2.293-2.344
		c-0.758,1.438-1.544,2.848-2.341,4.259C187.315,314.787,188.857,314.148,190.4,313.506z"/>
	<path opacity="0.45" fill="#919AB8" enable-background="new    " d="M187.385,310.487c-3.141-2.893-6.626-5.437-10.324-7.599
		c-0.949,1.901-1.952,3.779-2.979,5.645c2.827,2.531,5.357,5.451,7.606,8.585c0.882-0.368,1.761-0.734,2.633-1.094
		C185.369,314.191,186.401,312.346,187.385,310.487z"/>
	<path opacity="0.45" fill="#919AB8" enable-background="new    " d="M180.749,317.501c-2.125-2.942-4.503-5.698-7.149-8.108
		c-1.291,2.299-2.638,4.555-4.053,6.783c1.324,1.402,2.536,2.892,3.649,4.434C175.711,319.58,178.231,318.541,180.749,317.501z"/>
	<path opacity="0.45" fill="#919AB8" enable-background="new    " d="M187.853,309.58c0.218-0.422,0.45-0.838,0.668-1.268
		c0.961-1.891,1.874-3.803,2.757-5.73c-3.298-2.67-7-5.102-11.002-6.693c-0.882,2.059-1.809,4.096-2.793,6.105
		C181.195,304.16,184.695,306.699,187.853,309.58z"/>
	<path opacity="0.45" fill="#919AB8" enable-background="new    " d="M155.732,313.753c2.943,2.927,5.622,6.113,7.987,9.327
		c1.594-2.214,3.127-4.472,4.595-6.762c-2.838-2.91-6.098-5.479-9.546-7.735C157.817,310.339,156.804,312.061,155.732,313.753z"/>
	<path opacity="0.45" fill="#919AB8" enable-background="new    " d="M143.196,330.17c-1.196-3.242-2.124-5.35-4.105-8.025
		c-1.29,2.189-3.333,3.38-4.782,5.48c1.056,2.531,1.843,5.194,2.435,7.861c1.173-0.473,2.35-0.945,3.524-1.424
		c0.172-0.226,0.354-0.447,0.525-0.676C141.605,332.318,142.4,331.249,143.196,330.17z"/>
	<path opacity="0.45" fill="#919AB8" enable-background="new    " d="M118.845,338.023c-2.861,1.951-3.754,2.191-7.658,4.139
		c0.025,2.16-0.655,3.072-0.946,5.252c2.891-1.14,5.781-2.298,8.668-3.447C119.144,339.924,120.397,341.64,118.845,338.023z"/>
	<path opacity="0.45" fill="#919AB8" enable-background="new    " d="M109.202,348.317c0.269-1.935,0.431-2.523,0.456-4.444
		c-2.561,2.932-5.271,4.375-8.107,7.066c-0.041,0.15-0.088,0.293-0.126,0.441C104.014,350.361,106.608,349.337,109.202,348.317z"/>
	<path opacity="0.45" fill="#919AB8" enable-background="new    " d="M169.845,298.216c2.321,0.958,4.601,2.05,6.803,3.29
		c0.951-1.963,1.859-3.949,2.72-5.953c-0.847-0.315-1.708-0.569-2.584-0.799C174.477,295.92,172.164,297.068,169.845,298.216z"/>
	<path opacity="0.45" fill="#919AB8" enable-background="new    " d="M142.885,312.604c2.87,2.172,5.119,5.164,6.893,8.313
		c1.016-1.474,2.028-2.96,3.027-4.448c0.562-0.838,1.117-1.678,1.66-2.527c-1.941-1.896-4.004-3.672-6.173-5.266
		c-1.552,0.744-3.1,1.488-4.663,2.223C143.387,311.471,143.142,312.041,142.885,312.604z"/>
	<path opacity="0.45" fill="#919AB8" enable-background="new    " d="M134.198,315.331c1.521,1.244,2.877,2.643,4.09,4.175
		c1.211-2.144,2.337-4.325,3.372-6.558c-0.331-0.23-0.673-0.431-1.017-0.638C138.499,313.33,136.346,314.335,134.198,315.331z"/>
	<path opacity="0.45" fill="#919AB8" enable-background="new    " d="M155.27,305.347c1.057,0.593,2.104,1.202,3.136,1.856
		c0.737-1.426,1.394-2.88,1.999-4.353C158.694,303.684,156.984,304.521,155.27,305.347z"/>
	<path opacity="0.45" fill="#919AB8" enable-background="new    " d="M149.308,308.197c1.985,1.484,3.898,3.115,5.713,4.871
		c1.03-1.646,2.022-3.307,2.935-5.001c-1.23-0.78-2.484-1.509-3.75-2.206C152.579,306.646,150.941,307.414,149.308,308.197z"/>
	<path opacity="0.45" fill="#919AB8" enable-background="new    " d="M173.342,307.883c0.992-1.813,1.964-3.635,2.882-5.49
		c-2.436-1.373-4.968-2.563-7.551-3.588c-1.866,0.918-3.732,1.836-5.597,2.746C166.851,303.08,170.276,305.24,173.342,307.883z"/>
	<path opacity="0.45" fill="#919AB8" enable-background="new    " d="M140.074,321.143c2.039,2.762,2.464,5.068,3.672,8.281
		c1.837-2.502,3.628-5.039,5.395-7.592c-1.713-3.141-0.893-3.445-3.695-5.605C144.366,318.541,142.248,319.094,140.074,321.143z"/>
	<path opacity="0.45" fill="#919AB8" enable-background="new    " d="M135.806,335.865c-0.535-2.465-1.236-4.922-2.174-7.272
		c-1.78,2.513-3.673,4.956-5.661,7.331c0.077,1.027,0.104,2.045,0.093,3.062C130.645,337.943,133.232,336.904,135.806,335.865z"/>
	<path opacity="0.45" fill="#919AB8" enable-background="new    " d="M127.083,339.381c0.013-0.787,0.013-1.576-0.02-2.365
		c-1.061,1.24-2.151,2.471-3.257,3.678C124.895,340.254,125.989,339.816,127.083,339.381z"/>
	<path opacity="0.45" fill="#919AB8" enable-background="new    " d="M150.666,324.877c-0.313-0.687-0.65-1.381-1.008-2.073
		c-1.801,2.591-3.64,5.171-5.516,7.706c0.1,0.293,0.208,0.594,0.304,0.887c0.092,0.287,0.164,0.582,0.25,0.871
		c2.567-1.041,5.137-2.084,7.706-3.133C151.876,327.691,151.304,326.273,150.666,324.877z"/>
	<path opacity="0.45" fill="#919AB8" enable-background="new    " d="M168.854,315.479c1.398-2.208,2.734-4.458,4.004-6.743
		c-3.273-2.85-6.963-5.148-11.074-6.667c-0.741,1.928-1.593,3.815-2.556,5.661C162.711,309.988,165.99,312.563,168.854,315.479z"/>
	<path opacity="0.45" fill="#919AB8" enable-background="new    " d="M162.109,322.611c-2.106-2.721-4.43-5.43-6.949-7.965
		c-0.282,0.435-0.562,0.869-0.846,1.305c-1.311,1.983-2.658,3.963-4.017,5.926c0.238,0.443,0.471,0.889,0.685,1.333
		c0.883,1.805,1.648,3.659,2.342,5.552c2.953-1.205,5.91-2.419,8.865-3.631c0.306-0.406,0.615-0.809,0.916-1.215
		C162.763,323.459,162.427,323.016,162.109,322.611z"/>
	<path opacity="0.45" fill="#919AB8" enable-background="new    " d="M172.263,320.994c-0.998-1.379-2.083-2.713-3.261-3.97
		c-1.5,2.331-3.067,4.624-4.696,6.868c0.066,0.09,0.135,0.195,0.202,0.293C167.094,323.126,169.677,322.059,172.263,320.994z"/>
</g>
<g>
	<path opacity="0.53" fill="#919AB8" enable-background="new    " d="M306.734,239.053c0.229,0.134,0.467,0.267,0.7,0.409
		c1.505-2.12,2.984-4.264,4.447-6.42c-3.58-2.37-7.547-4.154-11.72-5.448C303.08,230.907,305.332,234.738,306.734,239.053z"/>
	<path opacity="0.53" fill="#919AB8" enable-background="new    " d="M305.451,238.306c-1.562-4.282-4.037-8.033-7.156-11.259
		c-4.513-1.227-9.233-1.891-13.944-2.098c1.947,2.011,3.57,4.379,4.886,6.967C294.928,233.348,300.406,235.477,305.451,238.306z"/>
	<path opacity="0.53" fill="#919AB8" enable-background="new    " d="M292.546,241.302c3.271,1.772,6.328,3.821,9.055,6.104
		c1.6-2.09,3.16-4.218,4.701-6.353c-0.123-0.449-0.255-0.895-0.392-1.334c-4.987-2.924-10.433-5.137-16.104-6.633
		C291.001,235.667,291.912,238.449,292.546,241.302z"/>
	<path opacity="0.53" fill="#919AB8" enable-background="new    " d="M282.118,246.708c3.803,1.861,7.367,4.083,10.532,6.632
		c0.146-3.695-0.165-7.583-0.968-11.367c-3.662-1.948-7.598-3.509-11.658-4.603C280.989,240.409,281.664,243.562,282.118,246.708z"
		/>
	<path opacity="0.53" fill="#919AB8" enable-background="new    " d="M282.867,257.782c2.084,1.435,4.099,2.98,6.012,4.687
		c0.113-0.118,0.229-0.23,0.341-0.348c1.107-1.182,2.196-2.384,3.265-3.589c-0.179-0.078-0.312-0.244-0.271-0.496
		c0.171-1.123,0.292-2.276,0.372-3.449c-3.083-2.561-6.569-4.801-10.304-6.68c0.041,0.286,0.079,0.573,0.113,0.862
		C282.738,251.715,282.913,254.74,282.867,257.782z"/>
	<path opacity="0.53" fill="#919AB8" enable-background="new    " d="M281.24,270.237c2.352-2.303,4.674-4.647,6.952-7.047
		c-1.712-1.521-3.5-2.914-5.352-4.217C282.708,262.761,282.213,266.558,281.24,270.237z"/>
	<path opacity="0.53" fill="#919AB8" enable-background="new    " d="M271.521,261.247c3.344,2.399,6.376,5.16,8.925,8.259
		c0.927-3.655,1.365-7.423,1.451-11.179c-3.393-2.289-6.992-4.206-10.75-5.782c0.283,2.649,0.402,5.309,0.388,7.915
		C271.536,260.723,271.528,260.988,271.521,261.247z"/>
	<path opacity="0.53" fill="#919AB8" enable-background="new    " d="M281.904,257.122c0.011-2.777-0.167-5.55-0.487-8.245
		c-0.055-0.497-0.117-0.989-0.185-1.488c-3.764-1.805-7.762-3.219-11.858-4.192c0.763,2.669,1.303,5.43,1.653,8.217
		C274.822,252.964,278.471,254.864,281.904,257.122z"/>
	<path opacity="0.53" fill="#919AB8" enable-background="new    " d="M271.985,272.437c1.281,0.994,2.323,2.2,3.255,3.5
		c1.558-1.436,3.102-2.904,4.63-4.38c0.125-0.399,0.244-0.801,0.353-1.198c-0.17,0.04-0.356,0.003-0.489-0.164
		c-2.367-2.896-5.154-5.489-8.241-7.768c-0.097,2.84-0.373,5.762-0.902,8.649C271.056,271.52,271.529,271.967,271.985,272.437z"/>
	<path opacity="0.53" fill="#919AB8" enable-background="new    " d="M268.077,279.63c0.398,0.563,0.807,0.378,1.16,0.979
		c1.781-1.559,3.529-2.385,5.277-3.999c-0.592-0.834-1.221-1.631-1.939-2.343c-0.11,0.012-0.228-0.021-0.33-0.133
		c-0.306-0.333-0.633-0.65-0.95-0.976c-0.222-0.167-0.44-0.333-0.677-0.479c-0.165-0.104-0.224-0.274-0.22-0.443
		c-0.013-0.013-0.023-0.019-0.033-0.03C269.831,274.75,269.085,277.246,268.077,279.63z"/>
	<path opacity="0.53" fill="#919AB8" enable-background="new    " d="M260.817,263.68c3.194,1.903,6.206,4.102,8.948,6.606
		c0.484-2.848,0.717-5.732,0.779-8.525c-3.178-2.233-6.649-4.13-10.282-5.677C260.592,258.607,260.759,261.166,260.817,263.68z"/>
	<path opacity="0.53" fill="#919AB8" enable-background="new    " d="M260.601,272.296c2.546,1.871,4.906,4.005,6.82,6.453
		c0.947-2.346,1.639-4.809,2.126-7.302c-2.669-2.494-5.6-4.69-8.713-6.586c0.006,0.62,0.004,1.244-0.002,1.86
		C260.812,268.563,260.734,270.43,260.601,272.296z"/>
	<path opacity="0.53" fill="#919AB8" enable-background="new    " d="M220.016,292.911c3.851,2.717,3.166,2.093,8.666,4.402
		c9.687-4.172,6.052-1.604,4.228-3.939c-2.479-2.352-5.177-4.464-7.906-6.324c-0.845-0.57-1.712-1.142-2.604-1.689
		c-0.566,1.93-1.139,3.853-1.772,5.769C220.433,291.73,220.222,292.322,220.016,292.911z"/>
	<path opacity="0.53" fill="#919AB8" enable-background="new    " d="M202.209,301.747c3.625,2.878,2.673,0.751,5.02,4.688
		c3.402-1.893,7.921-3.197,7.921-3.197c-2.985-3.357-6.309-6.409-9.955-8.87C204.264,296.852,203.273,299.309,202.209,301.747z"/>
	<path opacity="0.53" fill="#919AB8" enable-background="new    " d="M206.874,306.588c-2.276-3.999-1.453-1.005-5.072-3.912
		c-1.132,2.553-0.454,4.352-1.723,6.836L206.874,306.588z"/>
	<path opacity="0.53" fill="#919AB8" enable-background="new    " d="M235.979,283.225c3.081,2.345,5.851,5.035,8.154,8.009
		c0.756-3.048,1.368-6.134,1.841-9.251c-2.619-2.237-5.422-4.244-8.302-5.989c-0.209-0.128-0.433-0.258-0.654-0.39
		c-0.153,1.406-0.324,2.808-0.516,4.204C236.343,280.95,236.162,282.087,235.979,283.225z"/>
	<path opacity="0.53" fill="#919AB8" enable-background="new    " d="M235.908,294.306l7.06-2.926
		c-2.242-3.006-4.125-4.652-7.179-7.039c-0.505,2.912-1.109,5.797-1.809,8.67L235.908,294.306z"/>
	<path opacity="0.53" fill="#919AB8" enable-background="new    " d="M247.954,271.668c3.979,2.442,7.605,5.387,10.66,8.772
		c0.454-2.539,0.772-5.1,0.977-7.654c-2.564-1.83-5.298-3.404-7.933-4.751c-1.181-0.602-2.39-1.18-3.615-1.733
		C248.065,268.087,248.039,269.88,247.954,271.668z"/>
	<path opacity="0.53" fill="#919AB8" enable-background="new    " d="M251.776,287.702c-2.257-3.636-1.831-2.317-5.068-5.196
		c-0.509,3.193-1.022,5.143-1.823,8.265L251.776,287.702z"/>
	<path opacity="0.53" fill="#919AB8" enable-background="new    " d="M247.005,281.565c3.308,2.878,3.406,2.332,5.766,5.989
		c5.313-2.177,4.961-2.583,5.613-5.876c-2.98-3.423-6.554-6.411-10.488-8.884C247.729,275.717,247.439,278.652,247.005,281.565z"/>
	<path opacity="0.53" fill="#919AB8" enable-background="new    " d="M266.971,279.785c-1.785-2.392-4.034-4.48-6.471-6.315
		c-0.225,2.627-0.575,5.264-1.072,7.884c1.266,1.48,0.798,0.663,1.832,2.301l0.303,0.286l5.149-2.143L266.971,279.785z"/>
	<path opacity="0.53" fill="#919AB8" enable-background="new    " d="M293.24,257.661c2.683-3.085,5.264-6.241,7.749-9.463
		c-2.474-2.07-5.234-3.953-8.174-5.598c0.737,3.846,0.978,7.771,0.767,11.506c0.202,0.172,0.418,0.334,0.61,0.499
		c0.465,0.404-0.19,1.161-0.654,0.761c-0.014-0.013-0.027-0.024-0.039-0.037C293.429,256.122,293.348,256.904,293.24,257.661z"/>
	<path opacity="0.45" fill="#919AB8" enable-background="new    " d="M222.252,296.08c-0.844-0.684-1.699-1.348-2.591-1.982
		c-0.532,1.551-1.099,3.076-1.673,4.605C219.416,297.832,220.833,296.958,222.252,296.08z"/>
	<path opacity="0.45" fill="#919AB8" enable-background="new    " d="M250.253,274.596c-0.779-0.547-1.566-1.083-2.376-1.596
		c-0.076,1.319-0.183,2.635-0.311,3.956C248.46,276.169,249.359,275.389,250.253,274.596z"/>
	<path opacity="0.53" fill="#919AB8" enable-background="new    " d="M206.184,292.675c3.623,2.878,6.766,6.268,9.113,10.205
		c1.353-2.874,2.625-5.778,3.825-8.712c-2.985-3.358-6.311-6.409-9.955-8.87C208.238,287.78,207.245,290.238,206.184,292.675z"/>
	<path opacity="0.53" fill="#919AB8" enable-background="new    " d="M210.576,284.648c3.851,2.516,5.197,3.851,7.891,7.558
		c1.06-3.019,1.732-5.036,2.638-8.099c-4.833-3.794-3.533-3.089-7.368-5.184C212.647,281.254,211.394,282.092,210.576,284.648z"/>
	<path opacity="0.53" fill="#919AB8" enable-background="new    " d="M278.459,235.444c4.264,0.46,8.366,1.993,12.402,4.587
		c-0.681-3.355-1.9-5.469-2.753-8.773c-5.147-3.406-10.323-1.718-14.963-1.614C273.923,232.328,277.831,232.725,278.459,235.444z"/>
	<polygon fill="#919AB8" points="269.691,248.875 261.797,255.335 269.469,259.425 270.153,253.229 	"/>
</g>
<path opacity="0.53" fill="#919AB8" enable-background="new    " d="M357.404,201.977l-2.396-5.068
	c-3.2-1.432-3.944-0.645-7.869-0.883l1.08,11.387L357.404,201.977z"/>
<path opacity="0.45" fill="#919AB8" enable-background="new    " d="M356.013,196.821c0.469,2.302,1.187,2.456,1.942,4.697
	c3.3-0.731,2.974-1.233,4.83-2.957c-0.052-0.27-0.088-0.543-0.14-0.821C360.309,197.536,358.356,196.979,356.013,196.821z"/>
<path opacity="0.53" fill="#919AB8" enable-background="new    " d="M247.819,242.984c0.782-4.264,2.318-8.587,4.581-12.608
	c-3.917,2.359-7.765,4.844-11.486,7.454c-1.25,4.058-1.962,8.392-0.963,12.261C242.432,247.597,245.065,245.231,247.819,242.984z"/>
<g>
	<path opacity="0.53" fill="#919AB8" enable-background="new    " d="M235.92,275.521c-2.298-1.802-4.348-3.781-6.066-5.888
		c-1.847,1.345-3.671,2.725-5.479,4.111c-0.01,0.356-0.007,0.71,0,1.06c3.446,2.916,7.452,5.356,11.817,7.295
		C235.829,279.984,235.749,277.759,235.92,275.521z"/>
	<path opacity="0.53" fill="#919AB8" enable-background="new    " d="M246.761,272.512c-2.716-1.944-5.146-4.126-7.169-6.497
		c-1.022,2.76-1.716,5.732-1.974,8.694c2.582,1.989,5.485,3.727,8.606,5.13C246.162,277.415,246.372,274.945,246.761,272.512z"/>
	<path opacity="0.53" fill="#919AB8" enable-background="new    " d="M248.417,263.25c-1.389-1.379-2.691-2.829-3.874-4.386
		c-0.122,0.073-0.245,0.141-0.367,0.213c-1.213,0.732-2.416,1.48-3.603,2.236c0.131,0.085,0.201,0.229,0.105,0.412
		c-0.417,0.821-0.802,1.671-1.155,2.544c1.949,2.368,4.311,4.552,6.967,6.5c0.036-0.221,0.073-0.444,0.117-0.665
		C247.04,267.838,247.635,265.536,248.417,263.25z"/>
	<path opacity="0.53" fill="#919AB8" enable-background="new    " d="M258.35,263.512c-2.203-2.285-4.058-4.796-5.428-7.492
		c-1.668,2.617-2.955,5.391-3.948,8.207c2.272,2.208,4.81,4.165,7.559,5.888c0.412-2.034,0.966-4.053,1.616-6.015
		C258.21,263.903,258.283,263.705,258.35,263.512z"/>
	<path opacity="0.53" fill="#919AB8" enable-background="new    " d="M238.555,264.827c0.252-0.585,0.513-1.163,0.788-1.719
		c-2.997,1.938-5.924,3.947-8.787,6.017c1.56,1.912,3.404,3.724,5.454,5.38c0.327-3,1.085-5.989,2.178-8.771L238.555,264.827z"/>
	<path opacity="0.45" fill="#919AB8" enable-background="new    " d="M279.371,256.5c0.519,0.522,1.045,1.039,1.595,1.541
		c0.386-0.983,0.798-1.959,1.229-2.936"/>
</g>
<g>
	<g>
		<path opacity="0.53" fill="#919AB8" enable-background="new    " d="M198.496,275.266c-3.552-1.669-5.012-1.732-7.987-4.299
			c-3.269,2.73-3.741,3.515-4.597,6.372c3.397,1.652,7.055,2.896,10.837,3.753C197.284,279.145,197.881,277.202,198.496,275.266z"/>
		<path opacity="0.53" fill="#919AB8" enable-background="new    " d="M185.629,278.274c-0.125,0.435-0.263,0.869-0.387,1.308
			c-0.557,1.942-1.052,3.888-1.528,5.838c3.51,1.415,7.343,2.496,11.308,2.765c0.451-2.067,0.945-4.132,1.496-6.181
			C192.719,281.149,189.054,279.909,185.629,278.274z"/>
		<path opacity="0.53" fill="#919AB8" enable-background="new    " d="M214.467,265.428c-3.227-1.744-6.257-3.793-8.994-5.946
			c-1.08,2.405-2.091,4.828-3.041,7.264c3.123,1.767,6.581,3.102,10.156,4.097C213.15,269.034,213.787,267.223,214.467,265.428z"/>
		<path opacity="0.53" fill="#919AB8" enable-background="new    " d="M228.009,240.1c-0.022-0.055-0.605,2.635-1.011,0.988
			c-1.459,1.518-1.439,1.084-2.243,2.768c-0.56,1.172-1.104,2.348-1.643,3.523c1.667,2.51,2.906,3.912,5.203,5.708
			c1.416-2.11,3.185-3.078,4.151-5.341C230.644,245.273,229.186,242.929,228.009,240.1z"/>
		<path opacity="0.53" fill="#919AB8" enable-background="new    " d="M288.97,193.37"/>
		<path opacity="0.53" fill="#919AB8" enable-background="new    " d="M202.085,267.649c-0.895,2.348-1.727,4.713-2.499,7.088
			c3.52,1.581,7.32,2.548,11.374,2.718c0.335-1.91,0.792-3.818,1.348-5.718C208.712,270.739,205.235,269.401,202.085,267.649z"/>
		<path opacity="0.45" fill="#919AB8" enable-background="new    " d="M171.126,288.273c3.113,1.683,6.528,2.959,10.096,3.789
			c0.459-2.082,0.938-4.161,1.444-6.244c-0.804-0.335-1.59-0.679-2.358-1.034c-1.987-0.931-3.953-1.993-5.84-3.189
			c-0.433,0.332-0.868,0.667-1.301,0.997c-0.468,0.464-0.938,0.922-1.403,1.379C171.528,285.41,171.315,286.843,171.126,288.273z"/>
		<path opacity="0.45" fill="#919AB8" enable-background="new    " d="M180.368,283.744c0.818,0.4,1.665,0.782,2.527,1.146
			c0.454-1.833,0.929-3.662,1.45-5.492c0.162-0.567,0.339-1.142,0.506-1.703c-1.051-0.531-2.068-1.11-3.069-1.714
			c-2.158,1.657-4.315,3.313-6.474,4.969C176.958,281.977,178.653,282.918,180.368,283.744z"/>
		<path opacity="0.45" fill="#919AB8" enable-background="new    " d="M182.607,275.346c0.824,0.494,1.658,0.968,2.524,1.412
			c0.443-1.484,0.919-2.952,1.404-4.424C185.222,273.334,183.916,274.338,182.607,275.346z"/>
		<path opacity="0.45" fill="#919AB8" enable-background="new    " d="M190.787,269.068c2.476,1.988,5.151,3.738,8.012,5.109
			c0.78-2.395,1.624-4.77,2.532-7.137c-1.465-0.858-2.844-1.824-4.141-2.866C195.059,265.799,192.921,267.433,190.787,269.068z"/>
		<path opacity="0.45" fill="#919AB8" enable-background="new    " d="M185.642,278.079c-0.125,0.436-0.266,0.87-0.391,1.309
			c-0.552,1.941-1.054,3.888-1.527,5.839c3.51,1.412,7.345,2.5,11.308,2.763c0.45-2.067,0.945-4.129,1.495-6.181
			C192.732,280.957,189.06,279.719,185.642,278.079z"/>
		<path opacity="0.53" fill="#919AB8" enable-background="new    " d="M214.477,265.235c-3.227-1.742-6.254-3.786-8.997-5.945
			c-1.078,2.406-2.089,4.834-3.038,7.272c3.125,1.756,6.58,3.092,10.152,4.097C213.158,268.841,213.788,267.032,214.477,265.235z"/>
		<path opacity="0.45" fill="#919AB8" enable-background="new    " d="M204.225,282.959c-2.308-0.18-4.595-0.493-6.841-0.958
			c-0.531,2.002-1.013,4.011-1.455,6.025c0.835,0.035,1.673,0.013,2.521-0.035C200.367,286.306,202.295,284.633,204.225,282.959z"/>
		<path opacity="0.45" fill="#919AB8" enable-background="new    " d="M226.506,262.581c-3.026-1.097-5.623-3.092-7.812-5.364
			c-0.675,1.59-1.344,3.189-2.002,4.787c-0.369,0.9-0.731,1.799-1.082,2.701c2.123,1.118,4.334,2.096,6.612,2.882
			c1.297-1.098,2.591-2.198,3.899-3.29C226.243,263.725,226.368,263.154,226.506,262.581z"/>
		<path opacity="0.45" fill="#919AB8" enable-background="new    " d="M221.37,268.301c-2.087-0.743-4.137-1.634-6.117-2.665
			c-0.659,1.745-1.279,3.493-1.82,5.245c1.27,0.339,2.553,0.624,3.84,0.877C218.633,270.601,220.005,269.456,221.37,268.301z"/>
		<path opacity="0.45" fill="#919AB8" enable-background="new    " d="M199.302,275.437c-0.594,1.88-1.169,3.765-1.686,5.662
			c2.485,0.517,5.026,0.842,7.584,1.01c1.555-1.342,3.112-2.684,4.668-4.019C206.125,277.818,202.591,276.889,199.302,275.437z"/>
		<path opacity="0.45" fill="#919AB8" enable-background="new    " d="M227.585,254.253c-2.363-1.853-3.161-3.767-4.841-6.252
			c-1.247,2.73-2.45,5.476-3.624,8.23c2.131,2.281,1.428,2.784,4.389,3.888C224.094,257.77,225.946,256.68,227.585,254.253z"/>
		<path opacity="0.45" fill="#919AB8" enable-background="new    " d="M228.918,240.054c0.928,2.021,2.006,3.986,3.285,5.792
			c1.197-2.726,2.506-5.418,3.917-8.079c-0.25-0.885-0.456-1.772-0.624-2.672C233.302,236.749,231.105,238.404,228.918,240.054z"/>
		<path opacity="0.45" fill="#919AB8" enable-background="new    " d="M217.178,253.98c0.411,0.516,0.842,1.032,1.293,1.54
			c1.202-2.798,2.438-5.596,3.719-8.367c-0.145-0.231-0.296-0.464-0.436-0.696c-0.136-0.225-0.255-0.465-0.386-0.694
			c-2.179,1.65-4.361,3.303-6.541,4.959C215.567,251.846,216.345,252.932,217.178,253.98z"/>
		<path opacity="0.45" fill="#919AB8" enable-background="new    " d="M202.091,267.458c-0.896,2.346-1.729,4.711-2.494,7.087
			c3.517,1.577,7.318,2.553,11.371,2.717c0.34-1.911,0.792-3.817,1.352-5.719C208.717,270.546,205.244,269.21,202.091,267.458z"/>
		<path opacity="0.45" fill="#919AB8" enable-background="new    " d="M207.045,259.244c2.419,1.798,5.038,3.521,7.802,5.04
			c0.184-0.465,0.365-0.927,0.55-1.393c0.857-2.123,1.748-4.252,2.651-6.37c-0.297-0.322-0.588-0.649-0.867-0.98
			c-1.13-1.339-2.161-2.757-3.132-4.227c-2.507,1.907-5.015,3.82-7.521,5.731c-0.208,0.445-0.423,0.889-0.628,1.333
			C206.291,258.685,206.679,258.979,207.045,259.244z"/>
		<path opacity="0.45" fill="#919AB8" enable-background="new    " d="M197.984,263.568c1.162,0.932,2.396,1.796,3.703,2.569
			c0.967-2.482,2.008-4.952,3.11-7.395c-0.076-0.063-0.158-0.135-0.237-0.201C202.365,260.214,200.173,261.892,197.984,263.568z"/>
	</g>
</g>
<g>
	<path opacity="0.53" fill="#919AB8" enable-background="new    " d="M412.364,136.47c-1.187-0.398-2.374-0.746-3.551-1.032
		c-0.265-0.062-0.365-0.263-0.364-0.471c-1.661,0.571-3.324,1.162-4.979,1.782c-0.164,0.064-0.326,0.131-0.491,0.194
		c0.816,2.594,1.435,5.222,1.911,7.875l6.196,3.315c0,0,3.596-6.214,4.233-7.523S412.364,136.47,412.364,136.47z"/>
	<path opacity="0.53" fill="#919AB8" enable-background="new    " d="M403.711,144.364c-0.451-2.367-1.021-4.708-1.748-7.026
		c-3.37,1.285-6.707,2.638-10.014,4.036C395.991,141.902,399.937,142.953,403.711,144.364z"/>
	<path opacity="0.53" fill="#919AB8" enable-background="new    " d="M397.202,154.983c2.566,1.046,5.12,2.243,7.594,3.602
		c0.131-4.37-0.145-8.724-0.874-13.023c-3.722-1.441-7.614-2.539-11.612-3.103c1.9,3.79,3.256,7.923,4.115,12.219
		C396.682,154.777,396.947,154.876,397.202,154.983z"/>
	<path opacity="0.53" fill="#919AB8" enable-background="new    " d="M413.024,164.517c0,0,1.487-1.403-1.396-3.877
		c-2.884-2.475-2.479-7.274-2.479-7.274c-0.46-0.271,2.125-4.406,1.662-4.662c-2.503-1.413-2.975-1.541-5.705-2.658
		c0.683,4.328,0.915,8.724,0.744,13.121L413.024,164.517z"/>
	<path opacity="0.53" fill="#919AB8" enable-background="new    " d="M386.367,151.607c3.069,0.65,6.058,1.562,8.888,2.621
		c-0.856-3.989-2.157-7.813-3.939-11.338c-0.104-0.201-0.058-0.4,0.059-0.553c-0.44-0.052-0.886-0.097-1.335-0.137
		c-2.129,0.918-4.257,1.854-6.362,2.816c0.86,1.455,1.576,2.978,1.979,4.653C385.912,150.312,386.142,150.963,386.367,151.607z"/>
	<path opacity="0.53" fill="#919AB8" enable-background="new    " d="M385.158,151.369c-0.005-0.015-0.008-0.027-0.016-0.045
		c-0.168-0.064-0.306-0.191-0.332-0.396c-0.039-0.297-0.105-0.58-0.173-0.868c-0.176-0.445-0.34-0.899-0.531-1.339
		c-0.062-0.146-0.043-0.275,0.015-0.379c-0.377-1.003-0.875-1.952-1.431-2.878c-2.364,1.08-4.706,2.194-7.032,3.329
		c0.431,0.595,0.82,1.212,1.195,1.835C379.644,150.593,382.425,150.866,385.158,151.369z"/>
	<path opacity="0.53" fill="#919AB8" enable-background="new    " d="M397.516,168.589c1.934,1.18,3.788,2.458,5.515,3.871
		c0.936-4.208,1.535-8.44,1.722-12.671c-2.404-1.347-4.893-2.553-7.4-3.598c-0.228-0.1-0.459-0.186-0.694-0.284
		C397.392,160.036,397.66,164.306,397.516,168.589z"/>
	<path opacity="0.53" fill="#919AB8" enable-background="new    " d="M408.233,175.068c2.803-3.811,3.74-5.323,4.691-9.731
		c-2.212-1.838-4.621-3.486-7.125-4.953c-0.24,4.286-0.886,8.583-1.87,12.848C405.629,174.278,405.446,173.966,408.233,175.068z"/>
	<path opacity="0.53" fill="#919AB8" enable-background="new    " d="M396.461,167.958c0.105-4.236-0.204-8.453-0.977-12.517
		c-2.767-1.075-5.701-2.015-8.712-2.692c1.231,3.742,2.044,7.625,2.487,11.568C391.699,165.396,394.135,166.602,396.461,167.958z"/>
	<path opacity="0.53" fill="#919AB8" enable-background="new    " d="M386.282,163.065c0.61,0.245,1.221,0.498,1.827,0.755
		c-0.472-3.863-1.316-7.666-2.569-11.33c-2.664-0.531-5.39-0.845-8.112-0.855c1.546,2.892,2.583,6.105,3.28,9.393
		C382.603,161.655,384.465,162.336,386.282,163.065z"/>
	<path opacity="0.53" fill="#919AB8" enable-background="new    " d="M375.852,185.906c0.419,0.145,0.833,0.282,1.246,0.427
		c1.006,0.353,1.992,0.724,2.967,1.132c0.576-3.451,0.857-6.946,0.914-10.385c-1.699-0.742-3.415-1.445-5.172-2.09
		C376.176,178.594,376.191,182.263,375.852,185.906z"/>
	<path opacity="0.53" fill="#919AB8" enable-background="new    " d="M368.049,183.423c2.273,0.669,4.541,1.385,6.783,2.137
		c0.313-3.662,0.273-7.35-0.136-10.96c-2.887-1.026-5.825-1.932-8.813-2.696c0.958,3.399,1.632,6.875,2.038,10.314
		C367.962,182.612,368.004,183.016,368.049,183.423z"/>
	<path opacity="0.53" fill="#919AB8" enable-background="new    " d="M351.923,193.766c2.435,0.271,4.851,0.573,7.273,0.895
		c0.163-4.307-0.209-8.624-1.117-12.767c-3.036-0.684-6.105-1.272-9.19-1.758c1.178,3.47,2.032,7.064,2.602,10.587
		C351.655,191.723,351.799,192.739,351.923,193.766z"/>
	<path opacity="0.53" fill="#919AB8" enable-background="new    " d="M344.386,193.063c2.162,0.149,4.308,0.36,6.451,0.584
		c-0.141-1.108-0.312-2.201-0.495-3.272c-0.604-3.466-1.472-7.002-2.674-10.419c-3.297-0.487-6.619-0.86-9.963-1.11
		c2.185,4.409,3.716,9.169,4.66,14.097C343.034,192.98,343.711,193.013,344.386,193.063z"/>
	<path opacity="0.53" fill="#919AB8" enable-background="new    " d="M360.255,194.805c0.661,0.09,1.311,0.172,1.968,0.261
		c1.526,0.21,3.075,0.442,4.604,0.73c0.599-3.869,0.562-7.838,0.218-11.563c-1.886-0.552-3.784-1.083-5.692-1.562
		c-0.697-0.179-1.401-0.334-2.101-0.496C360.099,186.281,360.434,190.549,360.255,194.805z"/>
	<path opacity="0.53" fill="#919AB8" enable-background="new    " d="M367.867,195.996c1.577,0.325,3.125,0.751,4.612,1.298
		c1.097-3.454,1.834-7.042,2.226-10.662c-2.172-0.728-4.353-1.428-6.561-2.083C368.465,188.245,368.469,192.167,367.867,195.996z"/>
	<path opacity="0.53" fill="#919AB8" enable-background="new    " d="M319.075,192.855c3.502-0.193,7.019-0.295,10.515-0.304
		c-2.009-4.25-4.438-8.294-7.013-11.999c-3.081,2.163-6.137,4.372-9.167,6.608C315.584,188.857,317.463,190.774,319.075,192.855z"/>
	<path opacity="0.53" fill="#919AB8" enable-background="new    " d="M341.248,192.875c-0.963-4.943-2.541-9.71-4.805-14.113
		c-2.531-0.164-5.079-0.264-7.637-0.28c-0.689-0.007-0.699-1.032-0.009-1.028c2.361,0.018,4.718,0.113,7.062,0.251
		c-0.816-1.506-1.697-2.978-2.682-4.386c-3.266,2.159-6.497,4.364-9.698,6.615c2.703,3.893,5.241,8.151,7.311,12.63
		C334.29,192.583,337.775,192.688,341.248,192.875z"/>
	<path opacity="0.53" fill="#919AB8" enable-background="new    " d="M342.303,207.495c0.199-4.558-0.066-9.13-0.857-13.578
		c-3.384-0.193-6.785-0.304-10.188-0.322c1.921,4.343,3.377,8.883,4.14,13.509C337.706,207.192,340.012,207.307,342.303,207.495z"/>
	<path opacity="0.53" fill="#919AB8" enable-background="new    " d="M334.319,207.068c-0.786-4.62-2.295-9.161-4.257-13.489
		c-3.413,0-6.831,0.082-10.255,0.256c2.815,3.933,4.737,8.43,5.938,13.198C328.614,206.969,331.468,206.982,334.319,207.068z"/>
	<path opacity="0.53" fill="#919AB8" enable-background="new    " d="M301.854,192.386c-0.105-0.066-0.198-0.142-0.299-0.203
		c-4.034,2.632-8.196,4.994-12.166,7.726c0.188,0.19,2.605,2.57,6.606,7.49c4.844-0.452,11.77-0.581,16.595-0.638
		c-1.424-4.596-5.736-10.209-9.487-13.428L301.854,192.386z"/>
	<path opacity="0.53" fill="#919AB8" enable-background="new    " d="M289.719,230.686c2.768,0.046,5.513,0.181,8.251,0.427
		c-1.005-3.373-2.584-6.653-4.591-9.689c-1.451,0.015-2.905,0.04-4.361,0.079c-2.091,0.06-4.191,0.141-6.284,0.251
		c0.048,0.051,0.108,0.102,0.158,0.152C285.424,224.564,287.812,227.501,289.719,230.686z"/>
	<path opacity="0.53" fill="#919AB8" enable-background="new    " d="M275.78,229.984c3.363-0.234,6.722-0.357,10.063-0.337
		c-1.814-2.912-4.021-5.599-6.355-8.047c-0.253-0.264-0.512-0.522-0.771-0.786c-5.322,0.303-10.64,0.757-15.942,1.375
		c2.718,1.195,5.34,2.562,7.789,4.081C272.337,227.374,274.123,228.604,275.78,229.984z"/>
	<path opacity="0.53" fill="#919AB8" enable-background="new    " d="M280.611,208.229c-0.887-0.132-4.078-1.914-4.972-1.985
		c-0.775,0.694-1.868,2.373-2.634,3.069C274.661,208.71,278.941,208.798,280.611,208.229z"/>
	<path opacity="0.53" fill="#919AB8" enable-background="new    " d="M257.159,230.494c-0.347-0.213-0.693-0.413-1.031-0.611
		c-2.832-1.653-5.892-3.149-9.102-4.298c-1.167,0.821-2.347,1.63-3.507,2.461c-1.848,1.309-3.696,2.611-5.545,3.913
		c1.224,0.284,2.422,0.627,3.611,1.013C246.743,231.951,251.952,231.108,257.159,230.494z"/>
	<path opacity="0.53" fill="#919AB8" enable-background="new    " d="M259.201,229.83c3.905-0.613,7.821-1.092,11.731-1.411
		c-1.746-1.369-3.624-2.583-5.455-3.659c-2.577-1.511-6.783-3.912-9.606-5.051c-1.543,0.194-0.462,0.063-3.147,1.655
		c-1.529,1.182-3.472,2.154-5.004,3.337c3.116,0.995,6.525,2.51,9.334,3.963C257.767,229.034,258.484,229.421,259.201,229.83z"/>
	<path opacity="0.53" fill="#919AB8" enable-background="new    " d="M293.135,219.576c0.197,0.27,0.384,0.539,0.575,0.818
		c3.428-0.052,6.862-0.04,10.287,0.007c-0.362-0.736-0.742-1.458-1.123-2.155c-1.827-3.289-3.971-6.39-6.322-9.344
		c-4.002,0.386-8.01,0.892-12.007,1.543C287.841,213.09,290.72,216.224,293.135,219.576z"/>
	<path opacity="0.53" fill="#919AB8" enable-background="new    " d="M272.539,210.308c-0.746,0.539-1.374,0.898-2.112,1.443
		c3.326,2.076,6.724,4.944,9.44,7.657c2.446-0.134,4.888-0.245,7.33-0.314c1.2-0.033,2.403-0.046,3.598-0.066
		c-2.617-3.715-5.866-7.049-9.467-9.728L272.539,210.308z"/>
	<path opacity="0.53" fill="#919AB8" enable-background="new    " d="M277.007,218.181c-2.579-2.5-5.807-4.958-8.929-6.868
		c-3.39,2.5-7.195,4.288-11.266,6.888c0.597,0.214,2.714,1.284,3.299,1.519C265.738,219.023,271.363,218.523,277.007,218.181z"/>
	<path opacity="0.53" fill="#919AB8" enable-background="new    " d="M294.278,206.764c-1.908-2.314-3.927-4.535-6.036-6.656
		c-0.112,0.077-7.572,3.982-10.832,5.895c0.959,0.596,3.65,1.744,4.54,2.412C286.063,207.722,290.162,207.173,294.278,206.764z"/>
	<path opacity="0.53" fill="#919AB8" enable-background="new    " d="M324.656,207.06c-1.236-4.775-3.215-9.262-6.121-13.149
		c-3.676,0.213-7.359,0.523-11.039,0.929c3.863,3.271,6.416,8.519,8.127,12.723C318.629,207.311,321.645,207.147,324.656,207.06z"/>
	<path opacity="0.53" fill="#919AB8" enable-background="new    " d="M316.471,192.292c-1.514-1.867-3.246-3.584-5.251-5.11
		c-2.429,1.802-4.836,3.624-7.237,5.461c0.363,0.206,0.714,0.428,1.054,0.662C308.842,192.858,312.663,192.522,316.471,192.292z"/>
	<path opacity="0.53" fill="#919AB8" enable-background="new    " d="M347.286,178.857c-1.474-3.903-3.426-7.606-6.036-10.769
		c-2.398,1.519-4.791,3.063-7.159,4.631c1.128,1.61,2.148,3.307,3.07,5.059C340.557,178.01,343.936,178.375,347.286,178.857z"/>
	<path opacity="0.53" fill="#919AB8" enable-background="new    " d="M362.578,181.902c1.457,0.378,2.907,0.777,4.355,1.197
		c-0.03-0.273-0.057-0.547-0.091-0.809c-0.425-3.569-1.139-7.168-2.166-10.678c-3.268-0.797-6.57-1.444-9.897-1.931
		c1.889,3.496,3.292,7.339,4.215,11.351C360.193,181.313,361.391,181.596,362.578,181.902z"/>
	<path opacity="0.53" fill="#919AB8" enable-background="new    " d="M357.815,180.768c-0.978-4.001-2.437-7.818-4.387-11.265
		c-3.32-0.447-6.646-0.756-9.961-0.902c-0.673-0.029-0.682-1.054-0.001-1.023c2.956,0.126,5.925,0.393,8.875,0.751
		c-0.815-1.852-1.788-3.605-3.016-5.203c-2.397,1.436-4.784,2.895-7.148,4.38c2.762,3.392,4.804,7.353,6.325,11.532
		C351.637,179.512,354.736,180.084,357.815,180.768z"/>
	<path opacity="0.53" fill="#919AB8" enable-background="new    " d="M382.068,176.413c2.034,0.907,4.021,1.875,5.967,2.922
		c0.611-4.781,0.701-9.583,0.225-14.299c-0.843-0.362-1.681-0.715-2.521-1.054c-1.563-0.622-3.169-1.212-4.807-1.767
		c0.542,2.911,0.846,5.859,1,8.675C382.034,172.708,382.083,174.55,382.068,176.413z"/>
	<path opacity="0.53" fill="#919AB8" enable-background="new    " d="M389.042,179.889c1.795,0.996,3.537,2.055,5.242,3.172
		c1.203-4.512,1.931-9.201,2.136-13.889c-2.261-1.35-4.632-2.557-7.025-3.636C389.828,170.272,389.694,175.093,389.042,179.889z"/>
	<path opacity="0.53" fill="#919AB8" enable-background="new    " d="M380.983,175.933c0.008-1.441-0.021-2.876-0.085-4.293
		c-0.146-3.162-0.471-6.518-1.12-9.806c-2.595-0.838-5.249-1.562-7.942-2.143c1.954,4.41,3.225,9.208,3.845,14.149
		C377.471,174.483,379.241,175.187,380.983,175.933z"/>
	<path opacity="0.53" fill="#919AB8" enable-background="new    " d="M352.886,166.506c0.448,0.668,0.86,1.36,1.271,2.06
		c3.421,0.473,6.816,1.116,10.175,1.909c-1.379-4.384-3.281-8.586-5.839-12.305c-0.215-0.001-0.422,0.001-0.641,0.004
		c-2.55,1.432-5.078,2.897-7.588,4.396c0.891,1.176,1.648,2.427,2.32,3.742C352.704,166.333,352.811,166.387,352.886,166.506z"/>
	<path opacity="0.53" fill="#919AB8" enable-background="new    " d="M374.549,173.439c-0.669-4.91-2.004-9.674-4.03-14.025
		c-3.521-0.69-7.112-1.128-10.715-1.231c2.534,3.831,4.399,8.121,5.745,12.577C368.596,171.515,371.605,172.419,374.549,173.439z"/>
	<path opacity="0.53" fill="#919AB8" enable-background="new    " d="M369.938,158.251c-0.782-1.558-1.642-3.075-2.606-4.505
		c-0.363-0.54,0.568-1.114,0.927-0.582c1.144,1.696,2.156,3.489,3.045,5.347c2.791,0.573,5.532,1.296,8.213,2.141
		c-0.712-3.165-1.757-6.247-3.308-8.991c-2.664,0.083-5.315,0.459-7.911,1.231c-0.209,0.06-0.377,0.004-0.497-0.099
		c-2.724,1.423-5.432,2.877-8.114,4.368C363.131,157.242,366.565,157.627,369.938,158.251z"/>
	<path opacity="0.53" fill="#919AB8" enable-background="new    " d="M375.606,150.659c-0.297-0.469-0.604-0.931-0.929-1.375
		c-1.289,0.632-2.559,1.303-3.837,1.959C372.418,150.933,374.017,150.738,375.606,150.659z"/>
	<path opacity="0.45" fill="#919AB8" enable-background="new    " d="M396.991,159.838c0.298,2.86,0.413,5.771,0.313,8.685
		c1.931,1.176,3.785,2.459,5.519,3.876c0.931-4.209,1.529-8.448,1.728-12.675c-1.078-0.603-2.17-1.16-3.269-1.705
		C399.851,158.622,398.421,159.23,396.991,159.838z"/>
	<path opacity="0.45" fill="#919AB8" enable-background="new    " d="M388.928,163.368c0.037,0.298,0.085,0.592,0.118,0.884
		c2.449,1.083,4.875,2.282,7.205,3.637c0.066-2.548-0.047-5.093-0.293-7.599C393.608,161.295,391.263,162.319,388.928,163.368z"/>
	<path opacity="0.45" fill="#919AB8" enable-background="new    " d="M375.643,185.843c0.414,0.142,0.833,0.275,1.242,0.418
		c1.002,0.356,2.002,0.732,2.977,1.137c0.567-3.458,0.851-6.952,0.904-10.386c-1.698-0.747-3.419-1.448-5.171-2.093
		C375.963,178.525,375.976,182.196,375.643,185.843z"/>
	<path opacity="0.45" fill="#919AB8" enable-background="new    " d="M368.932,172.758c-0.894,0.436-1.789,0.872-2.679,1.317
		c0.65,2.674,1.137,5.384,1.454,8.079c0.05,0.395,0.086,0.798,0.129,1.202c2.281,0.674,4.542,1.383,6.782,2.136
		c0.322-3.66,0.273-7.347-0.135-10.964C372.653,173.88,370.802,173.304,368.932,172.758z"/>
	<path opacity="0.45" fill="#919AB8" enable-background="new    " d="M352.961,180.815c-0.641,0.335-1.282,0.675-1.932,1.009
		c-0.494,0.352-0.988,0.702-1.482,1.049c0.741,2.583,1.314,5.2,1.739,7.783c0.158,0.998,0.299,2.013,0.425,3.042
		c2.433,0.272,4.853,0.57,7.271,0.894c0.162-4.306-0.21-8.623-1.116-12.764C356.242,181.465,354.606,181.127,352.961,180.815z"/>
	<path opacity="0.45" fill="#919AB8" enable-background="new    " d="M348.585,183.55c-2.461,1.74-4.924,3.479-7.386,5.219
		c0.362,1.357,0.691,2.724,0.957,4.107c0.665,0.037,1.349,0.071,2.019,0.12c2.159,0.15,4.307,0.356,6.448,0.585
		c-0.139-1.109-0.3-2.203-0.494-3.276C349.739,188.065,349.219,185.799,348.585,183.55z"/>
	<path opacity="0.45" fill="#919AB8" enable-background="new    " d="M360.045,194.737c0.658,0.087,1.315,0.177,1.964,0.265
		c1.535,0.213,3.077,0.441,4.605,0.723c0.6-3.865,0.56-7.835,0.218-11.563c-1.884-0.55-3.78-1.083-5.692-1.562
		c-0.699-0.175-1.403-0.333-2.104-0.493C359.883,186.211,360.219,190.484,360.045,194.737z"/>
	<path opacity="0.45" fill="#919AB8" enable-background="new    " d="M335.778,192.604c1.758,0.049,3.508,0.109,5.267,0.209
		c-0.228-1.142-0.494-2.262-0.787-3.378C338.76,190.488,337.27,191.541,335.778,192.604z"/>
	<path opacity="0.45" fill="#919AB8" enable-background="new    " d="M334.377,193.587c-0.844,0.6-1.693,1.198-2.551,1.798
		c1.538,3.773,2.711,7.683,3.356,11.65c2.309,0.091,4.613,0.209,6.907,0.39c0.207-4.557-0.065-9.131-0.856-13.583
		C338.957,193.717,336.669,193.643,334.377,193.587z"/>
	<path opacity="0.45" fill="#919AB8" enable-background="new    " d="M323.642,201.2c0.752,1.863,1.397,3.785,1.895,5.762
		c2.866-0.062,5.722-0.048,8.58,0.039c-0.645-3.734-1.759-7.416-3.192-10.972C328.492,197.752,326.061,199.477,323.642,201.2z"/>
	<path opacity="0.45" fill="#919AB8" enable-background="new    " d="M328.653,212.56c-0.028-4.383-2.986-0.364-3.972-4.549
		c-2.953,0.078-5.918,0.234-8.878,0.469c1.54,3.919,1.93,3.822,2.87,8.113C320.848,216.547,326.492,212.459,328.653,212.56z"/>
	<path opacity="0.45" fill="#919AB8" enable-background="new    " d="M307.05,232.294c-0.018-3.763-1.178-7.497-2.762-10.928
		c-3.366-0.055-6.736-0.078-10.109-0.042c1.977,3.035,3.623,6.333,4.66,9.808C301.598,231.409,304.337,231.792,307.05,232.294z"/>
	<path opacity="0.45" fill="#919AB8" enable-background="new    " d="M318.089,220.228c-0.53-3.75-2.139-7.025-3.097-10.535
		c-0.138-0.528-0.524-0.746-0.696-1.324l-16.411,0.368c1.177,1.771,5.451,8.299,6.427,10.181c0.243,0.462,0.474,0.94,0.699,1.419
		L318.089,220.228z"/>
	<path opacity="0.45" fill="#919AB8" enable-background="new    " d="M315.259,207.152c0.05,0.113,0.103,0.234,0.149,0.345
		c3.01-0.25,6.024-0.417,9.034-0.502c-0.455-1.764-1.03-3.486-1.703-5.154C320.246,203.61,317.751,205.377,315.259,207.152z"/>
	<path opacity="0.45" fill="#919AB8" enable-background="new    " d="M365.259,174.564c-2.408,1.198-4.813,2.413-7.202,3.637
		c0.264,0.912,0.516,1.839,0.732,2.771c1.193,0.271,2.389,0.558,3.578,0.865c1.456,0.379,2.905,0.78,4.357,1.195
		c-0.033-0.267-0.058-0.541-0.091-0.808C366.33,179.673,365.864,177.104,365.259,174.564z"/>
	<path opacity="0.45" fill="#919AB8" enable-background="new    " d="M386.664,164.394c-1.757,0.798-3.52,1.585-5.268,2.397
		c0.142,1.361,0.254,2.712,0.329,4.037c0.096,1.806,0.144,3.654,0.128,5.519c2.037,0.904,4.025,1.878,5.966,2.92
		c0.612-4.781,0.709-9.583,0.226-14.299C387.584,164.771,387.122,164.583,386.664,164.394z"/>
	<path opacity="0.45" fill="#919AB8" enable-background="new    " d="M388.829,179.819c1.796,1,3.546,2.058,5.239,3.177
		c1.204-4.514,1.936-9.206,2.142-13.893c-2.267-1.345-4.635-2.554-7.03-3.632C389.613,170.205,389.483,175.026,388.829,179.819z"/>
	<path opacity="0.45" fill="#919AB8" enable-background="new    " d="M380.366,167.277c-1.849,0.861-3.69,1.74-5.53,2.616
		c0.259,1.28,0.463,2.572,0.632,3.877c1.792,0.648,3.563,1.346,5.311,2.1c0.001-1.449-0.028-2.884-0.094-4.297
		C380.618,170.174,380.517,168.731,380.366,167.277z"/>
	<path opacity="0.45" fill="#919AB8" enable-background="new    " d="M370.319,172.076c1.352,0.41,2.691,0.839,4.02,1.301
		c-0.142-1.013-0.315-2.014-0.503-3.009C372.658,170.933,371.49,171.509,370.319,172.076z"/>
	<path opacity="0.53" fill="#919AB8" enable-background="new    " d="M409.859,135.236c0,0,1.42,0.373,2.903,0.861
		c1.482,0.49,3.033,3.56,3.033,3.56c2.419-5.407,0.005-7.056,0.005-7.056L409.859,135.236z"/>
	<path fill="#919AB8" d="M413.9,163.396c0.853,1.953-3.958,9.945-3.958,9.945l0.465,0.471l3.96-2.082c0,0-0.32,0.191-0.135-2.154
		c0.183-2.345,0.852-5.396,0.852-5.396S413.044,161.444,413.9,163.396z"/>
</g>
<polygon fill="#919AB8" points="353.047,205.554 355.651,205.983 357.487,202.539 "/>
<polygon fill="#919AB8" points="363.652,198.18 360.829,201.666 366.486,199.047 "/>
<polygon fill="#919AB8" points="377.426,189.838 376.558,194.397 381.728,191.811 "/>
<polygon fill="#919AB8" points="382.52,190.339 383.325,180.8 389.578,183.963 392.865,186.204 383.455,191.152 "/>
<polygon fill="#919AB8" points="400.925,182.176 399.812,181.247 403.012,178.332 405.597,179.26 "/>
<polygon fill="#919AB8" points="398.845,181.347 396.557,181.687 397.041,174.134 401.945,177.107 "/>
<polygon fill="#919AB8" points="396.055,182.814 395.372,185.627 396.925,185.829 396.971,183.173 "/>
<polygon fill="#919AB8" points="336.07,212.068 333.631,210.041 332.915,208.679 342.669,209.214 "/>
<path fill="#919AB8" d="M313.787,221.129c-0.201,0.049,2.266,4.958,2.266,4.958l3.772-4.521
	C319.825,221.567,313.989,221.08,313.787,221.129z"/>
<polygon fill="#919AB8" points="257.742,285.518 260.739,284.283 258.927,282.032 "/>
<polygon fill="#919AB8" points="218.011,299.24 216.686,302.149 226.903,297.834 222.789,296.34 "/>
<polygon opacity="0.53" fill="#919AB8" points="234.692,282.642 225.404,276.76 225.687,286.684 233.003,291.212 234.636,283.703 
	"/>
<polygon opacity="0.53" fill="#919AB8" points="223.837,284.851 223.863,274.65 215.831,277.978 220.181,282.442 "/>
<polygon opacity="0.53" fill="#919AB8" points="193.051,294.015 201.499,301.129 203.74,293.103 "/>
<polygon opacity="0.53" fill="#919AB8" points="186.581,291.162 185.374,296.918 191.943,300.691 191.964,293.348 "/>
<polygon opacity="0.53" fill="#919AB8" points="192.685,302.77 199.198,308.746 200.759,302.762 193.506,296.28 "/>
<polygon fill="#919AB8" points="166.019,291.965 156.882,300.465 152.543,301.682 165.555,290.172 "/>
<polygon opacity="0.53" fill="#919AB8" enable-background="new    " points="163.528,300.72 163.194,300.085 169.03,295.215 
	168.811,293.024 173.454,290.022 172.883,293.606 175.098,294.636 "/>
<polygon opacity="0.53" fill="#919AB8" enable-background="new    " points="231.228,259.038 227.635,264.241 231.449,267.02 
	238.182,263.265 236.194,254.157 "/>
<polygon opacity="0.53" fill="#919AB8" enable-background="new    " points="241.562,250.215 238.986,250.827 239.987,260.86 
	243.648,258.212 "/>
<polygon opacity="0.53" fill="#919AB8" enable-background="new    " points="250.06,252.25 245.825,257.791 248.813,261.166 
	251.874,254.797 "/>
<polygon opacity="0.53" fill="#919AB8" enable-background="new    " points="242.338,249.807 244.376,257.135 249.595,251.366 
	247.752,244.327 "/>
<polygon opacity="0.53" fill="#919AB8" enable-background="new    " points="256.544,232.765 258.367,239.378 249.742,242.716 
	253.192,231.883 "/>
<polygon opacity="0.53" fill="#919AB8" enable-background="new    " points="273.905,233.452 259.315,238.88 257.998,232.596 
	271.478,230.521 "/>
<polygon opacity="0.53" fill="#919AB8" enable-background="new    " points="269.867,242.358 280.836,245.303 279.278,237.41 
	275.176,234.54 "/>
<polygon opacity="0.53" fill="#919AB8" enable-background="new    " points="260.247,239.807 269.062,241.643 273.571,234.502 "/>
<polygon opacity="0.53" fill="#919AB8" enable-background="new    " points="256.591,248.816 260.95,255.097 269.383,248.289 
	268.155,243.604 268.112,243.437 "/>
<polygon opacity="0.53" fill="#919AB8" enable-background="new    " points="256.019,247.729 250.739,243.767 258.601,240.513 
	266.576,242.95 "/>
<polygon opacity="0.53" fill="#919AB8" enable-background="new    " points="250.44,250.922 249.788,244.918 254.637,248.715 "/>
<polygon opacity="0.53" fill="#919AB8" enable-background="new    " points="253.569,255.388 255.498,257.964 259.326,255.331 
	255.719,249.954 "/>
<polygon fill="#919AB8" points="250.905,251.806 252.734,253.801 254.086,250.133 "/>
<path fill="#424041" d="M221.102,234.345l-31.745,22.887l-13.832,10.705c0,0-6.269,2.608-7.624,3.997
	c-1.356,1.388-15.251,7.994-15.251,7.994l4.157,1.309l-4.304,5.034c0,0-2.387,4.723-4.564,5.864
	c-2.178,1.141-4.358,2.284-4.358,2.284l-0.945,8.793l11.438-5.995c4.229-6.664,13.139-12.344,23.349-20.982l72.829-59.007
	L221.102,234.345z"/>
<path fill="#424041" d="M176.942,319.506c1.559-0.82,5.509,6.649,5.509,6.649l4.935-0.514l5.666,5.414
	c25.465-34.767,63.476-44.417,63.476-44.417l6.955-3.492L193.8,312.311L176.942,319.506z"/>
<g opacity="0.22">
	<path opacity="0.53" fill="#919AB8" enable-background="new    " d="M512.489,106.886c-1.012-0.577-2.032-1.108-3.052-1.582
		c-0.23-0.104-0.293-0.309-0.259-0.501c-1.589,0.237-3.182,0.493-4.771,0.776c-0.159,0.03-0.314,0.064-0.474,0.094
		c0.345,2.552,0.503,5.097,0.53,7.644l5.098,4.166c0,0,4.196-5.133,4.972-6.234C515.308,110.146,512.49,106.886,512.489,106.886z"/>
	<path opacity="0.53" fill="#919AB8" enable-background="new    " d="M503.468,112.687c-0.049-2.276-0.208-4.548-0.512-6.827
		c-3.244,0.6-6.465,1.267-9.668,1.981C496.863,109.043,500.27,110.713,503.468,112.687z"/>
	<path opacity="0.53" fill="#919AB8" enable-background="new    " d="M495.968,121.393c2.16,1.421,4.288,2.982,6.316,4.678
		c0.783-4.031,1.196-8.118,1.19-12.236c-3.145-1.993-6.498-3.695-10.025-4.924c1.142,3.852,1.738,7.925,1.863,12.062
		C495.529,121.109,495.753,121.248,495.968,121.393z"/>
	<path opacity="0.53" fill="#919AB8" enable-background="new    " d="M508.822,133.024c0,0,1.557-1.041-0.674-3.843
		c-2.23-2.803-1.134-7.186-1.134-7.186c-0.375-0.332,2.591-3.713,2.212-4.032c-2.049-1.751-2.454-1.955-4.754-3.471
		c-0.04,4.134-0.498,8.253-1.323,12.303L508.822,133.024z"/>
	<path opacity="0.53" fill="#919AB8" enable-background="new    " d="M486.691,116.352c2.674,1.144,5.237,2.516,7.634,3.997
		c-0.167-3.854-0.762-7.628-1.837-11.213c-0.063-0.206,0.009-0.382,0.136-0.503c-0.39-0.126-0.786-0.246-1.183-0.361
		c-2.067,0.477-3.492,1.83-5.54,2.352c0.554,1.501,0.329,2.181,0.439,3.806C486.473,115.069,486.58,115.715,486.691,116.352z"/>
	<path opacity="0.53" fill="#919AB8" enable-background="new    " d="M485.63,115.918c-0.003-0.014-0.003-0.026-0.007-0.044
		c-0.144-0.088-0.249-0.231-0.241-0.427c0.009-0.282-0.008-0.557-0.023-0.835c-0.092-0.445-0.172-0.895-0.276-1.337
		c-0.035-0.146,0.001-0.264,0.07-0.349c-0.189-0.999-0.199-0.32-0.56-1.275c-2.302,0.586-4.238,1.07-6.513,1.714
		c0.299,0.629-0.089-0.244,0.155,0.402C480.762,114.227,483.235,114.97,485.63,115.918z"/>
	<path opacity="0.53" fill="#919AB8" enable-background="new    " d="M494.184,134.073c1.567,1.435,3.051,2.948,4.395,4.562
		c1.486-3.738,2.671-7.563,3.486-11.452c-1.97-1.674-4.039-3.231-6.145-4.642c-0.191-0.133-0.388-0.255-0.584-0.386
		C495.372,126.112,494.964,130.123,494.184,134.073z"/>
	<path opacity="0.53" fill="#919AB8" enable-background="new    " d="M493.325,133.299c0.739-3.912,1.102-7.878,1.021-11.784
		c-2.34-1.484-4.847-2.874-7.467-4.031c0.544,3.687,0.688,7.433,0.489,11.17C489.409,130.083,491.428,131.632,493.325,133.299z"/>
	<path opacity="0.53" fill="#919AB8" enable-background="new    " d="M484.866,126.967c0.514,0.333,1.027,0.677,1.538,1.022
		c0.161-3.666-0.024-7.342-0.602-10.963c-2.327-0.96-4.741-1.732-7.202-2.223c0.958,2.957,1.409,6.12,1.538,9.293
		C481.757,125.011,483.338,125.972,484.866,126.967z"/>
	<path opacity="0.53" fill="#919AB8" enable-background="new    " d="M449.137,149.402c2.159,0.678,4.297,1.385,6.44,2.109
		c0.8-3.967,1.12-8.038,0.932-12.04c-2.641-1.17-5.327-2.257-8.041-3.251c0.536,3.426,0.764,6.912,0.741,10.28
		C449.207,147.457,449.182,148.425,449.137,149.402z"/>
	<path opacity="0.53" fill="#919AB8" enable-background="new    " d="M442.432,147.42c1.932,0.521,3.839,1.094,5.742,1.679
		c0.041-1.052,0.052-2.096,0.05-3.124c-0.019-3.32-0.266-6.754-0.832-10.136c-2.909-1.031-5.854-1.963-8.839-2.782
		c1.306,4.474,1.966,9.161,2.071,13.899C441.223,147.106,441.829,147.255,442.432,147.42z"/>
	<path opacity="0.53" fill="#919AB8" enable-background="new    " d="M419.584,142.77c3.195,0.438,6.389,0.963,9.55,1.571
		c-1.169-4.298-2.748-8.475-4.513-12.368c-3.115,1.465-6.215,2.977-9.294,4.517C417.034,138.446,418.441,140.557,419.584,142.77z"/>
	<path opacity="0.53" fill="#919AB8" enable-background="new    " d="M439.627,146.695c-0.121-4.754-0.823-9.457-2.199-13.94
		c-2.266-0.597-4.553-1.139-6.862-1.603c-0.624-0.128-0.475-1.082,0.148-0.957c2.133,0.435,4.247,0.936,6.347,1.477
		c-0.509-1.542-1.081-3.061-1.757-4.542c-3.28,1.427-6.538,2.905-9.776,4.429c1.855,4.087,3.5,8.486,4.69,13.005
		C433.379,145.196,436.514,145.907,439.627,146.695z"/>
	<path opacity="0.53" fill="#919AB8" enable-background="new    " d="M418.401,142.617c-1.084-2-2.391-3.897-3.972-5.665
		c-2.471,1.244-4.922,2.511-7.373,3.791c0.298,0.256,0.579,0.522,0.851,0.801C411.415,141.798,414.923,142.159,418.401,142.617z"/>
	<path opacity="0.53" fill="#919AB8" enable-background="new    " d="M447.214,134.752c-0.737-3.881-1.52-6.876-3.397-10.27
		c-2.4,0.986-5.217,1.214-7.598,2.25c0.774,1.693,1.438,3.445,2.007,5.235C441.26,132.781,444.258,133.716,447.214,134.752z"/>
	<path opacity="0.53" fill="#919AB8" enable-background="new    " d="M460.575,140.27c1.26,0.606,2.509,1.234,3.754,1.878
		c0.015-0.258,0.032-0.518,0.043-0.767c0.158-3.386,0.06-6.851-0.336-10.288c-2.833-1.315-5.72-2.497-8.653-3.535
		c1.177,3.575,1.859,7.388,2.085,11.272C458.508,139.305,459.547,139.778,460.575,140.27z"/>
	<path opacity="0.53" fill="#919AB8" enable-background="new    " d="M456.443,138.379c-0.276-3.884-1.017-7.682-2.254-11.224
		c-2.935-1-5.894-1.871-8.868-2.59c-0.604-0.147-0.456-1.098,0.155-0.949c2.652,0.637,5.294,1.407,7.908,2.259
		c-0.455-1.862-0.098-1.449-0.965-3.148c-2.388,0.91-5.266,0.53-7.63,1.49c1.979,3.634,2.756,6.774,3.498,10.917
		C451.046,136.125,453.763,137.202,456.443,138.379z"/>
	<path opacity="0.53" fill="#919AB8" enable-background="new    " d="M484.805,143.062c1.473,1.241,2.886,2.529,4.256,3.866
		c1.772-3.974,3.146-8.198,4.043-12.509c-1.839-1.651-3.799-3.188-5.799-4.612C486.978,134.28,486.123,138.729,484.805,143.062z"/>
	<path opacity="0.53" fill="#919AB8" enable-background="new    " d="M454.155,124.279c0.302,0.7,0.57,1.414,0.837,2.134
		c3.019,1.043,5.99,2.237,8.906,3.563c-0.58-4.31-0.803-6.089-2.548-9.99c-0.194-0.04,0,0-0.198-0.037
		c-2.523,0.881-5.352,1.362-7.85,2.313c0.629,1.248,0.203,0.444,0.609,1.783C454.016,124.086,454.106,124.156,454.155,124.279z"/>
	<path opacity="0.53" fill="#919AB8" enable-background="new    " d="M470.84,121.991c-0.469-1.582-1.017-3.141-1.671-4.637
		c-0.244-0.564,0.685-0.934,0.927-0.375c0.776,1.773,1.42,3.615,1.941,5.495c2.436,1.023,4.805,2.178,7.099,3.433
		c-0.164-3.062-0.64-6.105-1.622-8.923c-2.422-0.394-4.877-0.512-7.341-0.252c-0.199,0.02-0.341-0.061-0.435-0.178
		c-2.679,0.842-5.347,1.714-8.001,2.624C464.842,119.859,467.886,120.82,470.84,121.991z"/>
	<path opacity="0.45" fill="#919AB8" enable-background="new    " d="M495.041,125.858c-0.165,2.708-0.505,5.428-1.039,8.115
		c1.567,1.431,3.048,2.947,4.397,4.567c1.483-3.742,2.669-7.57,3.489-11.455c-0.882-0.75-1.785-1.458-2.693-2.158
		C497.809,125.234,496.424,125.547,495.041,125.858z"/>
	<path opacity="0.45" fill="#919AB8" enable-background="new    " d="M487.213,127.715c-0.012,0.282-0.012,0.564-0.027,0.839
		c2.048,1.436,4.06,2.977,5.959,4.643c0.448-2.35,0.735-4.732,0.894-7.1C491.759,126.614,489.483,127.152,487.213,127.715z"/>
	<path opacity="0.45" fill="#919AB8" enable-background="new    " d="M434.719,145.479c1.582,0.355,3.155,0.719,4.73,1.122
		c-0.031-1.1-0.104-2.186-0.199-3.274C437.739,144.041,436.23,144.754,434.719,145.479z"/>
	<path opacity="0.45" fill="#919AB8" enable-background="new    " d="M464.116,133.933c-2.361,0.686-4.72,1.391-7.064,2.106
		c0.097,0.892,0.183,1.796,0.238,2.699c1.037,0.46,2.075,0.938,3.104,1.432c1.26,0.608,2.507,1.235,3.756,1.877
		c0.013-0.254,0.03-0.511,0.041-0.766C464.305,138.862,464.275,136.398,464.116,133.933z"/>
	<path opacity="0.53" fill="#919AB8" enable-background="new    " d="M510.409,105.302c0,0,1.228,0.595,2.495,1.31
		c1.267,0.714,2.202,3.835,2.202,3.835c3.008-4.591,1.077-6.545,1.077-6.545L510.409,105.302z"/>
</g>
<path fill="#424041" d="M420.989,136.239c-47.86,20.525-94.192,40.757-136.638,64.164C203.027,245.25,96.14,355.088,96.14,355.088
	c-16.778,8.824,35.388-41.661,35.388-41.661s100.478-91.858,162.579-124.514c62.102-32.655,110.508-58.325,131.502-61.056
	c33.434-4.347,84.492-30.548,90.785-23.683C516.395,104.173,464.83,117.437,420.989,136.239z"/>
<path fill="#FFFFFF" d="M474.16,127.855l-4.557,1.325l-0.793,4.067l2.452,8.678l6.888,0.834c0,0,4.701-4.349,5.995-5.993
	c1.295-1.644-3.08-5.859-3.08-5.859L474.16,127.855z"/>
<g>
	<path fill="#312F2D" d="M483.071,123.797c-1.021-1.237-2.123,1.354-1.112,2.239c3.445,3.019,3.587,6.595,2.129,9.832
		c-0.008-0.447-0.032-0.898-0.1-1.341c-0.892-5.919-6.721-8.286-11.928-7.97c-0.141,0.007-0.273,0.068-0.396,0.138
		c-2.811,0.131-5.022,3.326-5.268,6.237c-0.114,1.349,0.095,2.542,0.513,3.621c0.339,4.988,5.42,8.495,10.049,8.179
		c0.113-0.011,0.221-0.029,0.331-0.047C481.112,144.202,492.492,135.263,483.071,123.797z M478.468,141.061
		c-1.091,0.204-6.65,3.782-9.185-7.463c-0.071-1.987,2.783-5.328,6.354-4.396c1.997,0.344,4.627,2.085,6.047,3.646
		C484.072,135.468,482.532,140.301,478.468,141.061z"/>
</g>
<circle fill="#312F2D" cx="475.604" cy="135.06" r="3.412"/>
<polygon opacity="0.22" fill="#919AB8" enable-background="new    " points="464.631,120.439 462.447,121.588 464.791,128.801 
	467.296,128.882 470.211,122.996 "/>
<path opacity="0.22" fill="#919AB8" enable-background="new    " d="M471.827,123.178c0,0-4.332,5.299-2.206,3.381
	s7.857-0.206,7.857-0.206L471.827,123.178z"/>
<polygon opacity="0.22" fill="#919AB8" enable-background="new    " points="464.665,143.872 463.808,152.128 456.363,151.74 
	457.724,140.557 "/>
<g opacity="0.53" enable-background="new    ">
	<path fill="#D1D8E8" d="M460.942,182.365c-0.439,0.732-0.884,1.462-1.304,2.209c-8.673,3.249-21.147-0.872-28.403-6.029
		c-5.273-3.739-8.819-8.373-11.076-13.398c0.165-5.361,2.216-10.257,4.816-14.97C428.951,165.594,442.744,181.022,460.942,182.365z"
		/>
	<path fill="#D1D8E8" d="M445.972,162.586c3.214,7.412,8.798,12.299,15.622,15.258c0.031,0.817-0.005,1.625-0.028,2.433
		c-18.381-0.893-32.023-17.941-34.627-33.5c0.653-1.083,1.314-2.151,1.98-3.226c4.147-4.75,8.08-9.639,11.993-14.545
		c0.609-0.761,1.259-1.5,1.888-2.257c-3.735,6.661-5.104,14.219-2.943,22.041C441.068,153.18,443.082,158.055,445.972,162.586z"/>
</g>
<path fill="#292A28" d="M142.401,314.553c0,0,0,0-27.592,12.154c-27.593,12.154-80.981,13.645-80.981,13.645l-5.931,6.821
	c0,0,1.199,2.734,2.57,4.705c1.373,1.971,1.955,4.356,3.049,5.799c1.095,1.442,7.544,4.108,7.544,4.108l12.451,3.844l-9.955,6.664
	l1.089,6.551l4.384,8.336l7.797,2.67l-0.466,3.594l3.423,6.51l6.989,1.137l-0.016,5.729c0,0,0.508,11.846,10.138,7.121
	c9.627-4.729,50.678-72.615,50.678-72.615L142.401,314.553z"/>
<path fill="#424041" d="M351.717,226.01l-5.007,8.901l8.066-4.45l2.782,2.225c0,0,51.734-42.278,57.576-44.225
	s5.842-1.947,5.842-1.947l2.225-3.894l-1.763-10.262l1.087-4.404c0,0-0.993-2.301-2.384-2.301s-9.179,0-9.735,1.113
	s-3.06,3.338-4.729,5.007s-63.696,50.066-65.087,55.629C339.2,232.964,351.717,226.01,351.717,226.01z"/>
<path opacity="0.53" fill="#919AB8" enable-background="new    " d="M418.98,173.281c0.375-0.197,1.814-1.114,1.814-1.114
	s1.439-3.958,0.99-4.202c-0.448-0.244-1.531-1.801-1.531-1.801l-4.682,0.438l-4.134,0.37l-2.911,3.008l-4.226,3.633l-49.67,40.706
	l51.51-40.012c0,0-49.512,42.042-48.654,40.447c3.873-0.978,50.345-37.265,55.605-41.357"/>
<path opacity="0.45" fill="#919AB8" enable-background="new    " d="M418.24,179.204c0.375-0.197,1.814-1.114,1.814-1.114
	s1.439-3.958,0.99-4.202c-0.448-0.244-0.856-1.63-0.856-1.63l-1.835,0.165l-7.655,0.093l-2.911,3.387l-4.226,3.633l-49.67,40.706
	l51.51-40.012c0,0-49.512,42.042-48.654,40.447c3.873-0.978,50.345-37.265,55.605-41.357"/>
<polygon opacity="0.53" fill="#919AB8" points="236.789,238.88 233.98,246.166 238.474,249.267 239.479,238.306 "/>
<polyline opacity="0.53" fill="#919AB8" points="236.73,235.095 236.73,237.371 240.353,236.232 243.648,234.701 237.618,232.971 
	236.193,235.171 "/>
<polygon opacity="0.53" fill="#919AB8" points="212.307,277.263 213.433,272.206 215.841,273 "/>
<path opacity="0.53" fill="#919AB8" d="M214.074,277.263c0.215-0.486,13.359-12.1,13.359-12.1l3.123,2.486l-15.729,10.43
	L214.074,277.263z"/>
<polygon opacity="0.53" fill="#919AB8" points="224.871,260.119 227.789,261.851 231.748,256.573 228.31,255.097 "/>
<polygon opacity="0.53" fill="#919AB8" points="229.438,253.517 233.336,255.521 237.973,251.314 232.908,248.875 "/>
<polygon fill="#919AB8" points="236.73,254.157 238.474,261.098 239.343,260.219 238.182,252.25 "/>
<polygon opacity="0.53" fill="#919AB8" points="204.225,291.162 208.449,284.851 204.796,283.419 199.596,288.185 "/>
<polygon opacity="0.53" fill="#919AB8" points="206.184,282.001 209.869,283.034 212.654,278.772 211.972,278.079 "/>
<polygon opacity="0.53" fill="#919AB8" points="193.051,293 202.443,292.063 199.596,288.185 194.721,289.323 "/>
<polygon opacity="0.53" fill="#919AB8" points="183.724,286.829 182.666,290.022 187.385,290.172 191.332,292.063 193.051,289.323 
	"/>
<polygon fill="#919AB8" points="182.607,291.337 180.78,294.754 184.381,295.927 185.765,291.337 "/>
</svg>
