<?xml version="1.0" encoding="utf-8"?>
<!-- Generator: Adobe Illustrator 15.0.0, SVG Export Plug-In . SVG Version: 6.00 Build 0)  -->
<!DOCTYPE svg PUBLIC "-//W3C//DTD SVG 1.1//EN" "http://www.w3.org/Graphics/SVG/1.1/DTD/svg11.dtd">
<svg version="1.1" id="Capa_1" xmlns="http://www.w3.org/2000/svg" xmlns:xlink="http://www.w3.org/1999/xlink" x="0px" y="0px"
	 width="586px" height="586px" viewBox="0 0 586 586" enable-background="new 0 0 586 586" xml:space="preserve">
<g opacity="0.3">
	<path fill="#54D9FB" d="M70.81,417.444c22.295,8.044,42.563,15.354,73.325,15.178c78.306-0.173,158.679-56.046,226.169-17.88
		c-85.04-13.354-143.348,42.008-227.035,32.889C116.347,444.591,92.172,434.637,70.81,417.444z"/>
	<path fill="#005B8D" d="M208.648,450.037c66.619,2.848,111.874-11.994,162.559-29.979c43.302-12.416,96.697-17.286,130.835,12.266
		c-35.703-13.419-74.74-8.632-107.449,0.634C364.757,442.355,285.057,479.107,208.648,450.037z"/>
	<path fill="#005B8D" d="M47.56,428.124c21.021,12.87,79.928,36.858,141.687,46.008c98.887,14.526,161.071-21.081,186.024-29.396
		c-31.293,22.112-59.377,44.475-121.734,50.553C166.205,503.091,82.025,464.645,47.56,428.124z"/>
	<path fill="#54D9FB" d="M183.182,417.444c78.172-51.435,137.21-59.425,198.282-51.679c33.334,5.146,124.838,33.898,165.965,26.213
		c-37.347,17.506-110.465,4.058-152.211-4.174C295.669,370.598,244.849,398.732,183.182,417.444z"/>
</g>
<g id="lineas">
</g>
<path fill="#CFCDDB" d="M582.834,250.477l-227.488-9.77c0,0-162.562-36.286-221.91-36.286c-59.348,0-130.309,21.287-130.309,21.287
	l4.515,5.806l-4.515,4.516c0,0,21.899,22.578,41.269,32.254l21.305,3.87c0,0,13.547,3.871,15.481,3.871c1.937,0,21.303,0,21.303,0
	s50.695,5.338,88.111,0.823c0,0,62.237-15.465,144.904-16.74s247.334-7.964,247.334-7.964"/>
<polygon fill="#CFCDDB" points="212.308,270.994 236.283,284.286 252.394,288.997 263.559,284.729 276.186,280.014 253.12,262.203 
	"/>
<polyline fill="#CFCDDB" points="104.728,277.064 112.147,282.154 132.145,291.184 132.145,288.928 136.338,288.281 
	139.563,284.124 129.887,277.064 104.728,275.879 "/>
<path fill="#9696B2" d="M116.122,200.256l31.348-8.471c0,0,4.635,8.9,7.829,9.237c3.192,0.338-0.447,2.094,4.351,1.543
	c4.798-0.55,37.051-9.083,37.051-9.083l10.663,4.955l9.062,0.825l10.176,3.303h4.219c0,0,8.263,4.955,11.729,4.955
	c3.465,0,6.153,1.101,6.153,1.101l4.243,4.308h7.382l6.744,3.398h8.529l18.66,8.258l-0.58,4.597c0,0-148.495-24.551-177.412-24.551
	C107.809,204.631,116.122,200.256,116.122,200.256z"/>
<path fill="#9696B2" d="M7.791,231.514l-4.516-5.806c0,0,70.959-21.288,130.309-21.288c59.349,0,160.096,24.762,160.096,24.762
	l243.005,21.861c0,0-188.118-9.788-243.185-11.079c0,0-98.858-23.99-157.884-23.99C76.59,215.974,7.791,231.514,7.791,231.514z"/>
<g>
	<path opacity="0.55" fill="#282F39" enable-background="new    " d="M38.655,242.406c1.708-0.398,3.271-1.261,4.711-2.256
		c1.79-1.232,3.45-2.711,4.572-4.574c6.217-10.33-7.303-21.16-16.779-15.418C21.132,226.238,26.001,245.358,38.655,242.406z"/>
	<path fill="#282F39" d="M38.01,236.999c0.957-0.222,1.836-0.708,2.646-1.268c1.008-0.695,1.942-1.526,2.57-2.573
		c3.5-5.809-4.105-11.896-9.431-8.667C28.157,227.91,30.895,238.66,38.01,236.999z"/>
	<path fill="#FFFFFF" d="M36.358,231.347c0.315-0.074,0.604-0.232,0.867-0.416c0.329-0.227,0.633-0.499,0.842-0.841
		c1.146-1.901-1.342-3.892-3.085-2.836C33.135,228.372,34.031,231.887,36.358,231.347z"/>
</g>
<path fill="#B3B1BC" d="M79.363,238.263c-0.332,2.773-1.547,5.367-2.976,7.769c-6.715,11.282-18.743,19.242-31.753,21.018
	c9.364,3.039,20.269,0.734,27.602-5.831c4.947-4.429,8.143-10.683,9.091-17.231c0.415-2.877,0.838-7.047-0.311-9.81
	c-0.53-1.275-1.146-2.446-1.991-0.752C78.638,234.197,79.493,237.165,79.363,238.263z"/>
<g>
	<path fill="#FFFFFF" d="M190.656,226.391c13.199,3.063,26.977,2.735,40.327,5.256c12.269,2.317,24.954,8.049,37.376,8.452
		c1.428,0.046,1.789-1.856,0.695-2.566c-10.618-6.885-26.55-8.1-38.82-9.776c-12.886-1.764-26.696-4.162-39.578-1.523
		C190.576,226.25,190.576,226.372,190.656,226.391L190.656,226.391z"/>
</g>
<g opacity="0.32">
	<path fill="#FFFFFF" d="M272.122,230.938c-8.101-11.644-22.131-15.364-35.505-17.543c-15-2.447-30.021-4-45.222-4.403
		c-30.797-0.818-61.688,2.177-91.915,8.044c-22.514,4.37-13.088,40.68,9.573,34.72c27.018-7.108,54.409-11.118,82.342-11.839
		c13.824-0.359,27.741-0.161,41.55,0.597c12.963,0.71,26.679,1.799,38.08-5.392C272.336,234.295,273.091,232.336,272.122,230.938
		L272.122,230.938z"/>
</g>
<g>
	<polyline fill="#CFCDDB" points="113.013,205.277 155.712,193.343 156.956,195.349 115.803,205.695 113.013,205.695 	"/>
	<polyline fill="#CFCDDB" points="121.921,205.929 157.396,196.014 158.656,197.8 124.494,206.089 121.921,206.348 	"/>
	<polyline fill="#CFCDDB" points="130.488,206.663 159.283,198.615 161.222,200.788 132.436,207.081 130.488,207.081 	"/>
	<polyline fill="#CFCDDB" points="142.522,206.663 161.771,201.283 164.295,202.611 144.47,207.081 142.522,207.081 	"/>
</g>
<path fill="#B3B1BC" d="M10.039,234.718c2.414,0.786,4.999,1.962,7.502,3.199c11.765,5.81,22.71,13.459,28.897,20.197
	c-0.886-3.877-6.748-9.707-14.836-14.757c-5.457-3.407-11.786-6.371-17.544-8.306c-2.529-0.851-6.13-1.994-7.997-2.057
	c-0.862-0.029-1.605,0.007,0.102,0.8C6.941,234.155,9.084,234.408,10.039,234.718z"/>
<g>
	<g>
		<g>
			<path fill="#9696B2" d="M220.811,272.39c3.637,5.897,10.718,9.486,15.869,12.098c6.185,3.135,13.97,5.887,18.746,3.756
				c0.504-0.227,2.502-0.629,1.771-0.682c-5.271-0.38-12.291-1.023-18.089-3.445c-2.967-1.238-5.884-2.857-8.8-4.771
				c-2.87-1.885-6.854-4.174-9.083-7.15C220.986,271.876,220.596,272.041,220.811,272.39L220.811,272.39z"/>
		</g>
	</g>
</g>
<g>
	<g>
		<path fill="#9696B2" d="M225.823,270.119c4.84,7.839,16.579,12.491,23.881,13.635c15.074,1.01,11.827,2.239,23.265-2.04
			c0.355-0.514,3.741-1.777,3.218-1.7c-3.581,0.522-13.398,1.318-17.162,1.397c-3.083,0.066-4.782-0.162-7.941-0.467
			c-4.433-0.423-8.447-1.547-12.892-3.676c-3.733-1.791-9.1-4.111-12.252-7.239C225.872,269.968,225.772,270.037,225.823,270.119
			L225.823,270.119z"/>
	</g>
</g>
<g>
	<g>
		<path fill="#9696B2" d="M226.988,264.715c4.839,7.839,16.58,12.492,23.881,13.634c7.018,1.097,14.288,2.161,20.935-1.533
			l-2.912-2.02c-3.58,0.522-4.938,1.131-8.703,1.212c-3.082,0.065-4.78-0.164-7.94-0.466c-4.433-0.425-8.447-1.547-12.893-3.677
			c-3.733-1.79-9.099-4.111-12.252-7.238C227.038,264.563,226.937,264.634,226.988,264.715L226.988,264.715z"/>
	</g>
</g>
<g>
	<g>
		<path fill="#9696B2" d="M263.639,271.154c-3.139-0.406-2.489-0.299-5.203-0.701c-4.43-0.423-8.446-1.547-12.891-3.676
			c-3.734-1.79-9.1-4.112-12.252-7.238c-0.064-0.064-0.165,0.007-0.114,0.089l0,0c4.838,7.838,16.579,12.491,23.879,13.634
			c7.854,1.227,5.316,1.016,11.084,1.016L263.639,271.154z"/>
	</g>
</g>
<polygon fill="#9696B2" points="107.273,276 132.145,291.184 132.145,288.928 "/>
<polygon fill="#9696B2" points="112.47,276.244 134.316,288.593 136.338,288.281 "/>
<polygon fill="#9696B2" points="118.448,277.213 137.263,287.088 138.71,285.225 "/>
<polygon fill="#9696B2" points="124.404,276.807 133.396,279.625 129.887,277.064 "/>
<g>
	<path opacity="0.59" fill="#9696B2" enable-background="new    " d="M136.853,209.665c-2.733,3.171-2.578,2.029-3.606,6.256
		c-1.526,6.278,1.32,12.152,6.539,15.617c0.646,0.429,1.25-0.492,0.786-1.021l0,0c-5.351-6.151-4.965-13.804,0.299-19.803
		L136.853,209.665z"/>
</g>
<g>
	<path opacity="0.59" fill="#9696B2" enable-background="new    " d="M158.888,234.896c0.074-5.974,5.907-9.113,6.31-14.836
		c0.316-4.509-3.434-6.753-5.239-10.382c-1.834-3.688-7.106-0.456-5.463,3.196c0.696,1.556,1.699,2.538,2.73,3.833
		c2.43,3.051,2.002,4.372,0.334,7.671c-2.01,3.965-1.65,6.624-0.121,10.712C157.721,235.841,158.875,235.771,158.888,234.896
		L158.888,234.896z"/>
</g>
<g>
	<path opacity="0.59" fill="#9696B2" enable-background="new    " d="M121.696,208.783c2.592-0.4,1.632-1.047,1.942,1.141
		c0.221,1.558,0.931,0.673,0.229,1.966c-0.886,1.638-2.179,3.509-2.561,5.374c-0.884,4.3,2.51,7.236,5.888,9.065
		c3.09,1.675,5.846-3.02,2.757-4.717c-5.222-2.871-1.889-5.886-0.526-9.606c0.724-1.971,0.287-0.617-0.717-2.541
		c-1.931-3.705,3.402-2.092-0.859-0.682c-0.785,0.261-7.228,1.902-6.439,1.779L121.696,208.783z"/>
</g>
<g>
	<path opacity="0.59" fill="#9696B2" enable-background="new    " d="M149.677,222.097c-0.015-0.026-0.028-0.053-0.045-0.078
		c-0.139,0.529-0.277,1.056-0.417,1.581c0.261-0.211,0.42-0.567,0.532-0.869c0-0.008,0.173-0.628,0.074-0.355
		c0.12-0.331,0.325-0.652,0.454-0.989c0.125-0.326,0.136-0.563-0.024-0.143c-0.186,0.487,0.43-0.58,0.543-0.805
		c0.347-0.708-0.404,0.331,0.125-0.189c0.846-0.831,1.361-1.809,1.365-3.012c0.005-1.564-1.039-2.595-2.388-3.137
		c-1.866-0.749-3.942,0.626-4.66,2.321c-0.293,0.697-0.453,1.326-0.511,2.088c-0.017,0.189-0.031,0.37-0.022,0.563
		c0.038,0.282,0.075,0.566,0.113,0.848c-0.025-0.398-0.014-0.355,0.041,0.13c0.163,1.041,0.334,1.891,0.973,2.774
		c0.694,0.962,1.894,1.68,3.06,1.032c-0.419,0.055-0.835,0.108-1.253,0.165c0.154,0.064,0.311,0.102,0.475,0.115
		C149.23,224.318,150.365,223.214,149.677,222.097L149.677,222.097z"/>
</g>
<g>
	<path opacity="0.59" fill="#9696B2" enable-background="new    " d="M108.385,208.783c2.035-0.072,3.169-0.132,3.138,1.541
		c-0.024,1.173-0.797,2.091-1.333,3.062c-1.146,2.066-1.498,3.879-1.133,6.209c0.654,4.166,7.247,2.465,6.412-1.767
		c-0.324-1.642,1.173-3.628,1.307-5.297c0.155-1.938-0.537-3.593-1.627-5.16c-1.717-2.462,0.452,0.236-2.611,0.679
		c-1.237,0.178-5.81,1.458-4.58,1.415L108.385,208.783z"/>
</g>
<g>
	<path opacity="0.59" fill="#9696B2" enable-background="new    " d="M92.432,212.06c1.873,0.121,3.953,1.319,4.246,3.318
		c0.141,0.959-0.243,1.936-0.41,2.872c-0.229,1.287-0.324,2.569-0.246,3.873c0.262,4.353,7.068,4.381,6.806,0
		c-0.215-3.57-0.369-7.83-3.283-10.323c-2.151-1.843-4.943-2.345-7.497-1.154C91.313,210.988,91.748,212.016,92.432,212.06
		L92.432,212.06z"/>
</g>
<g>
	<path opacity="0.59" fill="#9696B2" enable-background="new    " d="M89.911,226.44c1.306-2.123,2.062-5.772,1.349-8.186
		c-0.423-1.431-1.34-2.616-2.52-3.5c-0.571-0.428-1.21-0.685-1.791-1.077c-0.733-0.493-1.187-1.155-1.875-1.702
		c-1.216-0.964-3.324-1.147-4.139,0.534c-0.837,1.729-0.692,3.322,0.527,4.815c1.088,1.332,3.012,1.553,4.05,2.74
		c0.934,1.066,0.796,3.188,1.384,4.46c0.483,1.045,1.052,1.896,2.179,2.253C89.393,226.879,89.744,226.71,89.911,226.44
		L89.911,226.44z"/>
</g>
<g>
	<path opacity="0.59" fill="#9696B2" enable-background="new    " d="M79.253,228.128c0.393-0.888,0.432-1.735,0.544-2.691
		c0.1-0.849,0.43-1.633,0.621-2.455c0.665-2.909-3.224-4.633-4.835-2.04c-1.444,2.32-1.127,7.668,2.395,7.919
		C78.443,228.894,79.057,228.566,79.253,228.128L79.253,228.128z"/>
</g>
<g>
	<path opacity="0.59" fill="#9696B2" enable-background="new    " d="M71.128,230.576c-0.212-1.151-0.021-2.287-0.361-3.444
		c-0.3-1.019-0.84-1.914-1.576-2.68c-0.709-0.743-1.629-1.296-2.466-1.884c-1.27-0.893-2.095-1.439-3.741-1.192
		c-1.201,0.18-1.812,1.468-1.917,2.519c-0.253,2.476,2.633,3.761,4.495,4.636c0.809,0.378,1.568,0.645,2.208,1.287
		c0.644,0.644,1.323,1.264,2.117,1.716C70.567,231.916,71.257,231.282,71.128,230.576L71.128,230.576z"/>
</g>
<path fill="#9696B2" d="M91.418,252.813c0,0-1.923-8.709,0-14.031c1.923-5.322,47.91-1.936,47.91-1.936s-39.674,20.321-47.155,22.74
	c-3.741,1.209-5.022,0.121-5.367-1.271c-0.346-1.391,0.243-3.084,0.243-3.084L91.418,252.813z"/>
<polygon fill="#B0B0BC" points="91.534,240.1 134.985,238.743 130.488,241.226 "/>
<polygon fill="#B0B0BC" points="90.645,242.713 125.682,243.754 121.921,245.636 "/>
<polygon fill="#B0B0BC" points="90.645,245.636 116.797,248.18 112.011,250.533 "/>
<polygon fill="#B0B0BC" points="90.856,249.34 107.273,252.833 102.835,254.948 "/>
<polygon fill="#B0B0BC" points="91.666,253.234 98.439,256.983 92.766,259.381 "/>
<path opacity="0.59" fill="#9696B2" enable-background="new    " d="M342.033,233.231c0,0,22.9-11.611,27.738-11.611
	s20.965,5.806,20.965,5.806l35.481,1.935h45.154l12.902,3.871l14.191,1.29c0,0,39.674,10.321,50.962,11.289
	c11.29,0.968,38.061,1.29,38.061,1.29s-14.838,12.903-53.22,13.547c-38.383,0.645-46.77,0-46.77,0l-3.871,3.226l-11.934-2.581
	c0,0,5.482,5.161-6.936,4.516c-12.417-0.646-12.097-1.292-13.708-1.292s-38.772,4.176-54.579,3.855
	c-15.804-0.322-35.501-8.858-35.501-8.858l167.267-6.912l-186.207-11.146v-8.225H342.033z"/>
<g>
	<g>
		<polyline fill="#9696B2" points="342.033,235.017 369.773,221.62 373.411,222.136 342.033,236.957 342.033,236.131 		"/>
		<polyline fill="#9696B2" points="344.571,237.168 374.392,222.446 377.371,223.129 347.128,236.85 344.647,237.578 		"/>
		<polyline fill="#9696B2" points="353.3,236.124 378.803,223.535 382.418,224.666 355.292,236.174 353.378,236.534 		"/>
		<polyline fill="#9696B2" points="365.293,233.898 383.214,225.05 385.94,225.889 367.282,233.949 365.37,234.309 		"/>
	</g>
	<g>
		<polygon fill="#9696B2" points="376.629,240.188 404.211,228.16 400.033,227.933 375.615,239.726 		"/>
		<polyline fill="#9696B2" points="378.153,241.878 405.804,228.226 409.597,228.455 380.71,241.56 378.229,242.288 		"/>
		<polyline fill="#9696B2" points="385.94,241.346 411.442,228.757 415.91,228.799 387.954,241.023 386.017,241.757 		"/>
		<polygon fill="#9696B2" points="400.865,238.658 421.095,229.288 417.469,228.884 394.874,240.188 		"/>
	</g>
	<g>
		<polyline fill="#9696B2" points="400.902,240.675 424.423,229.314 428.897,229.325 401.439,241.757 400.902,241.79 		"/>
		<polyline fill="#9696B2" points="403.438,242.826 430.808,229.314 434.773,229.453 405.995,242.507 403.515,243.236 		"/>
		<polyline fill="#9696B2" points="412.034,241.903 437.536,229.314 441.409,229.361 414.028,241.955 412.112,242.314 		"/>
		<polyline fill="#9696B2" points="425.321,238.163 443.24,229.314 446.77,229.361 427.311,238.214 418.375,241.976 		"/>
	</g>
	<g>
		<polyline fill="#9696B2" points="429.556,238.64 448.767,229.361 453.405,229.314 429.556,240.579 429.556,239.754 		"/>
		<polyline fill="#9696B2" points="432.093,240.79 455.002,229.481 458.909,229.466 434.652,240.472 432.17,241.2 		"/>
		<polyline fill="#9696B2" points="440.823,239.746 461.954,229.314 467.198,229.314 442.816,239.796 440.9,240.157 		"/>
		<polyline fill="#9696B2" points="452.816,237.521 469.438,229.314 472.013,229.441 454.806,237.572 452.893,237.931 		"/>
	</g>
	<g>
		<polygon fill="#9696B2" points="511.406,247.724 535.921,243.474 530.918,242.391 511.922,245.855 500.595,247.384 		"/>
		<polyline fill="#9696B2" points="513.51,248.605 538.899,244.028 542.865,244.899 516.06,248.978 513.475,249.02 		"/>
		<polyline fill="#9696B2" points="522.488,249.922 547.26,245.688 553.863,246.119 524.394,250.502 522.452,250.339 		"/>
		<polyline fill="#9696B2" points="534.64,250.971 557.061,246.3 561.795,246.485 536.685,251.043 534.766,251.013 		"/>
	</g>
	<g>
		<polyline fill="#9696B2" points="363.508,238.995 388.519,226.648 390.737,227.426 366.065,238.676 363.583,239.405 		"/>
		<polyline fill="#9696B2" points="371.294,238.464 393.364,227.568 397.029,227.769 373.311,238.141 371.371,238.874 		"/>
	</g>
	<g>
		<polyline fill="#9696B2" points="451.51,241.383 474.474,230.292 477.044,231.261 451.51,243.323 451.51,242.497 		"/>
		<polyline fill="#9696B2" points="454.046,243.534 478.453,231.484 481.011,232.251 456.605,243.215 454.122,243.944 		"/>
		<polyline fill="#9696B2" points="462.778,242.489 482.569,232.719 486.035,233.623 464.77,242.54 462.853,242.9 		"/>
		<polyline fill="#9696B2" points="474.769,240.264 488.219,233.623 491.612,233.898 476.759,240.315 474.846,240.675 		"/>
	</g>
	<g>
		<polyline fill="#9696B2" points="474.769,244.823 496.473,234.34 499.903,234.892 474.769,246.762 474.769,245.938 		"/>
		<polyline fill="#9696B2" points="477.305,246.974 500.886,235.333 503.673,235.854 479.863,246.655 477.382,247.384 		"/>
		<polyline fill="#9696B2" points="486.035,245.93 505.508,236.317 508.844,237.148 488.029,245.98 486.112,246.341 		"/>
		<polyline fill="#9696B2" points="498.029,243.705 510.479,237.558 512.951,238.167 500.018,243.755 498.105,244.114 		"/>
	</g>
	<polygon fill="#9696B2" points="498.417,246.341 527.531,241.629 523.661,240.675 508.867,243.029 	"/>
	<polyline fill="#9696B2" points="511.922,239.759 516.763,239.095 520.651,240.025 511.406,241.629 511.625,240.833 	"/>
</g>
<g>
	<g>
		<polygon fill="#9696B2" points="559.721,257.589 547.272,249.935 543.598,250.067 556.76,258.066 558.484,257.797 		"/>
		<polygon fill="#9696B2" points="555.056,258.309 541.725,250.345 539.097,250.573 553.016,258.566 553.865,258.462 		"/>
		<polygon fill="#9696B2" points="549.928,258.896 548.905,258.946 535.31,250.899 537.874,250.678 551.081,258.782 		"/>
		<polygon fill="#9696B2" points="545.903,259.22 532.827,251.111 529.575,251.385 543.416,259.367 544.883,259.285 		"/>
	</g>
	<g>
		<polygon fill="#9696B2" points="526.841,259.55 515.778,252.52 517.495,252.383 528.67,259.557 		"/>
		<polygon fill="#9696B2" points="523.618,259.534 513.301,252.72 510.47,252.947 520.909,259.52 522.037,259.526 		"/>
		<polygon fill="#9696B2" points="517.233,259.49 507.391,253.191 504.784,253.396 514.842,259.466 515.094,259.47 		"/>
		<polygon fill="#9696B2" points="509.226,259.403 500.415,253.736 502.55,253.57 511.707,259.447 		"/>
	</g>
	<g>
		<polygon fill="#9696B2" points="506.238,259.351 497.792,253.938 494.81,254.166 502.975,259.289 503.91,259.308 		"/>
		<polygon fill="#9696B2" points="499.642,259.212 491.887,254.387 490.07,254.524 496.692,259.131 498.199,259.174 		"/>
		<polygon fill="#9696B2" points="494.448,259.057 487.659,254.704 484.326,254.951 490.753,258.832 492.796,258.993 		"/>
		<polygon fill="#9696B2" points="487.785,259.155 487.307,259.539 480.041,255.264 482.504,254.969 488.289,258.749 		"/>
	</g>
	<g>
		<polygon fill="#9696B2" points="486.315,260.338 478.151,255.401 475.611,255.583 484.98,261.411 485.84,260.72 		"/>
		<polygon fill="#9696B2" points="482.925,261.569 473.667,255.721 471.042,255.907 479.198,260.695 481.379,261.206 		"/>
		<polygon fill="#9696B2" points="473.758,259.365 468.467,256.087 465.51,256.292 473.636,261.277 473.552,260.81 473.263,260.149 
			472.476,259.117 		"/>
		<polygon fill="#9696B2" points="472.906,262.681 462.466,256.5 460.742,256.618 471.52,263.261 472.262,262.997 		"/>
	</g>
	<g>
		<polygon fill="#9696B2" points="418.599,266.985 392.542,260.302 396.837,260.083 412.469,264.233 421.127,266.76 		"/>
		<polyline fill="#9696B2" points="411.813,267.518 387.06,260.421 383.531,260.647 409.379,267.617 410.592,267.574 		"/>
		<polyline fill="#9696B2" points="402.764,267.5 378.374,260.814 372.519,260.914 398.781,267.18 401.033,267.553 		"/>
		<polyline fill="#9696B2" points="385.398,265.42 369.513,260.938 364.737,261.015 375.114,263.39 382.819,265.002 		"/>
	</g>
	<g>
		<polygon fill="#9696B2" points="539.768,259.508 527.344,251.571 524.859,251.778 537.489,259.554 538.283,259.541 		"/>
		<polygon fill="#9696B2" points="534.292,259.569 522.42,251.979 519.975,252.18 531.733,259.565 533.007,259.567 		"/>
	</g>
	<g>
		<polygon fill="#9696B2" points="468.593,263.6 457.581,256.845 454.793,257.013 465.358,263.502 467.095,263.592 		"/>
		<polygon fill="#9696B2" points="462.896,263.322 453.086,257.126 450.51,257.311 460.403,263.113 		"/>
		<polygon fill="#9696B2" points="456.421,262.694 447.979,257.455 444.745,257.659 452.917,262.142 		"/>
		<polygon fill="#9696B2" points="448.302,262.534 448.021,262.403 438.961,258.014 442.032,257.842 449.519,262.312 		"/>
	</g>
	<g>
		<polygon fill="#9696B2" points="440.71,263.855 431.855,258.435 435.233,258.237 443.516,263.369 		"/>
		<polygon fill="#9696B2" points="437.547,264.387 436.69,264.493 426.762,258.725 429.436,258.572 438.305,264.261 		"/>
		<polyline fill="#9696B2" points="434.199,264.925 422.879,258.974 419.207,259.085 424.572,261.456 433.513,265.033 		"/>
	</g>
	<polygon fill="#9696B2" points="425.851,266.13 401.974,260.017 405.646,259.84 427.245,265.949 	"/>
	<polyline fill="#9696B2" points="429.871,265.58 414.278,259.345 410.318,259.6 419.338,262.424 428.895,265.72 	"/>
</g>
<polygon fill="#9696B2" points="548.218,250.502 564.275,246.573 571.44,246.787 "/>
<polygon fill="#9696B2" points="550.283,251.283 577.292,246.925 584.468,247.057 "/>
<polygon fill="#9696B2" points="550.776,252.786 561.795,257.828 567.318,256.264 "/>
<polygon fill="#9696B2" points="557.091,252.786 574.917,253.771 583.456,249.784 "/>
</svg>
