<?xml version="1.0" encoding="utf-8"?>
<!-- Generator: Adobe Illustrator 15.0.0, SVG Export Plug-In . SVG Version: 6.00 Build 0)  -->
<!DOCTYPE svg PUBLIC "-//W3C//DTD SVG 1.1//EN" "http://www.w3.org/Graphics/SVG/1.1/DTD/svg11.dtd">
<svg version="1.1" id="Capa_1" xmlns="http://www.w3.org/2000/svg" xmlns:xlink="http://www.w3.org/1999/xlink" x="0px" y="0px"
	 width="586px" height="586px" viewBox="0 0 586 586" enable-background="new 0 0 586 586" xml:space="preserve">
<g opacity="0.3">
	<path fill="#54D9FB" d="M70.81,417.444c22.295,8.044,42.563,15.354,73.325,15.178c78.306-0.173,158.679-56.046,226.169-17.88
		c-85.04-13.354-143.348,42.008-227.035,32.889C116.347,444.591,92.172,434.637,70.81,417.444z"/>
	<path fill="#005B8D" d="M208.648,450.037c66.619,2.848,111.874-11.994,162.559-29.979c43.307-12.416,96.697-17.286,130.835,12.271
		c-35.698-13.419-74.735-8.632-107.444,0.634C364.757,442.355,285.057,479.107,208.648,450.037z"/>
	<path fill="#005B8D" d="M47.56,428.124c21.021,12.87,79.928,36.858,141.688,46.008c98.887,14.526,161.066-21.081,186.021-29.396
		c-31.293,22.107-59.377,44.475-121.729,50.553C166.205,503.091,82.025,464.645,47.56,428.124z"/>
	<path fill="#54D9FB" d="M183.182,417.444c78.172-51.438,137.21-59.425,198.282-51.679c33.334,5.146,124.838,33.896,165.965,26.213
		c-37.352,17.506-110.465,4.058-152.211-4.174C295.669,370.598,244.849,398.732,183.182,417.444z"/>
</g>
<path fill="#FFFFFF" stroke="#000000" stroke-miterlimit="10" d="M-117.833,308.993"/>
<g>
	<path opacity="0.53" fill="#919AB8" enable-background="new    " d="M122.073,294.87c0,0,30.185-35.138,31.257-45.97
		c1.072-10.832-19.049-12.629-15.298-20.946c0,0,110.983-5.484,153.919,20.096c42.935,25.582,98.19,6.589,135.089,9.336
		c36.9,2.747,95.446,11.179,95.446,11.179s-5.885,0.053-14.49,0.998c-11.595,1.273-29.584,2.212-49.965,4.28
		c-53.167,5.394-122.719,13.015-138.317,13.61c-3.281,0.125-29.875,4.35-29.875,4.35s-29.745,5.753-66.369,7.835
		C188.433,301.63,147.035,300.074,122.073,294.87z"/>
	<path fill="#292A28" d="M485.171,274.313c0,0,67.93,40.981,78.651,40.684c10.722-0.299,5.659-11.021,5.659-11.021l-2.681-5.063
		l5.658-4.259V287.3l-2.085-2.964l5.659-5.991v-9.419l-2.085-6.306l-11.912-1.265l9.231-9.197c0,0,4.468-5.361,4.766-7.147
		c0.297-1.787-0.298-4.169,0-6.552c0.297-2.383,0.085-5.361,0.085-5.361l-8.424-3.276c0,0-47.947,23.527-78.026,25.612
		s-30.079,2.084-30.079,2.084L485.171,274.313z"/>
	<path opacity="0.53" fill="#919AB8" enable-background="new    " d="M25.351,265.792c0,0,28.745,21.273,106.382,30.497
		c0,0,88.009,10.086,182.069-8.268l66.512-6.084c0,0,120.142-9.63,139.101-9.63c18.957,0-50.712-20.404-50.712-20.404
		s-131.685-34.539-201.849-34.539c-70.164,0-124.955-0.191-144.807,7.164c-31.615,11.712-89.001,12.286-91.375,21.291
		c-1.411,5.355,7.127,11.641,7.127,11.641h-8.437c0,0-4.83,0.474-5.895,3.257C22.404,263.5,25.351,265.792,25.351,265.792z"/>
	<path fill="#312F2D" d="M38.9,258.001c0,0,19.195,8.938,25.899,16.68c0,0-24.422-7.801-30.196-11.964
		c-5.773-4.163-6.848-4.716-6.848-4.716s2.954-0.543,5.707-0.543S38.9,258.001,38.9,258.001z"/>
	<g>
		<path opacity="0.53" fill="#919AB8" enable-background="new    " d="M139.251,273.57c-2.502,3.426-4.617,7.136-6.276,10.971
			c1.719,3.436,3.888,6.64,6.292,9.406c0.9-3.984,2.313-7.968,4.135-11.824C141.809,279.4,140.381,276.534,139.251,273.57z"/>
		<path opacity="0.53" fill="#919AB8" enable-background="new    " d="M144.466,283.892c-0.153-0.244-0.301-0.491-0.446-0.739
			c-1.759,3.827-3.099,7.775-3.927,11.716c0.791,0.856,1.603,1.671,2.433,2.43c0.188,0.169,0.185,0.384,0.095,0.557
			c1.585,0.254,3.182,0.491,4.783,0.701c0.16,0.02,0.319,0.033,0.48,0.054c0.443-2.536,1.061-5.011,1.803-7.446
			C147.763,288.839,146.024,286.388,144.466,283.892z"/>
		<path opacity="0.53" fill="#919AB8" enable-background="new    " d="M150.446,292.064c-0.641,2.185-1.177,4.398-1.575,6.663
			c3.273,0.408,6.546,0.745,9.815,1.032C155.642,297.533,152.899,294.913,150.446,292.064z"/>
		<path opacity="0.53" fill="#919AB8" enable-background="new    " d="M160.224,286.031c-1.629-2.008-3.186-4.139-4.607-6.368
			c-1.964,3.605-3.593,7.377-4.831,11.305c2.396,2.849,5.077,5.485,8.071,7.722c0.074-4.017,0.735-8.08,1.867-12.061
			C160.558,286.434,160.385,286.233,160.224,286.031z"/>
		<path opacity="0.53" fill="#919AB8" enable-background="new    " d="M155.01,278.71c-1.455-2.377-2.743-4.856-3.802-7.405
			c-2.605,3.355-4.858,6.992-6.687,10.78c0.257,0.429,0.511,0.85,0.776,1.269c1.423,2.288,3.003,4.545,4.736,6.686
			C151.322,286.111,153,282.323,155.01,278.71z"/>
		<path opacity="0.53" fill="#919AB8" enable-background="new    " d="M148.845,263.57c-3.313,2.595-6.299,5.658-8.886,9.042
			c1.065,2.923,2.425,5.749,3.965,8.44c1.891-3.798,4.199-7.448,6.863-10.806C149.948,268.065,149.285,265.831,148.845,263.57z"/>
		<path opacity="0.53" fill="#919AB8" enable-background="new    " d="M167.548,293.64c-2.205-1.898-4.233-3.981-6.071-6.117
			c-1.003,3.724-1.578,7.501-1.635,11.245c-0.001,0.215-0.124,0.361-0.282,0.438c0.333,0.237,0.675,0.472,1.019,0.702
			c2.114,0.168,4.232,0.323,6.343,0.444c-0.076-1.599-0.007-3.192,0.379-4.774C167.366,294.926,167.459,294.279,167.548,293.64z"/>
		<path opacity="0.53" fill="#919AB8" enable-background="new    " d="M168.427,294.37c-0.002,0.015-0.005,0.026-0.007,0.044
			c0.108,0.128,0.167,0.295,0.102,0.481c-0.096,0.265-0.163,0.532-0.231,0.802c-0.046,0.452-0.106,0.904-0.141,1.357
			c-0.01,0.151-0.081,0.251-0.173,0.313c-0.12,1.009-0.122,2.024-0.066,3.045c2.371,0.137,4.738,0.235,7.101,0.31
			c-0.096-0.69-0.149-1.378-0.186-2.066C172.555,297.454,170.423,295.998,168.427,294.37z"/>
		<path opacity="0.53" fill="#919AB8" enable-background="new    " d="M165.755,274.483c-1.06-1.841-2.017-3.731-2.812-5.677
			c-2.546,3.114-4.83,6.401-6.782,9.865c1.372,2.189,2.874,4.299,4.456,6.28c0.142,0.184,0.293,0.36,0.44,0.544
			C162.219,281.711,163.818,278.012,165.755,274.483z"/>
		<path opacity="0.53" fill="#919AB8" enable-background="new    " d="M160.83,261.618c-3.272,2.552-6.273,5.522-8.917,8.798
			c1.007,2.517,2.253,4.96,3.655,7.295c2.018-3.487,4.367-6.806,6.976-9.948C161.788,265.761,161.194,263.703,160.83,261.618z"/>
		<path opacity="0.53" fill="#919AB8" enable-background="new    " d="M166.34,275.479c-1.887,3.505-3.428,7.178-4.533,10.925
			c1.781,2.122,3.752,4.204,5.9,6.099c0.594-3.68,1.588-7.295,2.908-10.796C169.102,279.726,167.645,277.642,166.34,275.479z"/>
		<path opacity="0.53" fill="#919AB8" enable-background="new    " d="M172.49,284.069c-0.388-0.473-0.775-0.955-1.157-1.438
			c-1.261,3.447-2.194,7.007-2.737,10.632c1.928,1.62,3.997,3.084,6.195,4.295c-0.02-3.107,0.506-6.26,1.341-9.324
			C174.865,286.874,173.649,285.48,172.49,284.069z"/>
		<path opacity="0.53" fill="#919AB8" enable-background="new    " d="M190.636,269.516c-0.277-0.306-0.555-0.604-0.826-0.907
			c-0.663-0.739-1.305-1.486-1.918-2.257c-1.933,2.639-3.648,5.445-5.155,8.304c1.058,1.371,2.147,2.718,3.293,4.033
			C187.264,275.504,188.814,272.421,190.636,269.516z"/>
		<path opacity="0.53" fill="#919AB8" enable-background="new    " d="M195.889,275.039c-1.555-1.563-3.084-3.164-4.576-4.783
			c-1.812,2.932-3.347,6.042-4.551,9.25c1.897,2.133,3.889,4.187,5.979,6.146c0.67-3.273,1.604-6.485,2.738-9.547
			C195.615,275.756,195.752,275.4,195.889,275.039z"/>
		<path opacity="0.53" fill="#919AB8" enable-background="new    " d="M184.658,261.414c-2.207,2.309-4.239,4.77-6.063,7.368
			c1.097,1.708,2.253,3.375,3.477,5.006c1.522-2.842,3.254-5.622,5.2-8.245C186.282,264.239,185.391,262.868,184.658,261.414z"/>
		<path opacity="0.53" fill="#919AB8" enable-background="new    " d="M213.326,273.476c-1.853-1.299-3.679-2.619-5.501-3.957
			c-1.962,3.54-3.497,7.324-4.525,11.197c2.165,1.914,4.396,3.761,6.684,5.527c0.524-3.428,1.36-6.819,2.398-10.024
			C212.674,275.308,212.99,274.392,213.326,273.476z"/>
		<path opacity="0.53" fill="#919AB8" enable-background="new    " d="M219.122,277.389c-1.684-1.079-3.329-2.202-4.967-3.335
			c-0.357,0.991-0.684,1.984-0.992,2.962c-0.985,3.172-1.787,6.52-2.268,9.915c2.461,1.861,4.988,3.64,7.586,5.322
			c0.106-4.66,0.893-9.327,2.224-13.876C220.179,278.054,219.647,277.729,219.122,277.389z"/>
		<path opacity="0.53" fill="#919AB8" enable-background="new    " d="M207.032,268.932c-0.496-0.367-0.988-0.722-1.48-1.086
			c-1.146-0.849-2.299-1.728-3.414-2.643c-2.129,2.979-3.787,6.324-5.093,9.6c1.29,1.294,2.6,2.576,3.94,3.82
			c0.488,0.457,0.991,0.898,1.488,1.342C203.534,276.148,205.076,272.42,207.032,268.932z"/>
		<path opacity="0.53" fill="#919AB8" enable-background="new    " d="M201.381,264.576c-1.138-0.968-2.207-2.008-3.177-3.122
			c-2.354,2.413-4.476,5.096-6.333,7.959c1.447,1.567,2.914,3.115,4.418,4.637C197.603,270.812,199.268,267.522,201.381,264.576z"/>
		<path opacity="0.53" fill="#919AB8" enable-background="new    " d="M239.498,288.723c-2.914-1.383-5.799-2.848-8.63-4.382
			c-0.183,4.451,0.061,8.912,0.568,13.154c3.412-0.455,6.822-0.96,10.223-1.498C240.622,293.615,239.919,291.178,239.498,288.723z"
			/>
		<path opacity="0.53" fill="#919AB8" enable-background="new    " d="M221.577,278.929c-1.322,4.568-2.072,9.263-2.115,13.953
			c1.979,1.253,3.997,2.46,6.058,3.601c0.555,0.312,0.125,1.175-0.431,0.867c-1.902-1.059-3.765-2.176-5.604-3.325
			c0.02,1.625,0.106,3.246,0.304,4.86c3.559-0.369,7.11-0.795,10.656-1.27c-0.532-4.456-0.773-9.146-0.542-13.814
			C227.081,282.243,224.307,280.62,221.577,278.929z"/>
		<path opacity="0.53" fill="#919AB8" enable-background="new    " d="M226.941,266.206c-2.098,3.735-3.828,7.686-5.08,11.763
			c2.654,1.654,5.358,3.248,8.1,4.763c0.295-4.489,1.046-8.938,2.398-13.153C230.531,268.486,228.716,267.374,226.941,266.206z"/>
		<path opacity="0.53" fill="#919AB8" enable-background="new    " d="M219.85,261.214c-1.19-0.893-2.365-1.802-3.524-2.733
			c-3.123,2.94-5.823,6.403-8.018,10.188c1.779,1.302,3.567,2.598,5.372,3.874C215.209,268.567,217.201,264.62,219.85,261.214z"/>
		<path opacity="0.53" fill="#919AB8" enable-background="new    " d="M233.218,270.085c-1.329,4.22-2.04,8.692-2.294,13.188
			c2.759,1.504,5.559,2.941,8.401,4.306c-0.604-4.537-0.246-9.156,0.809-13.685C237.788,272.683,235.486,271.413,233.218,270.085z"
			/>
		<path opacity="0.53" fill="#919AB8" enable-background="new    " d="M226.123,265.646c-1.861-1.237-3.692-2.531-5.494-3.864
			c-2.647,3.399-4.621,7.357-6.125,11.33c1.737,1.216,3.484,2.413,5.273,3.556c0.403,0.26,0.812,0.506,1.213,0.761
			C222.27,273.345,224.011,269.391,226.123,265.646z"/>
		<path opacity="0.53" fill="#919AB8" enable-background="new    " d="M252.527,295.864c0.057,0.103,0.099,0.207,0.154,0.302
			c4.382-0.428,8.751-0.938,13.123-1.479c-0.85-2.894-1.579-5.847-2.156-8.83c-4.11-1.755-9.765-4.702-13.69-6.781
			c-0.801,4.481,0.297,11.09,1.962,15.442L252.527,295.864z"/>
		<path opacity="0.53" fill="#919AB8" enable-background="new    " d="M245.617,261.905c-1.85,3.681-3.369,7.546-4.346,11.497
			c2.423,1.235,4.881,2.408,7.375,3.512c0.42-3.958,1.127-8.066,2.193-12.081C249.064,263.91,247.314,262.935,245.617,261.905z"/>
		<path opacity="0.53" fill="#919AB8" enable-background="new    " d="M279.322,269.945c-2.219-1.258-4.382-2.583-6.492-3.997
			c-0.622,3.272-0.739,6.718-0.408,10.149c1.181,0.626,2.366,1.248,3.561,1.857c1.718,0.872,3.449,1.73,5.188,2.561
			c-0.017-0.065-0.043-0.133-0.062-0.197C280.191,276.973,279.508,273.457,279.322,269.945z"/>
		<path opacity="0.53" fill="#919AB8" enable-background="new    " d="M255.331,256.284c-1.322,3.285-2.897,5.506-2.797,9.083
			c2.813,1.319,6.849,4.054,9.697,5.292c-0.58-3.381,1.516-6.572,1.884-9.984C261.892,259.398,257.434,257.742,255.331,256.284z"/>
		<path opacity="0.53" fill="#919AB8" enable-background="new    " d="M288.634,274.679c-2.818-1.288-5.589-2.665-8.28-4.155
			c0.229,3.241,0.87,6.466,1.717,9.55c0.094,0.332,0.193,0.663,0.288,0.998c4.432,2.094,8.926,4.057,13.477,5.876
			c-1.69-2.201-3.23-4.503-4.564-6.857C290.307,278.386,289.385,276.566,288.634,274.679z"/>
		<path opacity="0.53" fill="#919AB8" enable-background="new    " d="M276.75,291.443c0.663,0.502,1.341,0.989,2.034,1.443
			c0.92-0.241,1.838-0.47,2.753-0.716C279.943,291.946,278.343,291.703,276.75,291.443z"/>
		<path opacity="0.53" fill="#919AB8" enable-background="new    " d="M301.504,279.763c0.207,0.322,0.416,0.632,0.622,0.938
			c1.714,2.555,3.675,5.065,5.896,7.339c1.281-0.237,2.571-0.458,3.853-0.706c2.037-0.382,4.068-0.758,6.101-1.134
			c-0.905-0.733-1.77-1.509-2.605-2.317C310.7,282.689,306.06,281.323,301.504,279.763z"/>
		<path opacity="0.53" fill="#919AB8" enable-background="new    " d="M300.014,279.246c-3.418-1.207-6.789-2.533-10.084-3.989
			c0.83,1.918,1.833,3.764,2.855,5.473c1.442,2.403,3.071,4.737,4.87,6.938c1.332,0.518,2.666,1.037,3.999,1.534
			c1.738-0.317,3.484-0.638,5.227-0.954c-2.097-2.208-3.971-4.622-5.625-7.078C300.836,280.546,300.421,279.905,300.014,279.246z"/>
		<path opacity="0.53" fill="#919AB8" enable-background="new    " d="M271.835,277.756c-0.045-0.313-0.081-0.621-0.118-0.939
			c-2.793-1.468-5.564-2.992-8.314-4.542c-0.02,0.779-0.02,1.55-0.007,2.303c0.078,3.563,0.492,7.108,1.138,10.623
			c3.4,1.441,6.856,2.783,10.363,4C273.358,285.528,272.362,281.63,271.835,277.756z"/>
		<path opacity="0.53" fill="#919AB8" enable-background="new    " d="M244.778,261.397c-1.757-1.11-3.448-2.307-5.054-3.603
			c-2.784,3.389-4.814,7.229-6.206,11.344c2.251,1.326,4.539,2.597,6.862,3.802C241.38,268.981,242.915,265.097,244.778,261.397z"/>
		<path opacity="0.53" fill="#919AB8" enable-background="new    " d="M283.243,292.254c0.833-0.125,1.672-0.243,2.5-0.375
			c-1.806-3.206-3.16-6.661-4.203-10.134c-2.033-0.966-4.055-1.95-6.058-2.968c-0.985-0.502-1.964-1.021-2.939-1.531
			c0.536,4.268,1.747,8.496,3.519,12.332L283.243,292.254z"/>
		<path opacity="0.53" fill="#919AB8" enable-background="new    " d="M282.734,282.302c1.023,3.232,2.337,6.438,4.05,9.417
			c3.803-0.604,7.602-1.241,11.397-1.902c-0.392-0.442-0.758-0.9-1.131-1.355C292.205,286.564,287.443,284.504,282.734,282.302z"/>
		<path opacity="0.53" fill="#919AB8" enable-background="new    " d="M264.758,286.33c0.559,2.78,1.247,5.533,2.051,8.24
			c3.353-0.421,6.698-0.886,10.046-1.363c-0.523-0.922-0.991-1.875-1.427-2.827C271.808,289.147,268.26,287.798,264.758,286.33z"/>
		<path opacity="0.53" fill="#919AB8" enable-background="new    " d="M241.028,274.352c-1.031,4.549-1.34,9.185-0.643,13.725
			c3.064,1.442,6.173,2.806,9.321,4.088c-1.732-4.446-1.565-9.972-1.163-14.252C246.006,276.797,243.498,275.607,241.028,274.352z"
			/>
		<path opacity="0.53" fill="#919AB8" enable-background="new    " d="M240.58,289.228c0.43,2.233,1.102,4.437,2.074,6.601
			c2.731-0.441,5.452-0.908,8.173-1.389c-0.206-0.334-0.394-0.674-0.569-1.02C246.991,292.117,243.757,290.713,240.58,289.228z"/>
		<path opacity="0.53" fill="#919AB8" enable-background="new    " d="M210.737,288.021c-0.469,3.922-0.465,7.888,0.3,11.69
			c2.585-0.216,5.177-0.457,7.759-0.726c-0.227-1.848-0.33-3.719-0.332-5.596C215.817,291.699,213.241,289.902,210.737,288.021z"/>
		<path opacity="0.53" fill="#919AB8" enable-background="new    " d="M199.665,278.725c-1.017-0.959-2.019-1.934-3.012-2.924
			c-0.09,0.242-0.186,0.483-0.271,0.718c-1.173,3.179-2.126,6.513-2.788,9.909c2.304,2.11,4.698,4.108,7.182,5.983
			c-0.042-3.764,0.459-7.604,1.418-11.376C201.344,280.271,200.497,279.505,199.665,278.725z"/>
		<path opacity="0.53" fill="#919AB8" enable-background="new    " d="M203.035,281.776c-0.911,3.787-1.353,7.63-1.243,11.38
			c2.495,1.84,5.053,3.564,7.672,5.148c0.532,0.321,0.104,1.185-0.435,0.858c-2.335-1.409-4.622-2.941-6.856-4.543
			c-0.128,1.913-0.086,3.812,0.226,5.692c2.55-0.146,5.098-0.318,7.642-0.521c-0.79-4.062-0.757-8.285-0.212-12.459
			C207.498,285.556,205.234,283.708,203.035,281.776z"/>
		<path opacity="0.53" fill="#919AB8" enable-background="new    " d="M172.274,259.185c-3.113,2.719-5.997,5.646-8.606,8.747
			c0.742,1.898,1.637,3.752,2.65,5.558c2.193-3.819,4.807-7.406,7.724-10.639C173.422,261.643,172.828,260.425,172.274,259.185z"/>
		<path opacity="0.53" fill="#919AB8" enable-background="new    " d="M181.574,274.735c-1.259-1.657-2.455-3.345-3.582-5.081
			c-2.528,3.739-4.643,7.727-6.262,11.89c0.527,0.675,1.054,1.34,1.591,1.996c0.999,1.211,2.046,2.414,3.135,3.601
			c0.798-2.681,1.807-5.285,2.879-7.716C180.025,277.857,180.769,276.291,181.574,274.735z"/>
		<path opacity="0.53" fill="#919AB8" enable-background="new    " d="M177.411,268.745c-1.028-1.627-1.987-3.282-2.889-4.971
			c-2.891,3.253-5.474,6.864-7.633,10.704c1.255,2.128,2.659,4.187,4.135,6.147C172.688,276.461,174.845,272.479,177.411,268.745z"
			/>
		<path opacity="0.53" fill="#919AB8" enable-background="new    " d="M182.247,275.616c-0.618,1.206-1.206,2.422-1.755,3.638
			c-1.227,2.716-2.393,5.673-3.266,8.716c1.742,1.847,3.582,3.625,5.512,5.299c0.295-4.561,1.308-9.142,2.908-13.56
			C184.469,278.379,183.336,277.01,182.247,275.616z"/>
		<path opacity="0.53" fill="#919AB8" enable-background="new    " d="M200.956,295.907c-0.078-0.757-0.117-1.519-0.152-2.286
			c-2.564-1.906-5.035-3.942-7.415-6.086c-0.749,4.284-0.998,8.646-0.511,12.892c0.173,0.097,0.343,0.186,0.52,0.279
			c2.672-0.076,5.338-0.19,8.005-0.341c-0.221-1.379-0.302-2.763-0.285-4.16C201.031,296.134,200.967,296.041,200.956,295.907z"/>
		<path opacity="0.53" fill="#919AB8" enable-background="new    " d="M186.389,280.542c-1.547,4.413-2.494,8.995-2.705,13.538
			c2.554,2.132,5.271,4.082,8.141,5.757c-0.421-4.328-0.105-8.749,0.702-13.078C190.383,284.783,188.335,282.697,186.389,280.542z"
			/>
		<path opacity="0.53" fill="#919AB8" enable-background="new    " d="M183.66,295.313c-0.031,1.65,0.019,3.302,0.191,4.927
			c0.063,0.612-0.935,0.683-0.997,0.078c-0.203-1.925-0.261-3.876-0.189-5.825c-2.013-1.71-3.922-3.527-5.73-5.416
			c-0.769,2.967-1.235,6.012-1.149,8.996c2.189,1.106,4.495,1.96,6.921,2.457c0.196,0.042,0.307,0.162,0.36,0.302
			c2.808,0.009,5.614-0.018,8.419-0.084C188.734,299.159,186.121,297.322,183.66,295.313z"/>
		<path opacity="0.53" fill="#919AB8" enable-background="new    " d="M175.848,299.18c0.041,0.523,0.091,1.046,0.167,1.562
			c1.311,0.04,2.623,0.036,3.935,0.051C178.541,300.354,177.167,299.813,175.848,299.18z"/>
		<path opacity="0.53" fill="#919AB8" enable-background="new    " d="M139.837,296.022c-0.001,0.019-0.004,0.034-0.007,0.055
			c-0.113,0.604-1.097,0.434-0.983-0.171c0.049-0.251,0.118-0.514,0.168-0.775c-2.483-2.753-4.729-5.943-6.538-9.385
			c-1.281,3.139-2.277,6.351-2.93,9.523c3.944,0.913,7.923,1.714,11.939,2.393C140.933,297.144,140.383,296.592,139.837,296.022z"/>
		<path opacity="0.45" fill="#919AB8" enable-background="new    " d="M142.058,279.924c0.065,0.008,0.13,0.01,0.194,0.021
			c-1.072-2.014-2.042-4.093-2.853-6.226c-1.255,1.716-2.411,3.503-3.462,5.34C137.975,279.351,140.016,279.659,142.058,279.924z"/>
		<path opacity="0.45" fill="#919AB8" enable-background="new    " d="M153.885,281.265c0.413-0.806,0.828-1.615,1.27-2.411
			c-1.451-2.37-2.743-4.848-3.803-7.404c-2.169,2.795-4.073,5.795-5.712,8.896C148.389,280.678,151.139,280.989,153.885,281.265z"/>
		<path opacity="0.45" fill="#919AB8" enable-background="new    " d="M144.586,280.225c1.792-3.45,3.915-6.761,6.349-9.829
			c-0.843-2.179-1.507-4.414-1.952-6.68c-3.308,2.592-6.293,5.663-8.881,9.048c0.922,2.526,2.069,4.967,3.355,7.328
			C143.832,280.138,144.21,280.177,144.586,280.225z"/>
		<path opacity="0.45" fill="#919AB8" enable-background="new    " d="M162.459,282.054c0.975-2.531,2.119-5.022,3.44-7.421
			c-1.062-1.838-2.015-3.731-2.813-5.683c-2.543,3.12-4.83,6.41-6.786,9.866c0.615,0.981,1.262,1.93,1.917,2.871
			C159.63,281.813,161.044,281.932,162.459,282.054z"/>
		<path opacity="0.45" fill="#919AB8" enable-background="new    " d="M160.975,261.767c-3.282,2.544-6.275,5.524-8.916,8.796
			c1.005,2.519,2.249,4.956,3.653,7.296c2.021-3.484,4.366-6.803,6.974-9.944C161.928,265.903,161.338,263.853,160.975,261.767z"/>
		<path opacity="0.45" fill="#919AB8" enable-background="new    " d="M170.479,282.648c0.098-0.265,0.183-0.533,0.281-0.792
			c-1.52-1.988-2.972-4.064-4.279-6.227c-1.137,2.106-2.129,4.29-2.995,6.5C165.815,282.324,168.146,282.499,170.479,282.648z"/>
		<path opacity="0.45" fill="#919AB8" enable-background="new    " d="M190.779,269.661c-0.275-0.302-0.557-0.598-0.826-0.898
			c-0.661-0.741-1.308-1.497-1.924-2.266c-1.93,2.649-3.643,5.453-5.148,8.31c1.055,1.375,2.149,2.72,3.291,4.033
			C187.408,275.655,188.957,272.572,190.779,269.661z"/>
		<path opacity="0.45" fill="#919AB8" enable-background="new    " d="M190.641,283.593c0.909,0.028,1.818,0.058,2.727,0.076
			c0.611-2.528,1.37-5.016,2.258-7.415c0.128-0.352,0.271-0.707,0.408-1.064c-1.559-1.571-3.085-3.164-4.576-4.782
			c-1.817,2.926-3.345,6.039-4.553,9.252C188.109,281.009,189.362,282.31,190.641,283.593z"/>
		<path opacity="0.45" fill="#919AB8" enable-background="new    " d="M184.803,261.564c-2.206,2.31-4.243,4.771-6.063,7.367
			c1.092,1.705,2.25,3.375,3.474,5.01c1.526-2.844,3.26-5.625,5.202-8.246C186.426,264.388,185.533,263.019,184.803,261.564z"/>
		<path opacity="0.45" fill="#919AB8" enable-background="new    " d="M206.981,283.878c0.661,0.001,1.324-0.001,1.99,0.005
			c0.549-0.076,1.098-0.152,1.645-0.226c0.499-2.492,1.147-4.939,1.903-7.293c0.296-0.906,0.612-1.819,0.95-2.737
			c-1.852-1.301-3.681-2.618-5.5-3.956c-1.961,3.54-3.496,7.324-4.523,11.196C204.604,281.887,205.783,282.891,206.981,283.878z"/>
		<path opacity="0.45" fill="#919AB8" enable-background="new    " d="M211.682,283.514c2.729-0.375,5.46-0.747,8.191-1.12
			c0.285-1.298,0.6-2.588,0.973-3.865c-0.522-0.326-1.06-0.656-1.581-0.991c-1.683-1.079-3.332-2.198-4.966-3.335
			c-0.359,0.991-0.694,1.98-0.992,2.965C212.669,279.22,212.125,281.349,211.682,283.514z"/>
		<path opacity="0.45" fill="#919AB8" enable-background="new    " d="M207.173,269.082c-0.495-0.365-0.989-0.73-1.476-1.09
			c-1.152-0.855-2.299-1.725-3.417-2.636c-2.128,2.976-3.785,6.323-5.092,9.599c1.29,1.292,2.598,2.576,3.939,3.819
			c0.492,0.456,0.994,0.899,1.492,1.342C203.677,276.301,205.223,272.569,207.173,269.082z"/>
		<path opacity="0.45" fill="#919AB8" enable-background="new    " d="M201.522,264.726c-1.135-0.969-2.206-2.007-3.176-3.122
			c-2.357,2.412-4.476,5.094-6.333,7.959c1.448,1.565,2.917,3.113,4.413,4.632C197.748,270.962,199.408,267.664,201.522,264.726z"/>
		<path opacity="0.45" fill="#919AB8" enable-background="new    " d="M225.887,281.569c-1.401-0.817-2.791-1.638-4.17-2.498
			c-0.302,1.057-0.562,2.115-0.799,3.18C222.575,282.028,224.228,281.803,225.887,281.569z"/>
		<path opacity="0.45" fill="#919AB8" enable-background="new    " d="M227.438,281.362c0.936-0.13,1.878-0.258,2.825-0.384
			c0.363-3.84,1.075-7.637,2.24-11.249c-1.828-1.093-3.64-2.208-5.419-3.372c-2.104,3.73-3.829,7.686-5.083,11.767
			C223.789,279.232,225.609,280.306,227.438,281.362z"/>
		<path opacity="0.45" fill="#919AB8" enable-background="new    " d="M219.99,261.366c-1.188-0.893-2.362-1.803-3.522-2.735
			c-3.119,2.94-5.818,6.403-8.018,10.182c1.784,1.307,3.567,2.605,5.373,3.88C215.352,268.717,217.344,264.772,219.99,261.366z"/>
		<path opacity="0.45" fill="#919AB8" enable-background="new    " d="M239.356,279.711c0.184-1.893,0.479-3.79,0.917-5.667
			c-2.343-1.211-4.647-2.48-6.92-3.815c-1.068,3.416-1.733,6.994-2.084,10.607C233.967,280.464,236.666,280.09,239.356,279.711z"/>
		<path opacity="0.45" fill="#919AB8" enable-background="new    " d="M226.268,265.798c-1.862-1.239-3.69-2.532-5.492-3.864
			c-2.651,3.392-4.621,7.357-6.125,11.328c1.735,1.219,3.487,2.41,5.271,3.557c0.406,0.26,0.814,0.502,1.216,0.758
			C222.413,273.497,224.157,269.54,226.268,265.798z"/>
		<path opacity="0.45" fill="#919AB8" enable-background="new    " d="M245.754,262.049c-1.841,3.687-3.36,7.55-4.342,11.494
			c2.421,1.238,4.884,2.414,7.378,3.522c0.421-3.967,1.129-8.069,2.193-12.082C249.203,264.063,247.458,263.086,245.754,262.049z"/>
		<path opacity="0.45" fill="#919AB8" enable-background="new    " d="M167.456,261.092c-1.85,0.001-3.711,0-5.575-0.003
			c0.316,2.02,0.838,4.013,1.531,5.958c1.772-2.076,3.667-4.066,5.667-5.967C168.54,261.081,167.999,261.096,167.456,261.092z"/>
		<path opacity="0.45" fill="#919AB8" enable-background="new    " d="M152.784,261.05c-0.996,0.625-1.968,1.284-2.915,1.982
			c0.393,2.193,1,4.356,1.781,6.468c2.58-3.119,5.488-5.952,8.64-8.413C157.794,261.081,155.289,261.069,152.784,261.05z"/>
		<path opacity="0.45" fill="#919AB8" enable-background="new    " d="M177.464,261c-0.708,0.698-1.408,1.414-2.089,2.153
			c0.87,1.659,1.794,3.287,2.791,4.881c1.794-2.518,3.782-4.909,5.932-7.148C181.891,260.936,179.678,260.972,177.464,261z"/>
		<path opacity="0.45" fill="#919AB8" enable-background="new    " d="M223.222,259.192c-0.642,0.64-1.256,1.293-1.83,1.992
			c1.756,1.296,3.54,2.554,5.353,3.769c1.275-2.181,2.692-4.273,4.215-6.27C228.379,258.862,225.802,259.036,223.222,259.192z"/>
		<path opacity="0.45" fill="#919AB8" enable-background="new    " d="M185.562,260.845c0.687,1.417,1.527,2.755,2.469,4.028
			c1.127-1.459,2.334-2.858,3.604-4.182C189.614,260.748,187.587,260.8,185.562,260.845z"/>
		<path opacity="0.45" fill="#919AB8" enable-background="new    " d="M241.449,257.925c1.265,0.967,2.565,1.892,3.921,2.75
			c0.563-1.083,1.156-2.14,1.773-3.183C245.245,257.643,243.346,257.781,241.449,257.925z"/>
		<path opacity="0.45" fill="#919AB8" enable-background="new    " d="M248.318,257.399c-0.739,1.24-1.456,2.502-2.123,3.797
			c1.641,1.002,3.336,1.937,5.055,2.838c0.682-2.432,1.513-4.805,2.478-7.087C251.925,257.094,250.122,257.257,248.318,257.399z"/>
		<path opacity="0.45" fill="#919AB8" enable-background="new    " d="M193.029,260.649c-1.57,1.566-3.039,3.251-4.389,5.028
			c0.849,1.08,1.758,2.132,2.698,3.155c1.875-2.865,4.014-5.548,6.386-7.968c-0.098-0.125-0.186-0.255-0.272-0.375
			C195.975,260.546,194.501,260.601,193.029,260.649z"/>
		<path opacity="0.45" fill="#919AB8" enable-background="new    " d="M199.589,260.401c-0.183,0.17-0.365,0.336-0.546,0.514
			c0.933,1.082,1.97,2.081,3.067,3.027c1.047-1.372,2.211-2.646,3.483-3.79C203.594,260.245,201.588,260.32,199.589,260.401z"/>
		<path opacity="0.45" fill="#919AB8" enable-background="new    " d="M238.488,258.149c-2.071,0.154-4.146,0.303-6.219,0.45
			c-1.713,2.188-3.301,4.492-4.712,6.907c1.728,1.14,3.486,2.224,5.257,3.287C234.131,264.966,235.998,261.373,238.488,258.149z"/>
		<path opacity="0.45" fill="#919AB8" enable-background="new    " d="M207.187,260.087c-1.62,1.305-3.059,2.821-4.331,4.489
			c1.328,1.094,2.716,2.12,4.083,3.131c0.243,0.175,0.481,0.354,0.72,0.524c1.808-3.084,3.965-5.945,6.39-8.514
			C211.763,259.845,209.475,259.981,207.187,260.087z"/>
		<path opacity="0.45" fill="#919AB8" enable-background="new    " d="M265.992,260.956c-1.585,3.163-2.236,6.805-2.414,10.38
			c2.698,1.532,5.415,3.037,8.155,4.494c-0.307-3.417-0.235-6.909,0.401-10.28C270.025,264.102,267.972,262.572,265.992,260.956z"/>
		<path opacity="0.45" fill="#919AB8" enable-background="new    " d="M244.924,261.545c-1.762-1.108-3.448-2.308-5.06-3.6
			c-2.786,3.384-4.813,7.23-6.203,11.342c2.25,1.333,4.536,2.602,6.856,3.805C241.524,269.129,243.057,265.252,244.924,261.545z"/>
		<path opacity="0.45" fill="#919AB8" enable-background="new    " d="M251.935,266.206c-1.166,3.377-1.257,6.834-1.974,10.2
			c-0.114,0.502,0.107,0.856,0,1.416l13.426,6.928c-0.198-2.004-0.879-9.362-0.868-11.371c0-0.494,0.017-0.996,0.038-1.498
			L251.935,266.206z"/>
		<path opacity="0.45" fill="#919AB8" enable-background="new    " d="M248.663,278.417c0.009-0.118,0.016-0.243,0.027-0.354
			c-2.539-1.118-5.048-2.307-7.519-3.563c-0.382,1.68-0.649,3.378-0.815,5.073C243.125,279.189,245.896,278.807,248.663,278.417z"/>
		<path opacity="0.45" fill="#919AB8" enable-background="new    " d="M194.377,283.696c2.458,0.059,4.919,0.1,7.37,0.126
			c0.177-0.88,0.367-1.768,0.587-2.646c-0.849-0.753-1.695-1.521-2.526-2.304c-1.017-0.959-2.018-1.934-3.014-2.923
			c-0.087,0.239-0.183,0.478-0.27,0.717C195.686,278.941,194.969,281.299,194.377,283.696z"/>
		<path opacity="0.45" fill="#919AB8" enable-background="new    " d="M172.418,259.334c-3.117,2.722-5.999,5.637-8.606,8.749
			c0.744,1.894,1.635,3.751,2.651,5.558c2.194-3.823,4.804-7.406,7.72-10.64C173.564,261.793,172.969,260.577,172.418,259.334z"/>
		<path opacity="0.45" fill="#919AB8" enable-background="new    " d="M172.745,282.785c1.762,0.105,3.521,0.223,5.281,0.314
			c0.463-1.205,0.947-2.387,1.449-3.531c0.689-1.556,1.438-3.126,2.242-4.684c-1.261-1.655-2.456-3.35-3.581-5.079
			c-2.527,3.739-4.649,7.722-6.262,11.891C172.162,282.064,172.457,282.426,172.745,282.785z"/>
		<path opacity="0.45" fill="#919AB8" enable-background="new    " d="M177.554,268.897c-1.026-1.631-1.992-3.29-2.886-4.975
			c-2.892,3.255-5.478,6.866-7.638,10.705c1.262,2.128,2.664,4.187,4.141,6.146C172.833,276.613,174.99,272.628,177.554,268.897z"/>
		<path opacity="0.45" fill="#919AB8" enable-background="new    " d="M179.065,283.146c1.862,0.093,3.723,0.168,5.583,0.245
			c0.336-1.187,0.72-2.361,1.138-3.53c-1.173-1.333-2.309-2.698-3.402-4.101c-0.616,1.214-1.203,2.43-1.751,3.644
			C180.092,280.605,179.562,281.86,179.065,283.146z"/>
		<path opacity="0.45" fill="#919AB8" enable-background="new    " d="M189.23,283.552c-0.919-0.94-1.82-1.89-2.697-2.863
			c-0.317,0.912-0.603,1.827-0.873,2.745C186.852,283.48,188.041,283.511,189.23,283.552z"/>
	</g>
	<g>
		<path opacity="0.53" fill="#919AB8" enable-background="new    " d="M423.345,263.169c-2.261,3.638-4.164,7.508-5.597,11.525
			c2.58,1.771,3.468,2.074,7.776,1.882c0.494-4.471,1.547-5.647,3.084-9.797C426.831,265.606,425.067,264.414,423.345,263.169z"/>
		<path opacity="0.53" fill="#919AB8" enable-background="new    " d="M422.553,262.574c-1.805-1.318-3.575-2.692-5.317-4.103
			c-2.795,3.278-4.941,7.144-6.621,11.047c1.682,1.292,3.373,2.565,5.11,3.786c0.391,0.278,0.788,0.542,1.177,0.814
			C418.363,270.094,420.278,266.221,422.553,262.574z"/>
		<path opacity="0.53" fill="#919AB8" enable-background="new    " d="M442.195,259.701c-2.012,3.595-3.702,7.389-4.854,11.292
			c2.366,1.342,4.77,2.623,7.212,3.837c0.596-3.936,1.484-8.008,2.726-11.972C445.549,261.857,443.844,260.806,442.195,259.701z"/>
		<path opacity="0.53" fill="#919AB8" enable-background="new    " d="M472.793,264.045c-2.261-1.181-4.246-0.643-6.742-1.347
			c-0.507,3.292-0.487,5.436-0.037,8.853c1.202,0.585,2.408,1.165,3.623,1.732c1.746,0.812,1.438,0.459,3.563,0.628
			c-0.812-1.711,1.45,0.126,1.428,0.063C473.595,270.664,473.101,267.549,472.793,264.045z"/>
		<path opacity="0.53" fill="#919AB8" enable-background="new    " d="M441.378,259.157c-1.706-1.188-3.344-2.458-4.89-3.824
			c-2.931,3.262-5.13,7.008-6.704,11.058c2.192,1.425,4.421,2.796,6.688,4.103C437.648,266.583,439.353,262.77,441.378,259.157z"/>
		<path opacity="0.45" fill="#919AB8" enable-background="new    " d="M407.332,279.783c2.745-0.252,5.489-0.504,8.233-0.756
			c0.344-1.284,0.715-2.559,1.145-3.818c-0.508-0.349-1.029-0.702-1.535-1.059c-1.635-1.153-3.231-2.344-4.814-3.552
			c-0.402,0.974-0.779,1.947-1.122,2.918C408.51,275.537,407.873,277.641,407.332,279.783z"/>
		<path opacity="0.45" fill="#919AB8" enable-background="new    " d="M421.611,278.47c-1.362-0.878-2.715-1.761-4.055-2.68
			c-0.349,1.043-0.655,2.088-0.938,3.142C418.282,278.782,419.944,278.63,421.611,278.47z"/>
		<path opacity="0.45" fill="#919AB8" enable-background="new    " d="M423.169,278.332c0.94-0.088,1.888-0.174,2.84-0.258
			c0.533-3.82,1.413-7.582,2.737-11.138c-1.778-1.173-3.539-2.368-5.264-3.609c-2.267,3.634-4.168,7.508-5.602,11.53
			C419.617,276.044,421.389,277.196,423.169,278.332z"/>
		<path opacity="0.45" fill="#919AB8" enable-background="new    " d="M435.15,277.212c0.268-1.883,0.647-3.765,1.167-5.622
			c-2.289-1.314-4.532-2.684-6.744-4.118c-1.22,3.365-2.042,6.91-2.554,10.504C429.732,277.725,432.446,277.471,435.15,277.212z"/>
		<path opacity="0.45" fill="#919AB8" enable-background="new    " d="M422.692,262.732c-1.807-1.321-3.575-2.693-5.314-4.104
			c-2.801,3.271-4.946,7.146-6.623,11.045c1.679,1.294,3.377,2.562,5.108,3.788c0.393,0.278,0.792,0.539,1.181,0.811
			C418.499,270.252,420.416,266.376,422.692,262.732z"/>
		<path opacity="0.45" fill="#919AB8" enable-background="new    " d="M442.324,259.852c-2.002,3.602-3.692,7.393-4.849,11.29
			c2.364,1.344,4.773,2.628,7.214,3.846c0.597-3.945,1.485-8.012,2.728-11.973C445.68,262.016,443.982,260.964,442.324,259.852z"/>
		<path opacity="0.45" fill="#919AB8" enable-background="new    " d="M469.776,273.44c0.259,0.123,0.522,0.235,0.779,0.354
			c1.263-0.122,2.525-0.252,3.782-0.38c-0.716-2.636-1.259-5.359-1.503-8.091c-2.26-1.185-4.623-1.288-6.783-2.625
			c-0.509,3.29-0.348,5.587,0.102,9.013C467.36,272.296,468.561,272.873,469.776,273.44z"/>
		<path opacity="0.45" fill="#919AB8" enable-background="new    " d="M494.07,272.619c3.091-0.326,6.187-0.646,9.276-0.983
			c-1.271-1.794-2.298-2.284-3.281-4.208c-4.361,0.094-5.264,0.296-8.704-0.099C491.67,271.252,491.981,269.15,494.07,272.619z"/>
		<path opacity="0.45" fill="#919AB8" enable-background="new    " d="M512.998,271.044c-0.104-0.115-0.212-0.219-0.318-0.332
			c-3.763-1.062-6.834-1.079-10.465-2.481c0.916,1.688,1.333,2.133,2.472,3.721C507.458,271.647,510.23,271.347,512.998,271.044z"/>
		<path opacity="0.45" fill="#919AB8" enable-background="new    " d="M419.941,255.998c-0.668,0.61-1.313,1.236-1.915,1.909
			c1.694,1.373,3.423,2.709,5.178,4.003c1.372-2.123,2.881-4.15,4.49-6.078C425.108,255.896,422.526,255.956,419.941,255.998z"/>
		<path opacity="0.45" fill="#919AB8" enable-background="new    " d="M456.801,254.856c-1.725,0.077-3.441,0.139-5.162,0.202
			c-1.178,2.42-2.178,4.952-3.013,7.535c0.876,0.498,1.758,0.983,2.646,1.464c1.577,0.852,3.164,1.697,4.749,2.528
			c0.104-3.613,0.703-7.308,2.232-10.566C457.763,255.64,457.281,255.25,456.801,254.856z"/>
		<path opacity="0.45" fill="#919AB8" enable-background="new    " d="M460.1,254.717c-0.208,0.342-0.418,0.679-0.603,1.037
			c1.955,1.494,3.966,2.901,6.036,4.234c0.361-1.92,0.91-3.789,1.677-5.598C464.846,254.508,462.472,254.62,460.1,254.717z"/>
		<path opacity="0.45" fill="#919AB8" enable-background="new    " d="M438.208,255.54c1.22,1.022,2.478,2.004,3.793,2.922
			c0.61-1.058,1.252-2.086,1.913-3.102C442.012,255.427,440.109,255.481,438.208,255.54z"/>
		<path opacity="0.45" fill="#919AB8" enable-background="new    " d="M445.094,255.32c-0.796,1.206-1.566,2.435-2.292,3.698
			c1.596,1.075,3.247,2.083,4.925,3.06c0.789-2.399,1.724-4.732,2.789-6.97C448.707,255.175,446.9,255.258,445.094,255.32z"/>
		<path opacity="0.45" fill="#919AB8" enable-background="new    " d="M435.238,255.633c-2.074,0.062-4.153,0.118-6.232,0.174
			c-1.809,2.109-3.497,4.341-5.013,6.69c1.675,1.216,3.384,2.376,5.105,3.518C430.583,262.25,432.608,258.743,435.238,255.633z"/>
		<path opacity="0.45" fill="#919AB8" enable-background="new    " d="M457.672,260.418c-1.475,3.216-0.607,3.103-0.662,6.681
			c2.751,1.437,5.518,2.848,8.308,4.208c-0.426-3.405-1.123-5.646-0.604-9.038C461.837,261.467,459.705,261.963,457.672,260.418z"/>
		<path opacity="0.45" fill="#919AB8" enable-background="new    " d="M483.649,272.471c-0.483-0.895-0.933-1.808-1.343-2.752
			c-2.865-1.177-5.678-2.459-8.423-3.855c0.265,2.518,0.787,5.018,1.461,7.449C478.106,273.034,480.879,272.75,483.649,272.471z"/>
		<path opacity="0.45" fill="#919AB8" enable-background="new    " d="M488.212,272.001c-1.541-0.554-3.078-1.135-4.594-1.739
			c0.339,0.714,0.706,1.412,1.084,2.103C485.873,272.24,487.044,272.119,488.212,272.001z"/>
		<path opacity="0.45" fill="#919AB8" enable-background="new    " d="M457.523,275.08c2.762-0.268,5.521-0.541,8.278-0.814
			c-0.058-0.296-0.132-0.59-0.183-0.887c-0.052-0.305-0.096-0.62-0.145-0.927c-2.84-1.371-5.668-2.798-8.468-4.253
			c0.005,0.779,0.031,1.551,0.073,2.304C457.163,272.036,457.317,273.557,457.523,275.08z"/>
		<path opacity="0.45" fill="#919AB8" enable-background="new    " d="M441.518,259.312c-1.711-1.185-3.344-2.459-4.896-3.821
			c-2.932,3.257-5.127,7.01-6.699,11.056c2.188,1.431,4.417,2.8,6.683,4.104C437.784,266.736,439.488,262.931,441.518,259.312z"/>
		<path opacity="0.45" fill="#919AB8" enable-background="new    " d="M445.622,275.442c0.455,0.22,0.916,0.431,1.376,0.649
			c3.179-0.303,6.361-0.605,9.536-0.913c-0.267-1.997-0.453-3.995-0.511-6.003c-0.018-0.494-0.019-0.996-0.015-1.499
			c-2.116-1.105-4.229-2.23-6.312-3.375c-0.455-0.254-0.905-0.508-1.357-0.761c-1.049,3.416-1.845,6.895-2.443,10.284
			C445.802,274.33,445.711,274.879,445.622,275.442z"/>
		<path opacity="0.45" fill="#919AB8" enable-background="new    " d="M444.504,276.333c0.014-0.117,0.027-0.242,0.043-0.352
			c-2.486-1.229-4.941-2.529-7.353-3.894c-0.457,1.661-0.798,3.346-1.039,5.031C438.939,276.857,441.723,276.599,444.504,276.333z"
			/>
	</g>
	<g>
		<path opacity="0.53" fill="#919AB8" enable-background="new    " d="M279.483,253.976c-3.091,3.088-5.772,6.513-7.837,10.277
			c2.298,1.227,4.605,2.436,6.924,3.612c0.14-0.234,0.289-0.462,0.429-0.687C278.232,262.706,278.442,258.268,279.483,253.976z"/>
		<path opacity="0.53" fill="#919AB8" enable-background="new    " d="M291.164,252.717c-0.04-2.903,0.294-5.754,1.082-8.44
			c-4.073,2.376-7.942,5.161-11.366,8.347c-1.259,4.307-1.704,8.779-1.093,13.296C282.936,261.068,286.793,256.634,291.164,252.717z
			"/>
		<path opacity="0.53" fill="#919AB8" enable-background="new    " d="M291.203,254.018c-4.322,3.964-8.112,8.457-11.165,13.366
			c0.084,0.453,0.174,0.909,0.275,1.363c2.357,1.172,4.728,2.329,7.117,3.435c1.351-3.29,3.103-6.526,5.174-9.617
			C291.837,259.745,291.348,256.859,291.203,254.018z"/>
		<path opacity="0.53" fill="#919AB8" enable-background="new    " d="M301.857,253.258c-3.085,2.857-5.842,6.071-8.177,9.5
			c1.051,3.722,2.585,7.308,4.434,10.511c1.615-3.729,3.736-7.355,6.235-10.772C303.286,259.501,302.417,256.396,301.857,253.258z"
			/>
		<path opacity="0.53" fill="#919AB8" enable-background="new    " d="M305.064,264.449c-0.105-0.271-0.204-0.543-0.301-0.815
			c-2.431,3.401-4.474,7.006-6.011,10.708c0.616,1.001,1.261,1.965,1.935,2.879c0.152,0.204,0.112,0.413-0.01,0.565
			c1.507,0.57,3.029,1.127,4.56,1.658c0.154,0.051,0.308,0.097,0.463,0.149c0.9-2.401,1.964-4.706,3.14-6.946
			C307.384,269.976,306.131,267.217,305.064,264.449z"/>
		<path opacity="0.53" fill="#919AB8" enable-background="new    " d="M309.418,273.688c-1.032,2.015-1.966,4.08-2.773,6.223
			c3.134,1.064,6.279,2.058,9.433,3.002C313.503,280.11,311.298,276.98,309.418,273.688z"/>
		<path opacity="0.53" fill="#919AB8" enable-background="new    " d="M320.117,269.744c-1.226-2.3-2.359-4.71-3.341-7.186
			c-2.592,3.143-4.886,6.515-6.823,10.121c1.824,3.284,3.965,6.415,6.487,9.218c0.813-3.929,2.212-7.784,4.056-11.464
			C320.37,270.207,320.239,269.976,320.117,269.744z"/>
		<path opacity="0.53" fill="#919AB8" enable-background="new    " d="M316.357,261.499c-0.987-2.629-1.794-5.324-2.361-8.042
			c-3.173,2.768-6.053,5.881-8.546,9.23c0.173,0.473,0.347,0.938,0.53,1.403c0.971,2.534,2.104,5.071,3.406,7.524
			C311.374,268.018,313.719,264.638,316.357,261.499z"/>
		<path opacity="0.53" fill="#919AB8" enable-background="new    " d="M325.894,278.698c-1.811-2.309-3.416-4.766-4.823-7.235
			c-1.672,3.454-2.932,7.047-3.679,10.711c-0.04,0.21-0.188,0.329-0.356,0.373c0.28,0.3,0.572,0.601,0.869,0.896
			c2.04,0.595,4.09,1.176,6.136,1.722c0.22-1.584,0.581-3.136,1.252-4.612C325.478,279.925,325.688,279.309,325.894,278.698z"/>
		<path opacity="0.53" fill="#919AB8" enable-background="new    " d="M326.62,279.595c-0.004,0.014-0.01,0.024-0.016,0.042
			c0.082,0.147,0.109,0.325,0.012,0.494c-0.142,0.24-0.258,0.488-0.376,0.739c-0.129,0.435-0.271,0.868-0.387,1.306
			c-0.038,0.146-0.127,0.23-0.229,0.271c-0.305,0.965-0.492,1.963-0.626,2.977c2.297,0.614,4.229,0.532,6.531,1.083
			c0.033-0.696,0.48-0.723,0.571-1.406C330.098,283.46,328.276,281.598,326.62,279.595z"/>
		<path opacity="0.53" fill="#919AB8" enable-background="new    " d="M328.058,260.622c-2.495,3.06-4.684,6.354-6.458,9.81
			c1.355,2.444,2.903,4.888,4.657,7.183c1.262-3.492,2.904-6.84,4.845-10.011C329.984,265.352,328.94,263.01,328.058,260.622z"/>
		<path opacity="0.53" fill="#919AB8" enable-background="new    " d="M332.504,270.303c-0.293-0.543-0.585-1.094-0.868-1.646
			c-1.873,3.127-3.444,6.435-4.646,9.885c1.592,1.98,3.35,3.838,5.28,5.473c0.556-3.057,1.65-6.044,3.033-8.885
			C334.317,273.54,333.379,271.924,332.504,270.303z"/>
		<path opacity="0.53" fill="#919AB8" enable-background="new    " d="M379.449,273.195c-1.452-1.401-2.855-2.836-4.254-4.281
			c-0.533,0.9-1.035,1.809-1.518,2.707c-1.551,2.916-2.955,6.041-4.054,9.277c-0.529,2.916-4.941,2.335,5.575,1.519
			c3.793-4.604,3.477-3.733,5.621-7.93C380.363,274.062,379.901,273.636,379.449,273.195z"/>
		<path opacity="0.53" fill="#919AB8" enable-background="new    " d="M394.616,268.879c-2.082,3.875-3.604,8.123-4.683,12.484
			c0,0,4.608-0.949,8.499-0.857c0.244-4.577,0.392-2.251,2.261-6.486C398.616,272.357,396.595,270.644,394.616,268.879z"/>
		<path opacity="0.53" fill="#919AB8" enable-background="new    " d="M406.192,279.902c-2.28-1.609-2.517-3.516-4.707-5.249
			c-1.85,4.257-2.515,1.224-2.668,5.823L406.192,279.902z"/>
		<path opacity="0.53" fill="#919AB8" enable-background="new    " d="M360.129,270.563c-0.82-1.147-1.623-2.308-2.413-3.481
			c-0.134,0.219-0.271,0.438-0.397,0.649c-1.737,2.885-3.284,5.966-4.561,9.165c1.869,2.539,3.847,4.986,5.935,7.331
			c0.654-3.704,1.854-7.374,3.49-10.883C361.491,272.422,360.801,271.499,360.129,270.563z"/>
		<path opacity="0.53" fill="#919AB8" enable-background="new    " d="M368.506,281.075c-1.957-2.217-3.834-4.49-5.636-6.832
			c-1.592,3.534-2.494,5.867-3.079,9.571l7.611-0.696L368.506,281.075z"/>
		<path opacity="0.53" fill="#919AB8" enable-background="new    " d="M343.628,263.98c-0.827,1.06-1.628,2.134-2.393,3.216
			c-1.704,2.419-3.392,5.085-4.81,7.898c1.37,2.166,2.844,4.284,4.427,6.32c1.128-4.418,2.967-8.712,5.353-12.726
			C345.297,267.145,344.44,265.57,343.628,263.98z"/>
		<path opacity="0.53" fill="#919AB8" enable-background="new    " d="M357.812,284.168c-2.161-2.391-3.523-3.878-5.46-6.467
			c-1.525,4.055-1.762,2.688-2.067,6.957L357.812,284.168z"/>
		<path opacity="0.53" fill="#919AB8" enable-background="new    " d="M346.78,269.657c-2.331,4.02-4.104,8.328-5.149,12.745
			c2.11,2.611,1.988,3.134,7.703,2.588c0.387-4.335,0.729-3.897,2.317-7.984C349.912,274.63,348.289,272.167,346.78,269.657z"/>
		<path opacity="0.53" fill="#919AB8" enable-background="new    " d="M334.317,286.386l5.555-0.5l0.134-0.395
			c0.154-1.931,0.12-0.99,0.551-2.889c-1.659-2.088-3.196-4.259-4.618-6.48c-1.303,2.759-2.321,5.653-2.788,8.601L334.317,286.386z"
			/>
		<path opacity="0.53" fill="#919AB8" enable-background="new    " d="M298.288,275.424c-0.005,0.017-0.011,0.033-0.017,0.051
			c-0.224,0.57-1.156,0.205-0.933-0.369c0.094-0.235,0.209-0.479,0.308-0.725c-1.925-3.208-3.539-6.794-4.677-10.541
			c-1.836,2.823-3.403,5.775-4.629,8.758c3.699,1.695,7.452,3.288,11.263,4.769C299.156,276.747,298.719,276.093,298.288,275.424z"
			/>
		<path opacity="0.45" fill="#919AB8" enable-background="new    " d="M385.31,278.67c-1.22-1.086-2.433-2.173-3.625-3.298
			c-0.493,0.977-0.941,1.963-1.37,2.961C381.98,278.449,383.641,278.564,385.31,278.67z"/>
		<path opacity="0.45" fill="#919AB8" enable-background="new    " d="M349.009,273.188c-0.727-1.11-1.435-2.225-2.116-3.357
			c-0.478,0.83-0.926,1.671-1.36,2.518C346.693,272.636,347.852,272.907,349.009,273.188z"/>
		<path opacity="0.53" fill="#919AB8" enable-background="new    " d="M386.877,262.7c-2.08,3.874-3.603,8.122-4.682,12.484
			c2.428,2.037,4.905,4.016,7.44,5.93c0.245-4.577,1.449-9.04,3.317-13.273C390.878,266.178,388.856,264.464,386.877,262.7z"/>
		<path opacity="0.53" fill="#919AB8" enable-background="new    " d="M379.866,259.184c-2.419,3.638-1.596,2.41-4.109,8.017
			c2.228,2.29,3.762,3.762,6.105,5.941c0.659-4.535,1.229-6.343,3.467-10.362C383.416,260.899,381.917,260.74,379.866,259.184z"/>
		<path opacity="0.53" fill="#919AB8" enable-background="new    " d="M304.349,243.218c-4.155,2.067-9.522,2.981-12.492,8.392
			c0.783,3.321,0.687,5.76,1.646,9.046c2.365-4.174,5.282-7.44,8.842-9.832C301.636,248.125,304.91,245.955,304.349,243.218z"/>
		<polygon fill="#919AB8" points="317.975,262.7 321.464,267.865 326.351,260.675 316.357,258.631 		"/>
	</g>
	<path opacity="0.53" fill="#919AB8" enable-background="new    " d="M227.556,258.481l-4.344-10.581
		c-3.362,2.037-4.388,1.687-6.554,4.444l0.239,5.601L227.556,258.481z"/>
	<path opacity="0.45" fill="#919AB8" enable-background="new    " d="M210.284,256.635c0.083,0.269,0.179,0.528,0.259,0.791
		c2.446,0.662,2.39,1.258,5.652,0.369c-0.374-2.335,0.189-2.806-0.468-5.061C213.728,253.965,212.258,255.366,210.284,256.635z"/>
	<path opacity="0.53" fill="#919AB8" enable-background="new    " d="M343.246,245.865c-0.917-3.89-3.565-7.394-6.559-10.404
		c-4.509-0.578-9.071-0.986-13.636-1.251c3.875,2.506,7.246,5.617,9.923,9.027C336.458,243.945,339.889,244.813,343.246,245.865z"/>
	<g>
		<path opacity="0.53" fill="#919AB8" enable-background="new    " d="M361.469,272.446c2.962-3.748,5.371-7.772,7.065-11.957
			c-0.157-0.313-0.319-0.627-0.493-0.938c-2.246-0.386-4.502-0.758-6.763-1.089c-0.54,2.665-1.434,5.371-2.629,8.035
			C359.842,268.399,360.807,270.405,361.469,272.446z"/>
		<path opacity="0.53" fill="#919AB8" enable-background="new    " d="M351.539,275.116c2.109-2.695,3.87-5.584,5.229-8.546
			c-1.606-2.502-3.603-4.81-5.793-6.777c-0.687,3.039-1.823,6.102-3.322,9.087C349.13,270.852,350.465,272.94,351.539,275.116z"/>
		<path opacity="0.53" fill="#919AB8" enable-background="new    " d="M346.669,266.678c0.142,0.175,0.279,0.355,0.414,0.534
			c1.444-2.961,2.517-5.993,3.14-8.996c-0.719-0.608-1.455-1.182-2.206-1.714c-0.17-0.118-0.175-0.278-0.099-0.414
			c-1.402-0.116-2.815-0.219-4.229-0.302c-0.142-0.007-0.282-0.01-0.424-0.018c-0.322,1.929-0.8,3.818-1.388,5.685
			C343.633,263.112,345.231,264.873,346.669,266.678z"/>
		<path opacity="0.53" fill="#919AB8" enable-background="new    " d="M333.659,266.734c1.488,1.433,2.918,2.962,4.229,4.571
			c1.632-2.804,2.967-5.717,3.95-8.729c-2.189-2.03-4.619-3.886-7.313-5.426c0.042,3.024-0.432,6.11-1.318,9.157
			C333.356,266.447,333.513,266.589,333.659,266.734z"/>
		<path opacity="0.53" fill="#919AB8" enable-background="new    " d="M352.086,258.89c2.262,1.955,4.325,4.247,6.01,6.75
			c1.043-2.42,1.832-4.882,2.323-7.3c-3.497-0.5-7.022-0.915-10.577-1.236c0.502,0.364,1.001,0.754,1.497,1.155L352.086,258.89z"/>
		<path opacity="0.45" fill="#919AB8" enable-background="new    " d="M308.19,269.965c0.836,0.664,1.655,1.336,2.454,2.026
			c0.253-0.7,0.479-1.402,0.694-2.106"/>
	</g>
	<g>
		<g>
			<path opacity="0.53" fill="#919AB8" enable-background="new    " d="M395.357,258.591c2.949-2.519,5.607-5.322,7.846-8.366
				c-2.087-2.13-2.87-2.605-7.035-3.5c-1.438,3.657-2.701,4.391-5.068,7.522C392.546,255.675,393.979,257.116,395.357,258.591z"/>
			<path opacity="0.53" fill="#919AB8" enable-background="new    " d="M395.987,259.29c1.441,1.557,2.84,3.155,4.201,4.775
				c3.384-2.083,6.273-4.824,8.722-7.71c-1.329-1.504-2.673-2.996-4.07-4.456c-0.314-0.331-0.638-0.651-0.951-0.978
				C401.619,253.963,398.952,256.766,395.987,259.29z"/>
			<path opacity="0.53" fill="#919AB8" enable-background="new    " d="M376.57,256.892c2.701-2.545,5.139-5.336,7.082-8.353
				c-1.975-1.715-3.997-3.388-6.072-5.014c-1.421,3.179-3.15,6.403-5.194,9.448C373.824,254.245,375.23,255.552,376.57,256.892z"/>
			<path opacity="0.53" fill="#919AB8" enable-background="new    " d="M348.226,245.7c1.908,1.553,3.925,1.586,6.16,2.795
				c1.197-2.658,1.641-4.475,1.948-7.473c-1.023-0.79-2.052-1.577-3.093-2.354c-1.495-1.116-1.276-0.742-3.274-1.406
				c0.407,1.646-1.36-0.463-1.354-0.404C348.887,239.909,348.688,242.663,348.226,245.7z"/>
			<path opacity="0.53" fill="#919AB8" enable-background="new    " d="M272.907,223.87"/>
			<path opacity="0.53" fill="#919AB8" enable-background="new    " d="M377.234,257.552c1.376,1.422,2.669,2.898,3.854,4.433
				c3.509-2.037,6.422-4.662,8.802-7.699c-1.789-1.742-3.626-3.449-5.511-5.11C382.407,252.193,379.952,254.995,377.234,257.552z"/>
			<path opacity="0.45" fill="#919AB8" enable-background="new    " d="M418.812,249.511c-0.625-0.188-1.254-0.375-1.884-0.568
				c-0.537-0.091-1.078-0.184-1.615-0.277c-1.113,1.937-2.359,3.792-3.685,5.541c-0.514,0.672-1.049,1.342-1.605,2.013
				c1.417,1.608,2.809,3.224,4.185,4.854c2.771-2.395,5.2-5.114,7.171-8.052C420.546,251.844,419.691,250.674,418.812,249.511z"/>
			<path opacity="0.45" fill="#919AB8" enable-background="new    " d="M414.269,248.485c-2.681-0.461-5.361-0.923-8.042-1.385
				c-0.605,1.001-1.235,1.987-1.919,2.946c0.409,0.419,0.833,0.845,1.24,1.272c1.314,1.377,2.585,2.775,3.84,4.186
				c0.594-0.724,1.166-1.455,1.703-2.19C412.225,251.785,413.288,250.163,414.269,248.485z"/>
			<path opacity="0.45" fill="#919AB8" enable-background="new    " d="M400.322,246.085c1.114,1.077,2.219,2.155,3.302,3.262
				c0.56-0.795,1.078-1.604,1.577-2.424C403.574,246.64,401.951,246.36,400.322,246.085z"/>
			<path opacity="0.45" fill="#919AB8" enable-background="new    " d="M387.094,243.822c-0.663,1.526-1.433,3.023-2.331,4.464
				c1.905,1.673,3.758,3.382,5.563,5.139c1.894-2.545,3.448-5.339,4.714-8.251C392.389,244.72,389.737,244.268,387.094,243.822z"/>
			<path opacity="0.45" fill="#919AB8" enable-background="new    " d="M395.888,259.122c1.442,1.56,2.84,3.155,4.2,4.775
				c3.385-2.077,6.274-4.825,8.723-7.708c-1.327-1.507-2.678-2.996-4.069-4.457c-0.316-0.331-0.642-0.65-0.955-0.977
				C401.525,253.797,398.851,256.602,395.888,259.122z"/>
			<path opacity="0.53" fill="#919AB8" enable-background="new    " d="M376.478,256.732c2.694-2.552,5.13-5.342,7.079-8.351
				c-1.974-1.717-4-3.395-6.074-5.023c-1.422,3.188-3.15,6.406-5.195,9.449C373.734,254.077,375.133,255.385,376.478,256.732z"/>
			<path opacity="0.45" fill="#919AB8" enable-background="new    " d="M353.142,238.5c-0.221-0.167-0.449-0.327-0.67-0.49
				c-1.234-0.207-2.47-0.408-3.701-0.609c0.116,2.405,0.049,4.839-0.308,7.208c1.906,1.557,4.145,2.225,5.923,3.885
				c1.198-2.656,1.542-4.636,1.851-7.644C355.207,240.062,354.184,239.279,353.142,238.5z"/>
			<path opacity="0.45" fill="#919AB8" enable-background="new    " d="M397.065,265.489c0.772-0.352,1.524-0.722,2.247-1.142
				c-1.328-1.577-2.69-3.131-4.092-4.656c-1.771,1.457-3.65,2.799-5.609,4.032C392.098,264.306,394.583,264.89,397.065,265.489z"/>
			<path opacity="0.45" fill="#919AB8" enable-background="new    " d="M361.545,257.396c1.666,0.358,3.324,0.729,4.983,1.097
				c1.65-1.755,3.152-3.65,4.511-5.628c-0.731-0.635-1.47-1.262-2.215-1.887c-1.326-1.108-2.662-2.212-4-3.305
				c-0.88,3.029-2.25,6.004-4.418,8.383C360.794,256.499,361.17,256.946,361.545,257.396z"/>
			<path opacity="0.45" fill="#919AB8" enable-background="new    " d="M372.849,259.882c1.021-0.824,2.025-1.673,2.99-2.564
				c-1.294-1.299-2.656-2.557-4.051-3.795c-1.273,1.834-2.672,3.577-4.174,5.206C369.359,259.115,371.107,259.49,372.849,259.882z"
				/>
			<path opacity="0.45" fill="#919AB8" enable-background="new    " d="M382.348,262.039c1.999,0.458,4.001,0.921,6.002,1.385
				c2.187-1.339,4.284-2.81,6.243-4.424c-1.34-1.438-2.726-2.839-4.127-4.226C388.232,257.59,385.537,260.057,382.348,262.039z"/>
			<path opacity="0.45" fill="#919AB8" enable-background="new    " d="M361.913,252.482c2.107-2.355,1.251-2.473,2.075-5.484
				c-2.321-1.891-4.664-3.762-7.038-5.598c-0.33,2.982-0.146,5.047-1.375,7.787C358.155,250.572,360.301,250.675,361.913,252.482z"
				/>
			<path opacity="0.45" fill="#919AB8" enable-background="new    " d="M339.657,235.912c0.269,0.875,0.501,1.756,0.691,2.656
				c2.487,1.698,4.899,3.472,7.227,5.327c0.291-2.193,0.331-4.434,0.212-6.655C345.083,236.798,342.368,236.355,339.657,235.912z"/>
			<path opacity="0.45" fill="#919AB8" enable-background="new    " d="M365.223,240.125c-2.7-0.451-5.4-0.898-8.098-1.345
				c-0.009,0.264-0.002,0.532-0.018,0.794c-0.016,0.271-0.041,0.547-0.062,0.819c2.423,1.857,4.82,3.758,7.186,5.675
				c0.162-0.66,0.304-1.317,0.428-1.965C364.908,242.787,365.091,241.464,365.223,240.125z"/>
			<path opacity="0.45" fill="#919AB8" enable-background="new    " d="M377.133,257.387c1.381,1.422,2.668,2.899,3.859,4.432
				c3.51-2.031,6.421-4.664,8.8-7.697c-1.784-1.747-3.622-3.453-5.506-5.112C382.309,252.028,379.858,254.826,377.133,257.387z"/>
			<path opacity="0.45" fill="#919AB8" enable-background="new    " d="M376.69,242.745c-0.389-0.298-0.785-0.59-1.177-0.887
				c-3.107-0.525-6.218-1.051-9.324-1.572c-0.176,1.753-0.429,3.488-0.806,5.199c-0.092,0.422-0.198,0.847-0.311,1.271
				c1.785,1.454,3.564,2.924,5.311,4.404c0.38,0.327,0.756,0.651,1.135,0.977c1.739-2.63,3.255-5.374,4.56-8.092
				C376.278,243.641,376.484,243.199,376.69,242.745z"/>
			<path opacity="0.45" fill="#919AB8" enable-background="new    " d="M377.951,242.267c-0.039,0.095-0.078,0.197-0.117,0.288
				c2.113,1.649,4.183,3.351,6.195,5.098c0.796-1.292,1.486-2.632,2.081-3.998C383.392,243.19,380.67,242.726,377.951,242.267z"/>
		</g>
	</g>
	<g>
		<path opacity="0.53" fill="#919AB8" enable-background="new    " d="M141.501,235.375c1.072,0.817,6.622,4.442,6.622,4.442
			l3.601-5.512c-0.743-2.435-1.361-4.91-1.803-7.446c-0.161,0.02-0.32,0.035-0.48,0.054c-1.601,0.21-3.198,0.448-4.784,0.701
			c0.09,0.174,0.094,0.387-0.094,0.556c-0.83,0.759-1.642,1.574-2.432,2.431C142.131,230.601,140.429,234.559,141.501,235.375z"/>
		<path opacity="0.53" fill="#919AB8" enable-background="new    " d="M160.724,225.711c-3.27,0.286-6.542,0.623-9.815,1.031
			c0.398,2.265,0.933,4.479,1.575,6.663C154.936,230.557,157.679,227.936,160.724,225.711z"/>
		<path opacity="0.53" fill="#919AB8" enable-background="new    " d="M162.76,238.841c-1.131-3.981-1.793-8.044-1.867-12.061
			c-2.993,2.236-5.674,4.873-8.07,7.722c1.238,3.927,2.867,7.699,4.831,11.305c1.421-2.229,2.978-4.36,4.608-6.368
			C162.423,239.237,162.596,239.036,162.76,238.841z"/>
		<path opacity="0.53" fill="#919AB8" enable-background="new    " d="M157.048,246.759c-2.009-3.612-3.688-7.4-4.977-11.33
			c-1.733,2.141-2.06,2.457-3.483,4.744c-0.265,0.419,3.583,2.747,3.326,3.176c0,0,2.369,3.847,1.089,7.193s0.519,3.867,0.519,3.867
			L157.048,246.759z"/>
		<path opacity="0.53" fill="#919AB8" enable-background="new    " d="M169.338,229.893c-0.386-1.583-0.455-3.176-0.379-4.775
			c-2.11,0.121-4.229,0.275-6.342,0.444c-0.344,0.231-0.687,0.465-1.02,0.702c0.159,0.078,0.281,0.224,0.283,0.438
			c0.058,3.743,0.632,7.521,1.635,11.245c1.838-2.136,3.867-4.218,6.071-6.116C169.496,231.191,169.405,230.544,169.338,229.893z"/>
		<path opacity="0.53" fill="#919AB8" enable-background="new    " d="M176.863,226.814c0.038-0.688,0.09-1.376,0.186-2.066
			c-2.363,0.074-4.73,0.173-7.101,0.309c-0.056,1.021-0.054,2.037,0.066,3.045c0.092,0.061,0.162,0.161,0.173,0.312
			c0.033,0.453,0.093,0.906,0.14,1.357c0.069,0.271,0.135,0.538,0.231,0.803c0.065,0.185,0.007,0.353-0.102,0.48
			c0.002,0.018,0.005,0.029,0.007,0.044C172.46,229.471,174.593,228.016,176.863,226.814z"/>
		<path opacity="0.53" fill="#919AB8" enable-background="new    " d="M163.095,239.974c-0.147,0.185-0.298,0.36-0.44,0.544
			c-1.582,1.981-3.083,4.09-4.456,6.28c1.952,3.464,4.236,6.75,6.782,9.865c0.794-1.945,1.751-3.835,2.812-5.677
			C165.856,247.458,164.257,243.759,163.095,239.974z"/>
		<path opacity="0.53" fill="#919AB8" enable-background="new    " d="M164.582,257.706c-2.608-3.142-4.958-6.46-6.975-9.948
			c-1.401,2.335-2.648,4.778-3.655,7.295c2.643,3.276,4.044,4.131,7.93,6.091C163.668,258.99,163.652,259.334,164.582,257.706z"/>
		<path opacity="0.53" fill="#919AB8" enable-background="new    " d="M172.653,243.764c-1.319-3.501-2.313-7.116-2.908-10.796
			c-2.147,1.895-4.119,3.977-5.9,6.099c1.104,3.747,2.646,7.42,4.533,10.925C169.683,247.828,171.139,245.744,172.653,243.764z"/>
		<path opacity="0.53" fill="#919AB8" enable-background="new    " d="M178.169,237.236c-0.835-3.064-1.361-6.216-1.341-9.323
			c-2.198,1.21-4.267,2.675-6.195,4.294c0.544,3.625,1.477,7.186,2.738,10.633c0.382-0.484,0.769-0.965,1.157-1.438
			C175.687,239.989,176.903,238.596,178.169,237.236z"/>
		<path opacity="0.53" fill="#919AB8" enable-background="new    " d="M188.068,246.781c-1.146,1.315-2.235,2.662-3.293,4.033
			c1.507,2.858,3.222,5.665,5.155,8.304c0.613-0.771,1.255-1.518,1.918-2.257c0.272-0.303,0.549-0.601,0.826-0.907
			C190.851,253.049,189.302,249.966,188.068,246.781z"/>
		<path opacity="0.53" fill="#919AB8" enable-background="new    " d="M197.517,249.365c-1.134-3.063-2.068-6.274-2.738-9.547
			c-2.09,1.958-4.081,4.013-5.979,6.146c1.204,3.208,2.74,6.318,4.551,9.25c1.493-1.619,3.021-3.219,4.576-4.783
			C197.789,250.07,197.654,249.713,197.517,249.365z"/>
		<path opacity="0.53" fill="#919AB8" enable-background="new    " d="M214.42,249.251c-1.038-3.205-1.875-6.596-2.398-10.024
			c-2.288,1.767-4.52,3.614-6.684,5.527c1.028,3.873,2.563,7.657,4.525,11.197c1.823-1.338,3.648-2.657,5.501-3.957
			C215.027,251.078,214.712,250.162,214.42,249.251z"/>
		<path opacity="0.53" fill="#919AB8" enable-background="new    " d="M222.742,247.092c-1.331-4.549-2.117-9.216-2.224-13.876
			c-2.598,1.683-5.125,3.461-7.586,5.323c0.481,3.395,1.283,6.743,2.269,9.915c0.308,0.979,0.634,1.971,0.991,2.962
			c1.638-1.133,3.283-2.256,4.967-3.335C221.684,247.741,222.217,247.416,222.742,247.092z"/>
		<path opacity="0.53" fill="#919AB8" enable-background="new    " d="M204.51,245.506c-0.497,0.443-1,0.885-1.488,1.342
			c-1.34,1.244-2.65,2.526-3.94,3.82c1.307,3.276,2.964,6.62,5.093,9.6c1.115-0.916,2.269-1.794,3.414-2.643
			c0.493-0.364,0.984-0.719,1.48-1.086C207.114,253.05,205.572,249.322,204.51,245.506z"/>
		<path opacity="0.53" fill="#919AB8" enable-background="new    " d="M198.327,251.419c-1.504,1.522-2.971,3.07-4.418,4.638
			c1.857,2.863,3.978,5.546,6.333,7.959c0.97-1.114,2.04-2.154,3.177-3.122C201.306,257.948,199.641,254.658,198.327,251.419z"/>
		<path opacity="0.53" fill="#919AB8" enable-background="new    " d="M243.697,229.475c-3.401-0.539-6.811-1.044-10.223-1.499
			c-0.507,4.242-0.751,8.703-0.568,13.153c2.832-1.535,5.717-3,8.63-4.382C241.956,234.291,242.66,231.855,243.697,229.475z"/>
		<path opacity="0.53" fill="#919AB8" enable-background="new    " d="M231.941,241.669c-0.231-4.668,0.01-9.358,0.542-13.815
			c-3.546-0.475-7.097-0.899-10.656-1.269c-0.197,1.614-0.284,3.236-0.304,4.86c1.839-1.15,3.702-2.267,5.604-3.325
			c0.557-0.307,0.986,0.556,0.431,0.867c-2.062,1.141-4.079,2.348-6.058,3.601c0.043,4.69,0.793,9.384,2.116,13.953
			C226.345,244.851,229.118,243.227,231.941,241.669z"/>
		<path opacity="0.53" fill="#919AB8" enable-background="new    " d="M234.398,255.891c-1.352-4.214-2.104-8.664-2.398-13.153
			c-2.742,1.516-5.446,3.109-8.1,4.763c1.252,4.077,2.981,8.028,5.08,11.763C230.753,258.096,232.569,256.984,234.398,255.891z"/>
		<path opacity="0.53" fill="#919AB8" enable-background="new    " d="M242.171,251.576c-1.055-4.528-1.413-9.147-0.809-13.685
			c-2.842,1.364-5.642,2.802-8.401,4.306c0.254,4.495,0.965,8.968,2.294,13.188C237.523,254.057,239.825,252.787,242.171,251.576z"
			/>
		<path opacity="0.53" fill="#919AB8" enable-background="new    " d="M253.957,230.951c-1.665,4.353-2.764,10.961-1.962,15.442
			c3.926-2.079,9.581-5.025,13.69-6.781c0.579-2.983,1.306-6.3,2.157-9.194c-4.371-0.541-8.741-0.686-13.123-1.114
			c-0.055,0.095-0.097,0.2-0.154,0.302L253.957,230.951z"/>
		<path opacity="0.53" fill="#919AB8" enable-background="new    " d="M283.146,245.152c0.018-0.064,0.045-0.132,0.062-0.197
			c-1.739,0.83-3.47,1.688-5.187,2.56c-1.194,0.609-2.38,1.23-3.56,1.857c-0.332,3.431-0.214,6.877,0.407,10.149
			c2.11-1.414,4.273-2.738,6.491-3.997C281.547,252.013,282.229,248.497,283.146,245.152z"/>
		<path opacity="0.53" fill="#919AB8" enable-background="new    " d="M294.97,243.377c1.334-2.354,2.874-4.656,4.563-6.856
			c-4.551,1.82-9.043,3.783-13.476,5.876c-0.096,0.335-0.195,0.666-0.288,0.998c-0.847,3.083-1.488,6.309-1.717,9.55
			c2.692-1.491,5.462-2.868,8.28-4.155C293.084,246.902,294.006,245.083,294.97,243.377z"/>
		<path opacity="0.53" fill="#919AB8" enable-background="new    " d="M286.319,231.282c-0.916-0.246-3.371-0.143-4.292-0.383
			c-0.694,0.454-1.658,2.326-2.32,2.828C281.3,233.468,284.724,231.507,286.319,231.282z"/>
		<path opacity="0.53" fill="#919AB8" enable-background="new    " d="M319.881,236.965c0.797-0.848,1.62-1.664,2.49-2.441
			c-2.049-0.276-4.097-0.553-6.148-0.836c-1.291-0.185-2.59-0.343-3.883-0.517c-2.107,2.379-3.945,4.982-5.532,7.617
			c-0.189,0.315-0.384,0.635-0.574,0.967C310.706,239.974,315.276,238.384,319.881,236.965z"/>
		<path opacity="0.53" fill="#919AB8" enable-background="new    " d="M306.154,240.287c1.653-2.457,3.765-5.231,5.862-7.439
			c-1.742-0.316-3.726-0.275-5.465-0.592c-2.849-0.151-1.918-0.518-3.249,0c-1.798,2.2-4.179,6.068-5.62,8.471
			c-1.023,1.709-2.025,3.555-2.855,5.473c3.297-1.456,6.668-2.782,10.085-3.989C305.319,241.552,305.734,240.911,306.154,240.287z"
			/>
		<path opacity="0.53" fill="#919AB8" enable-background="new    " d="M276.936,236.27c-3.508,1.217-6.964,2.559-10.364,4
			c-0.646,3.514-1.061,7.06-1.138,10.623c-0.013,0.753-0.013,1.525,0.007,2.303c2.75-1.55,5.521-3.074,8.315-4.542
			c0.036-0.318,0.072-0.626,0.117-0.939C274.4,243.84,275.396,239.942,276.936,236.27z"/>
		<path opacity="0.53" fill="#919AB8" enable-background="new    " d="M279.405,234.312c-1.773,3.835-2.983,8.063-3.519,12.332
			c0.975-0.51,1.953-1.03,2.938-1.531c2.003-1.019,4.024-2.002,6.059-2.968c1.043-3.473,2.571-7.376,4.378-10.583
			c-0.829-0.132-1.489-0.156-2.321-0.279L279.405,234.312z"/>
		<path opacity="0.53" fill="#919AB8" enable-background="new    " d="M300.061,234.819c0.373-0.455,1.63-2.286,2.021-2.728
			c-4.397-0.385-8.234-0.206-12.038-0.809c-1.713,2.978-3.277,6.463-4.3,9.696C290.453,238.777,295.214,236.716,300.061,234.819z"/>
		<path opacity="0.53" fill="#919AB8" enable-background="new    " d="M277.466,235.09c0.436-0.952,2.123-3.101,2.646-4.023
			c-3.45-0.167-11.142-0.153-11.265-0.167c-0.804,2.708-1.492,5.461-2.05,8.241C270.298,237.671,273.846,236.322,277.466,235.09z"/>
		<path opacity="0.53" fill="#919AB8" enable-background="new    " d="M250.581,247.557c-0.403-4.28-0.57-9.806,1.163-14.252
			c-3.148,1.282-6.257,2.646-9.321,4.088c-0.698,4.541-0.389,9.176,0.642,13.725C245.536,249.863,248.044,248.672,250.581,247.557z"
			/>
		<path opacity="0.53" fill="#919AB8" enable-background="new    " d="M252.297,232.05c0.175-0.346,0.363-0.687,0.569-1.02
			c-2.722-0.481-5.442-0.948-8.173-1.388c-0.973,2.164-1.644,4.367-2.074,6.6C245.795,234.756,249.029,233.353,252.297,232.05z"/>
		<path opacity="0.53" fill="#919AB8" enable-background="new    " d="M220.502,232.079c0.001-1.876,0.105-3.748,0.332-5.595
			c-2.582-0.27-5.173-0.511-7.759-0.726c-0.765,3.802-0.769,7.768-0.3,11.69C215.279,235.567,217.855,233.771,220.502,232.079z"/>
		<path opacity="0.53" fill="#919AB8" enable-background="new    " d="M204.232,244.435c-0.959-3.771-1.459-7.612-1.418-11.376
			c-2.483,1.875-4.878,3.874-7.182,5.983c0.662,3.396,1.614,6.729,2.788,9.909c0.084,0.234,0.18,0.476,0.271,0.718
			c0.993-0.991,1.995-1.965,3.012-2.924C202.534,245.964,203.382,245.199,204.232,244.435z"/>
		<path opacity="0.53" fill="#919AB8" enable-background="new    " d="M211.867,238.138c-0.545-4.175-0.578-8.397,0.212-12.459
			c-2.543-0.203-5.092-0.375-7.642-0.521c-0.313,1.881-0.354,3.78-0.226,5.692c2.234-1.602,4.521-3.134,6.856-4.543
			c0.538-0.326,0.966,0.537,0.435,0.858c-2.619,1.584-5.177,3.309-7.672,5.148c-0.11,3.75,0.332,7.594,1.243,11.38
			C207.272,241.762,209.535,239.915,211.867,238.138z"/>
		<path opacity="0.53" fill="#919AB8" enable-background="new    " d="M181.373,246.045c-1.072-2.431-2.08-5.035-2.879-7.716
			c-1.088,1.187-2.136,2.39-3.135,3.601c-0.537,0.655-1.064,1.321-1.591,1.996c1.619,4.164,3.734,8.151,6.262,11.89
			c1.127-1.736,2.322-3.424,3.582-5.081C182.807,249.179,182.063,247.613,181.373,246.045z"/>
		<path opacity="0.53" fill="#919AB8" enable-background="new    " d="M173.062,244.844c-1.476,1.96-2.881,4.019-4.135,6.147
			c2.159,3.84,4.742,7.451,7.633,10.704c0.902-1.688,1.861-3.344,2.889-4.971C176.883,252.991,174.725,249.008,173.062,244.844z"/>
		<path opacity="0.53" fill="#919AB8" enable-background="new    " d="M187.683,245.761c-1.6-4.417-2.613-9-2.908-13.56
			c-1.93,1.675-3.769,3.453-5.511,5.299c0.873,3.043,2.038,6,3.265,8.716c0.55,1.216,1.137,2.432,1.755,3.638
			C185.374,248.46,186.507,247.09,187.683,245.761z"/>
		<path opacity="0.53" fill="#919AB8" enable-background="new    " d="M203.156,229.266c-0.017-1.399,0.064-2.782,0.285-4.161
			c-2.667-0.151-5.333-0.264-8.005-0.341c-0.177,0.094-0.347,0.183-0.52,0.279c-0.486,4.246-0.238,8.608,0.511,12.892
			c2.379-2.145,4.851-4.181,7.415-6.086c0.036-0.768,0.075-1.529,0.152-2.288C203.005,229.428,203.069,229.336,203.156,229.266z"/>
		<path opacity="0.53" fill="#919AB8" enable-background="new    " d="M194.565,238.71c-0.807-4.329-1.123-8.749-0.702-13.078
			c-2.87,1.675-5.587,3.625-8.141,5.757c0.211,4.542,1.158,9.125,2.705,13.537C190.373,242.773,192.421,240.688,194.565,238.71z"/>
		<path opacity="0.53" fill="#919AB8" enable-background="new    " d="M193.524,224.722c-2.805-0.067-5.612-0.092-8.419-0.084
			c-0.053,0.14-0.165,0.26-0.36,0.302c-2.426,0.497-4.731,1.351-6.921,2.457c-0.086,2.984,0.38,6.028,1.149,8.996
			c1.808-1.889,3.718-3.705,5.73-5.416c-0.071-1.949-0.014-3.9,0.189-5.825c0.063-0.605,1.06-0.534,0.997,0.079
			c-0.172,1.625-0.222,3.275-0.191,4.926C188.159,228.147,190.771,226.311,193.524,224.722z"/>
		<path opacity="0.53" fill="#919AB8" enable-background="new    " d="M181.988,224.679c-1.313,0.014-2.624,0.011-3.935,0.05
			c-0.076,0.515-0.126,1.037-0.167,1.561C179.204,225.656,180.579,225.115,181.988,224.679z"/>
		<path opacity="0.45" fill="#919AB8" enable-background="new    " d="M160.254,243.783c-0.655,0.941-1.302,1.89-1.917,2.871
			c1.957,3.457,4.243,6.747,6.787,9.866c0.798-1.952,1.751-3.845,2.813-5.683c-1.321-2.399-2.465-4.891-3.44-7.421
			C163.082,243.538,161.668,243.657,160.254,243.783z"/>
		<path opacity="0.45" fill="#919AB8" enable-background="new    " d="M165.524,243.341c0.866,2.21,1.857,4.393,2.995,6.5
			c1.307-2.163,2.759-4.239,4.279-6.227c-0.098-0.259-0.183-0.526-0.281-0.792C170.184,242.971,167.853,243.146,165.524,243.341z"/>
		<path opacity="0.45" fill="#919AB8" enable-background="new    " d="M188.209,246.629c-1.141,1.313-2.235,2.659-3.291,4.034
			c1.505,2.856,3.218,5.661,5.148,8.31c0.616-0.769,1.263-1.525,1.924-2.266c0.27-0.3,0.551-0.596,0.826-0.898
			C190.994,252.898,189.446,249.814,188.209,246.629z"/>
		<path opacity="0.45" fill="#919AB8" enable-background="new    " d="M188.942,245.81c1.208,3.213,2.736,6.326,4.553,9.252
			c1.491-1.618,3.017-3.21,4.576-4.781c-0.136-0.357-0.28-0.712-0.408-1.064c-0.888-2.399-1.647-4.887-2.258-7.415
			c-0.909,0.018-1.818,0.047-2.727,0.076C191.399,243.16,190.147,244.46,188.942,245.81z"/>
		<path opacity="0.45" fill="#919AB8" enable-background="new    " d="M205.484,244.603c1.027,3.873,2.562,7.657,4.523,11.196
			c1.819-1.338,3.648-2.655,5.5-3.956c-0.337-0.918-0.654-1.831-0.95-2.737c-0.755-2.354-1.404-4.801-1.903-7.293
			c-0.547-0.074-1.096-0.149-1.645-0.226c-0.667,0.006-1.33,0.004-1.99,0.005C207.821,242.579,206.641,243.583,205.484,244.603z"/>
		<path opacity="0.45" fill="#919AB8" enable-background="new    " d="M215.344,248.301c0.298,0.985,0.633,1.974,0.992,2.965
			c1.634-1.137,3.283-2.256,4.966-3.335c0.521-0.335,1.059-0.665,1.581-0.99c-0.374-1.277-0.688-2.567-0.973-3.865
			c-2.73-0.374-5.461-0.746-8.191-1.12C214.163,244.121,214.707,246.25,215.344,248.301z"/>
		<path opacity="0.45" fill="#919AB8" enable-background="new    " d="M204.656,245.354c-0.499,0.443-1.001,0.886-1.492,1.342
			c-1.342,1.243-2.65,2.527-3.939,3.819c1.308,3.276,2.964,6.623,5.092,9.599c1.118-0.911,2.266-1.781,3.417-2.636
			c0.487-0.36,0.981-0.725,1.476-1.089C207.261,252.9,205.715,249.169,204.656,245.354z"/>
		<path opacity="0.45" fill="#919AB8" enable-background="new    " d="M222.956,243.218c0.237,1.065,0.497,2.123,0.799,3.18
			c1.379-0.859,2.77-1.681,4.17-2.498C226.266,243.667,224.614,243.442,222.956,243.218z"/>
		<path opacity="0.45" fill="#919AB8" enable-background="new    " d="M224.039,247.345c1.254,4.081,2.979,8.037,5.083,11.767
			c1.779-1.163,3.591-2.278,5.419-3.372c-1.165-3.612-1.877-7.408-2.24-11.249c-0.947-0.126-1.889-0.253-2.825-0.384
			C227.646,245.164,225.827,246.237,224.039,247.345z"/>
		<path opacity="0.45" fill="#919AB8" enable-background="new    " d="M233.306,244.633c0.352,3.614,1.017,7.192,2.084,10.607
			c2.273-1.334,4.577-2.603,6.92-3.815c-0.438-1.877-0.733-3.774-0.917-5.667C238.704,245.38,236.004,245.006,233.306,244.633z"/>
		<path opacity="0.45" fill="#919AB8" enable-background="new    " d="M251.956,256.474c-1.064-4.013-0.708-4.103-1.129-8.069
			c-2.494,1.109-4.957,2.284-7.378,3.522c0.982,3.943-3.119,1.878-1.278,5.565C243.875,256.455,250.177,257.394,251.956,256.474z"/>
		<path opacity="0.45" fill="#919AB8" enable-background="new    " d="M274.174,259.92c-0.638-3.371-0.709-6.863-0.401-10.28
			c-2.743,1.458-5.458,2.963-8.157,4.494c0.178,3.575,0.828,7.217,2.414,10.38C270.01,262.898,272.062,261.368,274.174,259.92z"/>
		<path opacity="0.45" fill="#919AB8" enable-background="new    " d="M264.594,253.59c-0.021-0.502-0.037-1.004-0.038-1.498
			c-0.011-2.009,0.67-9.367,0.868-11.371l-13.426,6.928c0.107,0.56-0.114,0.913,0,1.416c0.717,3.366,0.809,6.822,1.974,10.2
			L264.594,253.59z"/>
		<path opacity="0.45" fill="#919AB8" enable-background="new    " d="M242.394,245.897c0.166,1.695,0.433,3.393,0.815,5.073
			c2.471-1.256,4.979-2.445,7.519-3.563c-0.011-0.112-0.019-0.237-0.027-0.354C247.933,246.663,245.163,246.281,242.394,245.897z"/>
		<path opacity="0.45" fill="#919AB8" enable-background="new    " d="M198.562,248.802c0.087,0.239,0.183,0.479,0.27,0.718
			c0.997-0.989,1.998-1.964,3.014-2.923c0.831-0.782,1.677-1.55,2.526-2.304c-0.22-0.877-0.411-1.765-0.587-2.646
			c-2.451,0.027-4.912,0.068-7.37,0.126C197.007,244.17,197.723,246.529,198.562,248.802z"/>
		<path opacity="0.45" fill="#919AB8" enable-background="new    " d="M173.912,243.773c1.613,4.169,3.734,8.152,6.262,11.891
			c1.125-1.729,2.319-3.423,3.581-5.079c-0.804-1.557-1.552-3.127-2.242-4.684c-0.502-1.144-0.986-2.327-1.449-3.531
			c-1.76,0.091-3.52,0.208-5.281,0.314C174.495,243.044,174.2,243.405,173.912,243.773z"/>
		<path opacity="0.45" fill="#919AB8" enable-background="new    " d="M173.208,244.696c-1.478,1.96-2.879,4.018-4.14,6.146
			c2.16,3.839,4.746,7.45,7.638,10.705c0.894-1.686,1.86-3.344,2.886-4.975C177.027,252.841,174.871,248.856,173.208,244.696z"/>
		<path opacity="0.45" fill="#919AB8" enable-background="new    " d="M182.671,246.066c0.548,1.214,1.135,2.43,1.751,3.645
			c1.093-1.403,2.229-2.769,3.402-4.102c-0.418-1.169-0.802-2.343-1.138-3.53c-1.861,0.077-3.722,0.152-5.583,0.245
			C181.599,243.61,182.13,244.864,182.671,246.066z"/>
		<path opacity="0.45" fill="#919AB8" enable-background="new    " d="M187.698,242.036c0.271,0.917,0.556,1.833,0.873,2.745
			c0.877-0.973,1.778-1.923,2.697-2.863C190.078,241.959,188.889,241.99,187.698,242.036z"/>
		<path opacity="0.53" fill="#919AB8" d="M137.707,228.872c0,0-1.25,2.447,3.004,5.914c0,0-0.051-3.258,0.94-4.322
			c0.992-1.064,1.982-2.002,1.982-2.002L137.707,228.872z"/>
		<path fill="#919AB8" d="M151.714,255.035c0,0,1.838,2.265,2.984,4.15c1.146,1.884,0.807,1.865,0.807,1.865h4.087l0.174-0.6
			c0,0-7.288-4.581-7.428-6.594C152.199,251.842,151.714,255.035,151.714,255.035z"/>
	</g>
	<polygon fill="#919AB8" points="217.084,258.481 220.313,260.675 222.417,259.083 	"/>
	<polygon fill="#919AB8" points="207.494,259.578 213.719,259.264 209.599,257.492 	"/>
	<polygon fill="#919AB8" points="190.636,260.268 196.415,260.151 193.525,256.52 	"/>
	<polygon fill="#919AB8" points="188.8,260.488 178.169,260.488 180.034,256.976 184.097,251.266 189.25,259.334 	"/>
	<polygon fill="#919AB8" points="163.668,260.268 165.524,258.244 169.713,259.334 169.16,260.675 	"/>
	<polygon fill="#919AB8" points="165.899,256.663 168.855,251.749 172.798,258.209 170.615,258.973 	"/>
	<polygon fill="#919AB8" points="173.124,259.717 174.401,262.046 175.681,261.145 173.768,258.973 	"/>
	<polygon fill="#919AB8" points="233.306,257.492 241.69,252.48 241.69,254.018 240.475,256.947 	"/>
	<path fill="#919AB8" d="M259.274,257.794l5.443,2.245c0,0-0.101-5.493-0.303-5.443
		C264.213,254.646,259.274,257.794,259.274,257.794z"/>
	<polygon fill="#919AB8" points="341.316,282.969 340.76,285.804 343.987,285.502 	"/>
	<polygon fill="#919AB8" points="379.961,278.813 377.015,282.049 388.066,281.114 385.54,279.155 	"/>
	<polygon fill="#919AB8" points="363.593,273.142 368.534,279.028 372.902,271.615 368.534,262.7 363.05,272.228 	"/>
	<polygon fill="#919AB8" points="375.8,265.298 377.573,259.322 368.916,260.115 373.686,269.132 	"/>
	<polygon fill="#919AB8" points="395.314,267.082 401.033,273.142 405.2,262.914 	"/>
	<polygon fill="#919AB8" points="405.851,261.818 409.288,268.308 413.345,261.91 409.598,257.378 	"/>
	<polygon fill="#919AB8" points="405.851,265.131 402.448,274.243 406.615,278.813 409.598,270.493 	"/>
	<polygon fill="#919AB8" points="426.603,250.26 443.476,254.391 439.07,255.333 427.026,252.062 	"/>
	<polygon opacity="0.53" fill="#919AB8" points="421.378,255.108 422.86,253.166 420.686,250.26 426.193,250.756 427.019,252.796 
		434.451,254.391 434.451,255.108 	"/>
	<polygon opacity="0.53" fill="#919AB8" points="348.463,247.716 350.943,256.702 358.65,256.892 360.732,252.658 355.13,249.724 	
		"/>
	<polygon opacity="0.53" fill="#919AB8" points="343.753,254.774 348.226,255.414 344.443,246.068 341.877,246.725 	"/>
	<polygon opacity="0.53" fill="#919AB8" points="334.883,255.58 340.556,259.792 341.63,255.414 335.303,252.482 	"/>
	<polygon opacity="0.53" fill="#919AB8" points="333.659,244.395 335.303,251.483 342.608,254.159 341.001,246.725 	"/>
	<polygon opacity="0.53" fill="#919AB8" points="323.052,235.912 331.147,243.895 321.959,244.955 320.496,238.253 	"/>
	<polygon opacity="0.53" fill="#919AB8" points="306.234,243.218 319.13,238.78 320.889,244.955 305.449,246.941 	"/>
	<polygon opacity="0.53" fill="#919AB8" points="304.83,248.496 302.535,252.945 304.83,260.656 313.168,252.945 	"/>
	<polygon opacity="0.53" fill="#919AB8" points="306.234,247.716 313.548,251.937 320.496,246.21 	"/>
	<polygon opacity="0.53" fill="#919AB8" points="315.224,253.083 315.264,253.251 316.357,257.969 326.99,260.07 327.925,252.482 	
		"/>
	<polygon opacity="0.53" fill="#919AB8" points="316.357,251.937 322.281,246.068 330.754,245.289 327.925,251.254 	"/>
	<polygon opacity="0.53" fill="#919AB8" points="329.607,251.483 332.131,245.865 334.349,251.483 	"/>
	<polygon opacity="0.53" fill="#919AB8" points="329.225,253.083 328.536,259.521 333.15,260.07 333.659,256.892 	"/>
	<polygon fill="#919AB8" points="330.754,252.482 333.659,255.098 334.349,252.482 	"/>
	<path fill="#424041" enable-background="new    " d="M152.112,219.876c0,0,177.785,2.104,258.643,20.027
		c13.058,2.894,23.587,3.775,30.432,7.704l12.914-0.017l-4.929-7.343c0,0-2.461,0.003-4.92,0.007
		c-2.459,0.003-6.769-3.066-6.769-3.066l-6.152-2.452l3.07-3.094c0,0-15.373,0.62-17.22,0.023c-1.845-0.598-8.607,0.011-8.607,0.011
		l-17.225-3.037l-38.749-5.483l-86.718-7.265l20.904-3.718l-34.256,4.092l9.042-4.058l10.449-4.319l-48.122,6.342l6.92-6.288
		l-15.365,6.785l-22.091-1.328l17.152-13.424l-61.94,19.343"/>
	<polygon fill="#424041" points="121.198,292.641 165.474,320.775 148.871,306.708 168.934,314.318 141.26,297.945 176.544,304.633 
		148.871,296.562 	"/>
	<path fill="#424041" d="M149.646,267.971c6.56,1.174,66.635,11.88,70.518,10.943c4.107-0.991-24.785-6.232-24.785-6.232
		l28.609,1.417l-64.724-7.647l-3.824-4.533l-7.364-0.708l-3.399,0.567l-1.7,0.708c0,0,0.283,1.417,0,1.841
		c-0.283,0.425,2.832,3.258,2.832,3.258s1.701,0.142,2.125,0.142"/>
	<path fill="#424041" d="M222.499,299.154l9.021,9.899h4.839l4.181,2.64h1.32h1.1h1.541v-2.64c0,0,3.299-0.439,3.739,0.66
		c0.44,1.101,1.98,1.979,1.98,1.979s-0.219,0.661,1.32,0c1.54-0.659,1.54-0.659,1.54-0.659s1.32-0.22,0-0.88
		c-1.319-0.661-4.84-4.584-4.84-4.584s0.22-1.355,2.64-0.916s2.2,2.2,7.04,3.52c4.84,1.319,5.28,1.1,6.16,1.54s-0.44,0.44,0.88,0.44
		c1.321,0,5.06,0,5.06,0l5.72,1.833l1.541-0.953c0,0,3.299-1.32,2.2-1.541c-1.1-0.22-5.061-1.979-5.72-2.199
		c-0.66-0.22-1.32-1.724-1.32-1.724l0.439-2.017c0,0,1.541-0.22,2.421,0c0.88,0.22-2.2-1.319,0.88,0.22
		c3.08,1.54,2.2-0.365,5.06,1.797c2.86,2.163-0.44,1.504,3.74,2.823c4.18,1.32,5.719,1.98,5.719,1.98l-3.3-4.804h4.4
		c0,0-6.82-5.098-6.6-6.416c0.22-1.32,6.6,1.54,6.6,1.54l-1.98-3.521l14.3,5.94l-0.881-4.399l13.641,5.866h6.38
		c0,0-15.619-5.646-14.52-10.047h4.619l8.141,3.52l7.04,3.96h2.199l1.32-0.88l-12.1-7.92c0,0-3.081-3.3,4.399-1.979
		c7.48,1.319,14.301,6.6,14.301,6.6l-8.361-10.34l22.221,3.08l-7.7-6.38c0,0,39.599-2.42,78.318,16.5l1.321-2.652l4.18,1.772
		c0,0,2.86,0,4.62,0c1.759,0-22.221-16.939-22.221-18.7s2.2-3.96,2.2-3.96l-77.001,5.94L222.499,299.154z"/>
	<g opacity="0.22">
		<path opacity="0.53" fill="#919AB8" enable-background="new    " d="M35.596,250.772c1.199,0.614,7.302,3.204,7.302,3.204
			l2.573-6.06c-1.161-2.266-2.206-4.593-3.088-7.012c-0.155,0.048-0.309,0.09-0.463,0.137c-1.539,0.489-3.068,1.005-4.585,1.534
			c0.12,0.155,0.16,0.365,0.005,0.564c-0.683,0.894-1.338,1.839-1.965,2.821C35.374,245.96,34.397,250.157,35.596,250.772z"/>
		<path opacity="0.53" fill="#919AB8" enable-background="new    " d="M52.814,237.869c-3.168,0.858-6.329,1.767-9.48,2.746
			c0.792,2.159,1.709,4.244,2.725,6.281C47.971,243.66,50.209,240.596,52.814,237.869z"/>
		<path opacity="0.53" fill="#919AB8" enable-background="new    " d="M57.133,250.434c-1.814-3.719-3.182-7.602-3.964-11.543
			c-2.551,2.729-4.726,5.797-6.582,9.024c1.911,3.648,4.179,7.073,6.748,10.276c1.006-2.445,2.163-4.817,3.414-7.08
			C56.871,250.883,57.006,250.655,57.133,250.434z"/>
		<path opacity="0.53" fill="#919AB8" enable-background="new    " d="M52.907,259.235c-2.615-3.201-4.937-6.634-6.897-10.274
			c-1.329,2.412-1.594,2.781-2.592,5.284c-0.187,0.459,4.012,2.072,3.834,2.54c0,0,3.011,3.369,2.341,6.888
			c-0.67,3.518,1.192,3.715,1.192,3.715L52.907,259.235z"/>
		<path opacity="0.53" fill="#919AB8" enable-background="new    " d="M62.029,240.466c-0.659-1.49-1.174-1.987-1.382-3.574
			c-2.056,0.492-3.947-0.043-5.998,0.497c-0.298,0.287-0.593,0.578-0.879,0.871c0.169,0.048,0.315,0.17,0.354,0.382
			c0.717,3.674,1.948,7.291,3.593,10.78c1.433-2.427,3.063-4.834,4.897-7.091C62.415,241.716,62.21,241.095,62.029,240.466z"/>
		<path opacity="0.53" fill="#919AB8" enable-background="new    " d="M68.895,236.109c-0.085-0.685-0.022,0.268-0.05-0.428
			c-2.313,0.489-4.252,0.961-6.562,1.514c0.125,1.013-0.199,0.417,0.098,1.389c0.101,0.043,0.188,0.13,0.225,0.276
			c0.113,0.44,0.252,0.875,0.378,1.312c0.115,0.254,0.228,0.505,0.368,0.75c0.097,0.17,0.07,0.345-0.016,0.49
			c0.005,0.018,0.011,0.028,0.015,0.042C65.03,239.5,66.872,237.691,68.895,236.109z"/>
		<path opacity="0.53" fill="#919AB8" enable-background="new    " d="M57.662,251.491c-0.112,0.207-0.229,0.407-0.337,0.613
			c-1.207,2.229-2.314,4.57-3.278,6.968c2.532,3.064,5.36,5.897,8.416,8.514c0.439-2.054,1.047-4.083,1.767-6.083
			C61.7,258.37,59.473,255.011,57.662,251.491z"/>
		<path opacity="0.53" fill="#919AB8" enable-background="new    " d="M67.739,253.536c-1.915-3.215-3.532-6.598-4.766-10.114
			c-1.78,2.243-3.353,4.64-4.733,7.043c1.748,3.494,3.914,6.836,6.389,9.954C65.532,258.06,66.598,255.75,67.739,253.536z"/>
		<path opacity="0.53" fill="#919AB8" enable-background="new    " d="M72.018,246.137c-1.363-2.869-2.436-5.878-2.964-8.941
			c-1.95,1.579-3.728,3.386-5.341,5.319c1.175,3.473,2.722,6.813,4.57,9.983c0.291-0.543,0.586-1.086,0.886-1.62
			C70.059,249.285,71.011,247.699,72.018,246.137z"/>
		<path opacity="0.53" fill="#919AB8" enable-background="new    " d="M109.82,251.571c-1.587-2.971-3.008-6.162-4.128-9.444
			c-1.94,2.143-3.812,4.355-5.605,6.62c1.696,3.63,3.874,7.084,6.429,10.223c1.559-1.639,3.123-3.26,4.719-4.865
			C110.74,253.262,110.267,252.417,109.82,251.571z"/>
		<path opacity="0.53" fill="#919AB8" enable-background="new    " d="M117.631,247.979c-2.112-4.243-3.709-8.699-4.636-13.266
			c-2.261,2.114-4.433,4.31-6.528,6.576c1.072,3.257,2.452,6.411,3.981,9.359c0.476,0.91,0.972,1.829,1.498,2.741
			c1.412-1.403,2.834-2.798,4.301-4.158C116.703,248.804,117.17,248.39,117.631,247.979z"/>
		<path opacity="0.53" fill="#919AB8" enable-background="new    " d="M135.15,226.942c-3.442,0.07-6.889,0.174-10.328,0.328
			c0.25,4.266,0.795,8.699,1.761,13.047c2.516-2.01,5.098-3.961,7.722-5.836C134.286,231.99,134.549,229.468,135.15,226.942z"/>
		<path opacity="0.53" fill="#919AB8" enable-background="new    " d="M125.728,241.019c-1.05-4.554-1.641-9.213-1.902-13.694
			c-3.575,0.158-7.146,0.366-10.713,0.63c0.09,1.625,0.291,3.235,0.558,4.837c1.607-1.456,3.244-2.884,4.93-4.261
			c0.494-0.4,1.069,0.374,0.577,0.778c-1.828,1.486-3.601,3.03-5.328,4.613c0.869,4.608,2.436,9.097,4.542,13.361
			C120.781,245.137,123.224,243.049,125.728,241.019z"/>
		<path opacity="0.53" fill="#919AB8" enable-background="new    " d="M144.07,227.961c0.111-0.373,0.235-0.74,0.379-1.105
			c-2.764,0.007-5.524,0.027-8.29,0.076c-0.576,2.301-0.849,4.588-0.878,6.863C138.146,231.771,141.082,229.819,144.07,227.961z"/>
		<path opacity="0.53" fill="#919AB8" enable-background="new    " d="M112.778,233.596c-0.33-1.848-0.558-3.708-0.661-5.567
			c-2.589,0.191-5.188,1.3-7.772,1.544c-0.082,3.878,0.619,6.893,1.773,10.671C108.252,237.951,110.471,235.728,112.778,233.596z"/>
		<path opacity="0.53" fill="#919AB8" enable-background="new    " d="M98.941,248.627c-1.609-3.543-2.779-7.236-3.402-10.948
			c-2.113,2.284-4.118,4.673-6.013,7.156c1.25,3.226,2.775,6.339,4.491,9.262c0.125,0.216,0.262,0.437,0.394,0.659
			c0.803-1.15,1.616-2.287,2.449-3.41C97.541,250.432,98.24,249.53,98.941,248.627z"/>
		<path opacity="0.53" fill="#919AB8" enable-background="new    " d="M105.346,241.082c-1.272-4.013-2.046-7.153-1.985-11.291
			c-2.539,0.25-4.911,1.926-7.447,2.232c0.024,1.907,0.148,1.375,0.612,3.235c1.917-1.97,3.896-3.881,5.948-5.68
			c0.472-0.416,1.045,0.357,0.579,0.768c-2.298,2.021-4.512,4.17-6.644,6.42c0.553,3.711,1.665,7.417,3.229,10.983
			C101.462,245.46,103.365,243.242,105.346,241.082z"/>
		<path opacity="0.53" fill="#919AB8" enable-background="new    " d="M68.332,254.526c-1.107,2.191-2.127,4.464-2.986,6.781
			c2.802,3.398,5.982,6.498,9.401,9.19c0.59-1.821,1.242-3.619,1.967-5.402C73.531,261.873,70.704,258.333,68.332,254.526z"/>
		<path opacity="0.53" fill="#919AB8" enable-background="new    " d="M95.207,233.885c-0.263-1.374-0.266-0.465-0.291-1.862
			c-2.653,0.321-5.38,1.211-8.023,1.606c-0.158,0.125-0.005-0.001-0.158,0.125c0.27,4.265,0.901,5.943,2.394,10.028
			c1.964-2.531,4.038-4.971,6.225-7.299c-0.1-0.762-0.195-1.518-0.253-2.278C95.087,234.073,95.134,233.97,95.207,233.885z"/>
		<path opacity="0.53" fill="#919AB8" enable-background="new    " d="M86.014,233.218c-2.773,0.429-5.54,0.899-8.303,1.401
			c-0.028,0.147-0.116,0.285-0.302,0.36c-2.3,0.917-4.419,2.164-6.379,3.64c0.442,2.951,1.437,5.866,2.717,8.652
			c1.447-2.178,3.006-4.302,4.686-6.342c-0.414-1.906-0.701-3.836-0.84-5.767c-0.045-0.607,0.949-0.712,0.995-0.099
			c0.117,1.629,0.359,3.264,0.68,4.882C81.337,237.534,83.584,235.267,86.014,233.218z"/>
		<path opacity="0.45" fill="#919AB8" enable-background="new    " d="M55.537,255.741c-0.478,1.042-0.948,2.089-1.38,3.164
			c2.535,3.057,5.366,5.893,8.42,8.515c0.441-2.062,1.045-4.093,1.767-6.089c-1.724-2.13-3.29-4.379-4.696-6.699
			C58.279,255,56.907,255.367,55.537,255.741z"/>
		<path opacity="0.45" fill="#919AB8" enable-background="new    " d="M60.647,254.377c1.242,2.022,2.604,3.996,4.094,5.868
			c0.906-2.359,1.969-4.659,3.114-6.883c-0.142-0.237-0.273-0.486-0.415-0.73C65.169,253.19,62.905,253.773,60.647,254.377z"/>
		<path opacity="0.45" fill="#919AB8" enable-background="new    " d="M117.157,244.127c0.422,1.008,0.864,2.002,1.348,2.99
			c1.207-1.089,2.43-2.143,3.665-3.194C120.495,243.985,118.828,244.055,117.157,244.127z"/>
		<path opacity="0.45" fill="#919AB8" enable-background="new    " d="M94.131,253.925c0.128,0.22,0.264,0.439,0.393,0.658
			c0.806-1.149,1.619-2.285,2.451-3.409c0.68-0.916,1.377-1.822,2.08-2.712c-0.371-0.825-0.716-1.665-1.045-2.5
			c-2.408,0.458-4.824,0.932-7.233,1.424C91.783,249.641,92.904,251.836,94.131,253.925z"/>
		<path opacity="0.53" fill="#919AB8" d="M30.715,245.039c0,0-0.799,2.628,4,5.292c0,0-0.625-3.198,0.164-4.42
			s1.599-2.32,1.599-2.32L30.715,245.039z"/>
	</g>
	<path fill="#424041" enable-background="new    " d="M30.655,245.377c2.375-9.005,59.76-9.578,91.376-21.291
		c19.852-7.354,74.644-7.163,144.807-7.163c70.164,0,201.849,34.539,201.849,34.539s69.669,20.404,50.712,20.404
		c0,0-146.247-39.417-239.099-41.261c-48.462-0.963-98.364-5.359-150.278-1.251C82.467,233.117,30.655,245.377,30.655,245.377z"/>
	<path fill="#FFFFFF" d="M74.367,252.596c0,0-1.911,5.767,0,6.62c1.912,0.853,8.096,2.514,8.096,2.514l5.708-3.944l-1.868-8.822
		l-2.595-3.231l-4.65,0.948L74.367,252.596z"/>
	<g>
		<path fill="#312F2D" d="M84.121,263.031c0.107-0.035,0.21-0.069,0.316-0.112c4.244-1.875,7.109-7.344,5.088-11.916
			c-0.132-1.149-0.503-2.303-1.232-3.443c-1.572-2.463-5.016-4.26-7.565-3.069c-0.142-0.004-0.287,0.004-0.415,0.063
			c-4.756,2.143-8.814,6.951-6.848,12.605c0.147,0.424,0.335,0.834,0.536,1.234c-2.797-2.186-4.336-5.417-2.691-9.693
			c0.482-1.254-1.698-3.034-2.027-1.464C66.281,261.77,80.514,264.385,84.121,263.031z M74.723,254.602
			c0.531-2.042,2.048-4.807,3.655-6.041c2.727-2.487,6.808-0.859,7.669,0.933c2.991,11.132-3.595,10.553-4.655,10.88
			C77.441,261.593,73.829,258.032,74.723,254.602z"/>
	</g>
	<circle fill="#312F2D" cx="81.134" cy="253.73" r="3.412"/>
	<polygon opacity="0.22" fill="#919AB8" points="80.292,240.542 85.612,244.395 87.791,243.157 86.509,235.682 84.041,235.682 	"/>
	<path opacity="0.22" fill="#919AB8" d="M75.422,246.895c0,0,4.276-4.182,7.05-3.474s-3.525-1.966-3.525-1.966L75.422,246.895z"/>
	<polygon opacity="0.22" fill="#919AB8" points="99.518,250.273 105.927,259.538 99.518,263.346 94.916,256.438 	"/>
	<g opacity="0.53" enable-background="new    ">
		<path fill="#D1D8E8" d="M132.981,243.546c4.495,2.961,8.589,6.34,11.23,11.008c0.342,5.499-0.64,11.25-3.567,17.014
			c-4.022,7.942-13.146,17.395-22.334,18.556c-0.719-0.466-1.452-0.905-2.182-1.349
			C131.609,279.117,136.636,259.042,132.981,243.546z"/>
		<path fill="#D1D8E8" d="M119.163,249.244c-1.727-7.929-6.457-13.981-12.863-18.138c0.908,0.377,1.827,0.729,2.721,1.119
			c5.747,2.521,11.504,5.018,17.385,7.292c1.089,0.641,2.171,1.279,3.254,1.933c4.937,14.983,0.797,36.422-15.056,45.767
			c-0.397-0.704-0.805-1.402-1.157-2.14c4.663-5.795,7.331-12.719,6.725-20.775C120.62,258.946,120.135,253.694,119.163,249.244z"/>
	</g>
</g>
</svg>
